<?xml version="1.0" encoding="UTF-8"?>
<svg xmlns="http://www.w3.org/2000/svg" xmlns:inkscape="http://www.inkscape.org/namespaces/inkscape"
     version="1.1" width="297.000mm" height="210.000mm" viewBox="0 0 297.000 210.000">
  <title>Divider insert 75x50x35</title>
  <desc>Divider insert 75x50x35 — generated by Vostok Labs (https://vostoklabs.github.io)</desc>
  <g id="CUT" inkscape:groupmode="layer" inkscape:label="CUT">
    <path d="M 5.000 205.000 L 29.697 205.000 L 29.697 188.500 L 30.177 188.500 L 30.177 205.000 L 54.823 205.000 L 54.823 188.500 L 55.303 188.500 L 55.303 205.000 L 79.500 205.000 L 79.500 172.000 L 5.000 172.000 Z" fill="#FF0000" fill-opacity="0.06" stroke="#FF0000" stroke-width="0.05"/>
    <path d="M 5.000 166.000 L 54.500 166.000 L 54.500 133.000 L 30.240 133.000 L 30.240 149.500 L 29.760 149.500 L 29.760 133.000 L 5.000 133.000 Z" fill="#FF0000" fill-opacity="0.06" stroke="#FF0000" stroke-width="0.05"/>
    <path d="M 5.000 127.000 L 54.500 127.000 L 54.500 94.000 L 30.240 94.000 L 30.240 110.500 L 29.760 110.500 L 29.760 94.000 L 5.000 94.000 Z" fill="#FF0000" fill-opacity="0.06" stroke="#FF0000" stroke-width="0.05"/>
  </g>
  <g id="ENGRAVE" inkscape:groupmode="layer" inkscape:label="ENGRAVE">
    <path d="M 5.000 88.000 L 105.000 88.000 L 105.000 78.000 L 5.000 78.000 Z" fill="#000000" fill-opacity="0.06" stroke="#000000" stroke-width="0.05"/>
  </g>
</svg>
