0
SECTION
2
HEADER
9
$ACADVER
1
AC1009
9
$INSUNITS
70
4
9
$MEASUREMENT
70
1
9
$EXTMIN
10
0.000
20
0.000
30
0.000
9
$EXTMAX
10
297.000
20
210.000
30
0.000
0
ENDSEC
0
SECTION
2
TABLES
0
TABLE
2
LAYER
70
5
0
LAYER
2
CUT
70
0
62
1
6
CONTINUOUS
0
LAYER
2
CREASE
70
0
62
5
6
CONTINUOUS
0
LAYER
2
PERF
70
0
62
4
6
CONTINUOUS
0
LAYER
2
FILM
70
0
62
3
6
CONTINUOUS
0
LAYER
2
ENGRAVE
70
0
62
7
6
CONTINUOUS
0
ENDTAB
0
ENDSEC
0
SECTION
2
ENTITIES
0
POLYLINE
8
CUT
66
1
70
1
10
0.000
20
0.000
30
0.000
0
VERTEX
8
CUT
10
5.000
20
5.000
30
0.000
0
VERTEX
8
CUT
10
34.697
20
5.000
30
0.000
0
VERTEX
8
CUT
10
34.697
20
16.500
30
0.000
0
VERTEX
8
CUT
10
35.177
20
16.500
30
0.000
0
VERTEX
8
CUT
10
35.177
20
5.000
30
0.000
0
VERTEX
8
CUT
10
64.823
20
5.000
30
0.000
0
VERTEX
8
CUT
10
64.823
20
16.500
30
0.000
0
VERTEX
8
CUT
10
65.303
20
16.500
30
0.000
0
VERTEX
8
CUT
10
65.303
20
5.000
30
0.000
0
VERTEX
8
CUT
10
94.500
20
5.000
30
0.000
0
VERTEX
8
CUT
10
94.500
20
28.000
30
0.000
0
VERTEX
8
CUT
10
5.000
20
28.000
30
0.000
0
SEQEND
8
CUT
0
POLYLINE
8
CUT
66
1
70
1
10
0.000
20
0.000
30
0.000
0
VERTEX
8
CUT
10
5.000
20
34.000
30
0.000
0
VERTEX
8
CUT
10
64.500
20
34.000
30
0.000
0
VERTEX
8
CUT
10
64.500
20
57.000
30
0.000
0
VERTEX
8
CUT
10
35.240
20
57.000
30
0.000
0
VERTEX
8
CUT
10
35.240
20
45.500
30
0.000
0
VERTEX
8
CUT
10
34.760
20
45.500
30
0.000
0
VERTEX
8
CUT
10
34.760
20
57.000
30
0.000
0
VERTEX
8
CUT
10
5.000
20
57.000
30
0.000
0
SEQEND
8
CUT
0
POLYLINE
8
CUT
66
1
70
1
10
0.000
20
0.000
30
0.000
0
VERTEX
8
CUT
10
5.000
20
63.000
30
0.000
0
VERTEX
8
CUT
10
64.500
20
63.000
30
0.000
0
VERTEX
8
CUT
10
64.500
20
86.000
30
0.000
0
VERTEX
8
CUT
10
35.240
20
86.000
30
0.000
0
VERTEX
8
CUT
10
35.240
20
74.500
30
0.000
0
VERTEX
8
CUT
10
34.760
20
74.500
30
0.000
0
VERTEX
8
CUT
10
34.760
20
86.000
30
0.000
0
VERTEX
8
CUT
10
5.000
20
86.000
30
0.000
0
SEQEND
8
CUT
0
POLYLINE
8
ENGRAVE
66
1
70
1
10
0.000
20
0.000
30
0.000
0
VERTEX
8
ENGRAVE
10
5.000
20
92.000
30
0.000
0
VERTEX
8
ENGRAVE
10
105.000
20
92.000
30
0.000
0
VERTEX
8
ENGRAVE
10
105.000
20
102.000
30
0.000
0
VERTEX
8
ENGRAVE
10
5.000
20
102.000
30
0.000
0
SEQEND
8
ENGRAVE
0
ENDSEC
0
EOF
