0
SECTION
2
HEADER
9
$ACADVER
1
AC1009
9
$INSUNITS
70
4
9
$MEASUREMENT
70
1
9
$EXTMIN
10
0.000
20
0.000
30
0.000
9
$EXTMAX
10
297.000
20
210.000
30
0.000
0
ENDSEC
0
SECTION
2
TABLES
0
TABLE
2
LAYER
70
5
0
LAYER
2
CUT
70
0
62
1
6
CONTINUOUS
0
LAYER
2
CREASE
70
0
62
5
6
CONTINUOUS
0
LAYER
2
PERF
70
0
62
4
6
CONTINUOUS
0
LAYER
2
FILM
70
0
62
3
6
CONTINUOUS
0
LAYER
2
ENGRAVE
70
0
62
7
6
CONTINUOUS
0
ENDTAB
0
ENDSEC
0
SECTION
2
ENTITIES
0
POLYLINE
8
CUT
66
1
70
1
10
0.000
20
0.000
30
0.000
0
VERTEX
8
CUT
10
5.000
20
5.000
30
0.000
0
VERTEX
8
CUT
10
29.697
20
5.000
30
0.000
0
VERTEX
8
CUT
10
29.697
20
21.500
30
0.000
0
VERTEX
8
CUT
10
30.177
20
21.500
30
0.000
0
VERTEX
8
CUT
10
30.177
20
5.000
30
0.000
0
VERTEX
8
CUT
10
54.823
20
5.000
30
0.000
0
VERTEX
8
CUT
10
54.823
20
21.500
30
0.000
0
VERTEX
8
CUT
10
55.303
20
21.500
30
0.000
0
VERTEX
8
CUT
10
55.303
20
5.000
30
0.000
0
VERTEX
8
CUT
10
79.500
20
5.000
30
0.000
0
VERTEX
8
CUT
10
79.500
20
38.000
30
0.000
0
VERTEX
8
CUT
10
5.000
20
38.000
30
0.000
0
SEQEND
8
CUT
0
POLYLINE
8
CUT
66
1
70
1
10
0.000
20
0.000
30
0.000
0
VERTEX
8
CUT
10
5.000
20
44.000
30
0.000
0
VERTEX
8
CUT
10
54.500
20
44.000
30
0.000
0
VERTEX
8
CUT
10
54.500
20
77.000
30
0.000
0
VERTEX
8
CUT
10
30.240
20
77.000
30
0.000
0
VERTEX
8
CUT
10
30.240
20
60.500
30
0.000
0
VERTEX
8
CUT
10
29.760
20
60.500
30
0.000
0
VERTEX
8
CUT
10
29.760
20
77.000
30
0.000
0
VERTEX
8
CUT
10
5.000
20
77.000
30
0.000
0
SEQEND
8
CUT
0
POLYLINE
8
CUT
66
1
70
1
10
0.000
20
0.000
30
0.000
0
VERTEX
8
CUT
10
5.000
20
83.000
30
0.000
0
VERTEX
8
CUT
10
54.500
20
83.000
30
0.000
0
VERTEX
8
CUT
10
54.500
20
116.000
30
0.000
0
VERTEX
8
CUT
10
30.240
20
116.000
30
0.000
0
VERTEX
8
CUT
10
30.240
20
99.500
30
0.000
0
VERTEX
8
CUT
10
29.760
20
99.500
30
0.000
0
VERTEX
8
CUT
10
29.760
20
116.000
30
0.000
0
VERTEX
8
CUT
10
5.000
20
116.000
30
0.000
0
SEQEND
8
CUT
0
POLYLINE
8
ENGRAVE
66
1
70
1
10
0.000
20
0.000
30
0.000
0
VERTEX
8
ENGRAVE
10
5.000
20
122.000
30
0.000
0
VERTEX
8
ENGRAVE
10
105.000
20
122.000
30
0.000
0
VERTEX
8
ENGRAVE
10
105.000
20
132.000
30
0.000
0
VERTEX
8
ENGRAVE
10
5.000
20
132.000
30
0.000
0
SEQEND
8
ENGRAVE
0
ENDSEC
0
EOF
