0
SECTION
2
HEADER
9
$ACADVER
1
AC1009
9
$INSUNITS
70
4
9
$MEASUREMENT
70
1
9
$EXTMIN
10
0.000
20
0.000
30
0.000
9
$EXTMAX
10
297.000
20
210.000
30
0.000
0
ENDSEC
0
SECTION
2
TABLES
0
TABLE
2
LAYER
70
5
0
LAYER
2
CUT
70
0
62
1
6
CONTINUOUS
0
LAYER
2
CREASE
70
0
62
5
6
CONTINUOUS
0
LAYER
2
PERF
70
0
62
4
6
CONTINUOUS
0
LAYER
2
FILM
70
0
62
3
6
CONTINUOUS
0
LAYER
2
ENGRAVE
70
0
62
7
6
CONTINUOUS
0
ENDTAB
0
ENDSEC
0
SECTION
2
ENTITIES
0
POLYLINE
8
CUT
66
1
70
1
10
0.000
20
0.000
30
0.000
0
VERTEX
8
CUT
10
95.846
20
41.000
30
0.000
0
VERTEX
8
CUT
10
149.194
20
41.000
30
0.000
0
VERTEX
8
CUT
10
147.432
20
24.059
30
0.000
0
VERTEX
8
CUT
10
146.997
20
22.360
30
0.000
0
VERTEX
8
CUT
10
146.089
20
20.858
30
0.000
0
VERTEX
8
CUT
10
144.786
20
19.684
30
0.000
0
VERTEX
8
CUT
10
143.199
20
18.937
30
0.000
0
VERTEX
8
CUT
10
141.464
20
18.680
30
0.000
0
VERTEX
8
CUT
10
103.576
20
18.680
30
0.000
0
VERTEX
8
CUT
10
101.841
20
18.937
30
0.000
0
VERTEX
8
CUT
10
100.254
20
19.684
30
0.000
0
VERTEX
8
CUT
10
98.951
20
20.858
30
0.000
0
VERTEX
8
CUT
10
98.043
20
22.360
30
0.000
0
VERTEX
8
CUT
10
97.608
20
24.059
30
0.000
0
SEQEND
8
CUT
0
POLYLINE
8
CUT
66
1
70
1
10
0.000
20
0.000
30
0.000
0
VERTEX
8
CUT
10
149.194
20
153.280
30
0.000
0
VERTEX
8
CUT
10
95.846
20
153.280
30
0.000
0
VERTEX
8
CUT
10
97.608
20
170.221
30
0.000
0
VERTEX
8
CUT
10
98.043
20
171.920
30
0.000
0
VERTEX
8
CUT
10
98.951
20
173.422
30
0.000
0
VERTEX
8
CUT
10
100.254
20
174.596
30
0.000
0
VERTEX
8
CUT
10
101.841
20
175.344
30
0.000
0
VERTEX
8
CUT
10
103.576
20
175.600
30
0.000
0
VERTEX
8
CUT
10
141.464
20
175.600
30
0.000
0
VERTEX
8
CUT
10
143.199
20
175.344
30
0.000
0
VERTEX
8
CUT
10
144.786
20
174.596
30
0.000
0
VERTEX
8
CUT
10
146.089
20
173.422
30
0.000
0
VERTEX
8
CUT
10
146.997
20
171.920
30
0.000
0
VERTEX
8
CUT
10
147.432
20
170.221
30
0.000
0
SEQEND
8
CUT
0
POLYLINE
8
CUT
66
1
70
1
10
0.000
20
0.000
30
0.000
0
VERTEX
8
CUT
10
11.000
20
96.140
30
0.000
0
VERTEX
8
CUT
10
10.617
20
96.216
30
0.000
0
VERTEX
8
CUT
10
10.293
20
96.433
30
0.000
0
VERTEX
8
CUT
10
10.076
20
96.757
30
0.000
0
VERTEX
8
CUT
10
10.000
20
97.140
30
0.000
0
VERTEX
8
CUT
10
10.076
20
97.523
30
0.000
0
VERTEX
8
CUT
10
10.293
20
97.847
30
0.000
0
VERTEX
8
CUT
10
10.617
20
98.064
30
0.000
0
VERTEX
8
CUT
10
11.000
20
98.140
30
0.000
0
VERTEX
8
CUT
10
40.274
20
98.140
30
0.000
0
VERTEX
8
CUT
10
40.656
20
98.064
30
0.000
0
VERTEX
8
CUT
10
40.981
20
97.847
30
0.000
0
VERTEX
8
CUT
10
41.197
20
97.523
30
0.000
0
VERTEX
8
CUT
10
41.274
20
97.140
30
0.000
0
VERTEX
8
CUT
10
41.197
20
96.757
30
0.000
0
VERTEX
8
CUT
10
40.981
20
96.433
30
0.000
0
VERTEX
8
CUT
10
40.656
20
96.216
30
0.000
0
VERTEX
8
CUT
10
40.274
20
96.140
30
0.000
0
SEQEND
8
CUT
0
POLYLINE
8
CUT
66
1
70
1
10
0.000
20
0.000
30
0.000
0
VERTEX
8
CUT
10
204.766
20
96.140
30
0.000
0
VERTEX
8
CUT
10
204.384
20
96.216
30
0.000
0
VERTEX
8
CUT
10
204.059
20
96.433
30
0.000
0
VERTEX
8
CUT
10
203.843
20
96.757
30
0.000
0
VERTEX
8
CUT
10
203.766
20
97.140
30
0.000
0
VERTEX
8
CUT
10
203.843
20
97.523
30
0.000
0
VERTEX
8
CUT
10
204.059
20
97.847
30
0.000
0
VERTEX
8
CUT
10
204.384
20
98.064
30
0.000
0
VERTEX
8
CUT
10
204.766
20
98.140
30
0.000
0
VERTEX
8
CUT
10
234.040
20
98.140
30
0.000
0
VERTEX
8
CUT
10
234.423
20
98.064
30
0.000
0
VERTEX
8
CUT
10
234.747
20
97.847
30
0.000
0
VERTEX
8
CUT
10
234.964
20
97.523
30
0.000
0
VERTEX
8
CUT
10
235.040
20
97.140
30
0.000
0
VERTEX
8
CUT
10
234.964
20
96.757
30
0.000
0
VERTEX
8
CUT
10
234.747
20
96.433
30
0.000
0
VERTEX
8
CUT
10
234.423
20
96.216
30
0.000
0
VERTEX
8
CUT
10
234.040
20
96.140
30
0.000
0
SEQEND
8
CUT
0
POLYLINE
8
CREASE
66
1
70
0
10
0.000
20
0.000
30
0.000
0
VERTEX
8
CREASE
10
167.500
20
79.260
30
0.000
0
VERTEX
8
CREASE
10
77.540
20
79.260
30
0.000
0
SEQEND
8
CREASE
0
POLYLINE
8
CREASE
66
1
70
0
10
0.000
20
0.000
30
0.000
0
VERTEX
8
CREASE
10
77.540
20
115.020
30
0.000
0
VERTEX
8
CREASE
10
167.500
20
115.020
30
0.000
0
SEQEND
8
CREASE
0
POLYLINE
8
CREASE
66
1
70
0
10
0.000
20
0.000
30
0.000
0
VERTEX
8
CREASE
10
77.140
20
79.660
30
0.000
0
VERTEX
8
CREASE
10
77.140
20
114.620
30
0.000
0
SEQEND
8
CREASE
0
POLYLINE
8
CREASE
66
1
70
0
10
0.000
20
0.000
30
0.000
0
VERTEX
8
CREASE
10
167.900
20
114.620
30
0.000
0
VERTEX
8
CREASE
10
167.900
20
79.660
30
0.000
0
SEQEND
8
CREASE
0
POLYLINE
8
CREASE
66
1
70
0
10
0.000
20
0.000
30
0.000
0
VERTEX
8
CREASE
10
77.540
20
59.280
30
0.000
0
VERTEX
8
CREASE
10
77.540
20
78.860
30
0.000
0
SEQEND
8
CREASE
0
POLYLINE
8
CREASE
66
1
70
0
10
0.000
20
0.000
30
0.000
0
VERTEX
8
CREASE
10
167.500
20
78.860
30
0.000
0
VERTEX
8
CREASE
10
167.500
20
59.280
30
0.000
0
SEQEND
8
CREASE
0
POLYLINE
8
CREASE
66
1
70
0
10
0.000
20
0.000
30
0.000
0
VERTEX
8
CREASE
10
77.540
20
115.420
30
0.000
0
VERTEX
8
CREASE
10
77.540
20
135.000
30
0.000
0
SEQEND
8
CREASE
0
POLYLINE
8
CREASE
66
1
70
0
10
0.000
20
0.000
30
0.000
0
VERTEX
8
CREASE
10
167.500
20
135.000
30
0.000
0
VERTEX
8
CREASE
10
167.500
20
115.420
30
0.000
0
SEQEND
8
CREASE
0
POLYLINE
8
CREASE
66
1
70
0
10
0.000
20
0.000
30
0.000
0
VERTEX
8
CREASE
10
167.500
20
58.880
30
0.000
0
VERTEX
8
CREASE
10
77.540
20
58.880
30
0.000
0
SEQEND
8
CREASE
0
POLYLINE
8
CREASE
66
1
70
0
10
0.000
20
0.000
30
0.000
0
VERTEX
8
CREASE
10
77.540
20
135.400
30
0.000
0
VERTEX
8
CREASE
10
167.500
20
135.400
30
0.000
0
SEQEND
8
CREASE
0
POLYLINE
8
CREASE
66
1
70
0
10
0.000
20
0.000
30
0.000
0
VERTEX
8
CREASE
10
155.194
20
41.000
30
0.000
0
VERTEX
8
CREASE
10
89.846
20
41.000
30
0.000
0
SEQEND
8
CREASE
0
POLYLINE
8
CREASE
66
1
70
0
10
0.000
20
0.000
30
0.000
0
VERTEX
8
CREASE
10
89.846
20
153.280
30
0.000
0
VERTEX
8
CREASE
10
155.194
20
153.280
30
0.000
0
SEQEND
8
CREASE
0
POLYLINE
8
CREASE
66
1
70
0
10
0.000
20
0.000
30
0.000
0
VERTEX
8
CREASE
10
56.380
20
79.660
30
0.000
0
VERTEX
8
CREASE
10
56.380
20
114.620
30
0.000
0
SEQEND
8
CREASE
0
POLYLINE
8
CREASE
66
1
70
0
10
0.000
20
0.000
30
0.000
0
VERTEX
8
CREASE
10
188.660
20
114.620
30
0.000
0
VERTEX
8
CREASE
10
188.660
20
79.660
30
0.000
0
SEQEND
8
CREASE
0
POLYLINE
8
CUT
66
1
70
1
10
0.000
20
0.000
30
0.000
0
VERTEX
8
CUT
10
77.140
20
79.260
30
0.000
0
VERTEX
8
CUT
10
77.540
20
79.260
30
0.000
0
VERTEX
8
CUT
10
77.540
20
78.860
30
0.000
0
VERTEX
8
CUT
10
60.060
20
78.860
30
0.000
0
VERTEX
8
CUT
10
60.060
20
65.398
30
0.000
0
VERTEX
8
CUT
10
66.178
20
59.280
30
0.000
0
VERTEX
8
CUT
10
77.540
20
59.280
30
0.000
0
VERTEX
8
CUT
10
77.540
20
41.000
30
0.000
0
VERTEX
8
CUT
10
89.846
20
41.000
30
0.000
0
VERTEX
8
CUT
10
93.031
20
10.379
30
0.000
0
VERTEX
8
CUT
10
93.466
20
8.680
30
0.000
0
VERTEX
8
CUT
10
94.373
20
7.178
30
0.000
0
VERTEX
8
CUT
10
95.676
20
6.004
30
0.000
0
VERTEX
8
CUT
10
97.263
20
5.257
30
0.000
0
VERTEX
8
CUT
10
98.999
20
5.000
30
0.000
0
VERTEX
8
CUT
10
146.041
20
5.000
30
0.000
0
VERTEX
8
CUT
10
147.777
20
5.257
30
0.000
0
VERTEX
8
CUT
10
149.364
20
6.004
30
0.000
0
VERTEX
8
CUT
10
150.667
20
7.178
30
0.000
0
VERTEX
8
CUT
10
151.574
20
8.680
30
0.000
0
VERTEX
8
CUT
10
152.009
20
10.379
30
0.000
0
VERTEX
8
CUT
10
155.194
20
41.000
30
0.000
0
VERTEX
8
CUT
10
167.500
20
41.000
30
0.000
0
VERTEX
8
CUT
10
167.500
20
59.280
30
0.000
0
VERTEX
8
CUT
10
178.862
20
59.280
30
0.000
0
VERTEX
8
CUT
10
184.980
20
65.398
30
0.000
0
VERTEX
8
CUT
10
184.980
20
78.860
30
0.000
0
VERTEX
8
CUT
10
167.500
20
78.860
30
0.000
0
VERTEX
8
CUT
10
167.500
20
79.260
30
0.000
0
VERTEX
8
CUT
10
167.900
20
79.260
30
0.000
0
VERTEX
8
CUT
10
167.900
20
79.660
30
0.000
0
VERTEX
8
CUT
10
188.660
20
79.660
30
0.000
0
VERTEX
8
CUT
10
240.040
20
91.140
30
0.000
0
VERTEX
8
CUT
10
240.040
20
103.140
30
0.000
0
VERTEX
8
CUT
10
188.660
20
114.620
30
0.000
0
VERTEX
8
CUT
10
167.900
20
114.620
30
0.000
0
VERTEX
8
CUT
10
167.900
20
115.020
30
0.000
0
VERTEX
8
CUT
10
167.500
20
115.020
30
0.000
0
VERTEX
8
CUT
10
167.500
20
115.420
30
0.000
0
VERTEX
8
CUT
10
184.980
20
115.420
30
0.000
0
VERTEX
8
CUT
10
184.980
20
128.882
30
0.000
0
VERTEX
8
CUT
10
178.862
20
135.000
30
0.000
0
VERTEX
8
CUT
10
167.500
20
135.000
30
0.000
0
VERTEX
8
CUT
10
167.500
20
153.280
30
0.000
0
VERTEX
8
CUT
10
155.194
20
153.280
30
0.000
0
VERTEX
8
CUT
10
152.009
20
183.901
30
0.000
0
VERTEX
8
CUT
10
151.574
20
185.600
30
0.000
0
VERTEX
8
CUT
10
150.667
20
187.102
30
0.000
0
VERTEX
8
CUT
10
149.364
20
188.276
30
0.000
0
VERTEX
8
CUT
10
147.777
20
189.024
30
0.000
0
VERTEX
8
CUT
10
146.041
20
189.280
30
0.000
0
VERTEX
8
CUT
10
98.999
20
189.280
30
0.000
0
VERTEX
8
CUT
10
97.263
20
189.024
30
0.000
0
VERTEX
8
CUT
10
95.676
20
188.276
30
0.000
0
VERTEX
8
CUT
10
94.373
20
187.102
30
0.000
0
VERTEX
8
CUT
10
93.466
20
185.600
30
0.000
0
VERTEX
8
CUT
10
93.031
20
183.901
30
0.000
0
VERTEX
8
CUT
10
89.846
20
153.280
30
0.000
0
VERTEX
8
CUT
10
77.540
20
153.280
30
0.000
0
VERTEX
8
CUT
10
77.540
20
135.000
30
0.000
0
VERTEX
8
CUT
10
66.178
20
135.000
30
0.000
0
VERTEX
8
CUT
10
60.060
20
128.882
30
0.000
0
VERTEX
8
CUT
10
60.060
20
115.420
30
0.000
0
VERTEX
8
CUT
10
77.540
20
115.420
30
0.000
0
VERTEX
8
CUT
10
77.540
20
115.020
30
0.000
0
VERTEX
8
CUT
10
77.140
20
115.020
30
0.000
0
VERTEX
8
CUT
10
77.140
20
114.620
30
0.000
0
VERTEX
8
CUT
10
56.380
20
114.620
30
0.000
0
VERTEX
8
CUT
10
5.000
20
103.140
30
0.000
0
VERTEX
8
CUT
10
5.000
20
91.140
30
0.000
0
VERTEX
8
CUT
10
56.380
20
79.660
30
0.000
0
VERTEX
8
CUT
10
77.140
20
79.660
30
0.000
0
SEQEND
8
CUT
0
POLYLINE
8
ENGRAVE
66
1
70
1
10
0.000
20
0.000
30
0.000
0
VERTEX
8
ENGRAVE
10
5.000
20
195.280
30
0.000
0
VERTEX
8
ENGRAVE
10
105.000
20
195.280
30
0.000
0
VERTEX
8
ENGRAVE
10
105.000
20
205.280
30
0.000
0
VERTEX
8
ENGRAVE
10
5.000
20
205.280
30
0.000
0
SEQEND
8
ENGRAVE
0
ENDSEC
0
EOF
