0
SECTION
2
HEADER
9
$ACADVER
1
AC1009
9
$INSUNITS
70
4
9
$MEASUREMENT
70
1
9
$EXTMIN
10
0.000
20
0.000
30
0.000
9
$EXTMAX
10
297.000
20
210.000
30
0.000
0
ENDSEC
0
SECTION
2
TABLES
0
TABLE
2
LAYER
70
5
0
LAYER
2
CUT
70
0
62
1
6
CONTINUOUS
0
LAYER
2
CREASE
70
0
62
5
6
CONTINUOUS
0
LAYER
2
PERF
70
0
62
4
6
CONTINUOUS
0
LAYER
2
FILM
70
0
62
3
6
CONTINUOUS
0
LAYER
2
ENGRAVE
70
0
62
7
6
CONTINUOUS
0
ENDTAB
0
ENDSEC
0
SECTION
2
ENTITIES
0
POLYLINE
8
CUT
66
1
70
1
10
0.000
20
0.000
30
0.000
0
VERTEX
8
CUT
10
58.480
20
55.084
30
0.000
0
VERTEX
8
CUT
10
60.280
20
55.084
30
0.000
0
VERTEX
8
CUT
10
60.280
20
42.132
30
0.000
0
VERTEX
8
CUT
10
58.480
20
42.132
30
0.000
0
SEQEND
8
CUT
0
POLYLINE
8
CUT
66
1
70
1
10
0.000
20
0.000
30
0.000
0
VERTEX
8
CUT
10
58.480
20
79.388
30
0.000
0
VERTEX
8
CUT
10
60.280
20
79.388
30
0.000
0
VERTEX
8
CUT
10
60.280
20
66.436
30
0.000
0
VERTEX
8
CUT
10
58.480
20
66.436
30
0.000
0
SEQEND
8
CUT
0
POLYLINE
8
CUT
66
1
70
1
10
0.000
20
0.000
30
0.000
0
VERTEX
8
CUT
10
149.180
20
42.132
30
0.000
0
VERTEX
8
CUT
10
147.380
20
42.132
30
0.000
0
VERTEX
8
CUT
10
147.380
20
55.084
30
0.000
0
VERTEX
8
CUT
10
149.180
20
55.084
30
0.000
0
SEQEND
8
CUT
0
POLYLINE
8
CUT
66
1
70
1
10
0.000
20
0.000
30
0.000
0
VERTEX
8
CUT
10
149.180
20
66.436
30
0.000
0
VERTEX
8
CUT
10
147.380
20
66.436
30
0.000
0
VERTEX
8
CUT
10
147.380
20
79.388
30
0.000
0
VERTEX
8
CUT
10
149.180
20
79.388
30
0.000
0
SEQEND
8
CUT
0
POLYLINE
8
CREASE
66
1
70
0
10
0.000
20
0.000
30
0.000
0
VERTEX
8
CREASE
10
149.380
20
30.380
30
0.000
0
VERTEX
8
CREASE
10
58.280
20
30.380
30
0.000
0
SEQEND
8
CREASE
0
POLYLINE
8
CREASE
66
1
70
0
10
0.000
20
0.000
30
0.000
0
VERTEX
8
CREASE
10
58.280
20
91.140
30
0.000
0
VERTEX
8
CREASE
10
149.380
20
91.140
30
0.000
0
SEQEND
8
CREASE
0
POLYLINE
8
CREASE
66
1
70
0
10
0.000
20
0.000
30
0.000
0
VERTEX
8
CREASE
10
57.880
20
30.380
30
0.000
0
VERTEX
8
CREASE
10
57.880
20
91.140
30
0.000
0
SEQEND
8
CREASE
0
POLYLINE
8
CREASE
66
1
70
0
10
0.000
20
0.000
30
0.000
0
VERTEX
8
CREASE
10
32.880
20
30.780
30
0.000
0
VERTEX
8
CREASE
10
32.880
20
90.740
30
0.000
0
SEQEND
8
CREASE
0
POLYLINE
8
CREASE
66
1
70
0
10
0.000
20
0.000
30
0.000
0
VERTEX
8
CREASE
10
32.120
20
30.780
30
0.000
0
VERTEX
8
CREASE
10
32.120
20
90.740
30
0.000
0
SEQEND
8
CREASE
0
POLYLINE
8
CREASE
66
1
70
0
10
0.000
20
0.000
30
0.000
0
VERTEX
8
CREASE
10
149.780
20
91.140
30
0.000
0
VERTEX
8
CREASE
10
149.780
20
30.380
30
0.000
0
SEQEND
8
CREASE
0
POLYLINE
8
CREASE
66
1
70
0
10
0.000
20
0.000
30
0.000
0
VERTEX
8
CREASE
10
174.780
20
90.740
30
0.000
0
VERTEX
8
CREASE
10
174.780
20
30.780
30
0.000
0
SEQEND
8
CREASE
0
POLYLINE
8
CREASE
66
1
70
0
10
0.000
20
0.000
30
0.000
0
VERTEX
8
CREASE
10
175.540
20
90.740
30
0.000
0
VERTEX
8
CREASE
10
175.540
20
30.780
30
0.000
0
SEQEND
8
CREASE
0
POLYLINE
8
CREASE
66
1
70
0
10
0.000
20
0.000
30
0.000
0
VERTEX
8
CREASE
10
58.280
20
5.400
30
0.000
0
VERTEX
8
CREASE
10
58.280
20
29.980
30
0.000
0
SEQEND
8
CREASE
0
POLYLINE
8
CREASE
66
1
70
0
10
0.000
20
0.000
30
0.000
0
VERTEX
8
CREASE
10
149.380
20
29.980
30
0.000
0
VERTEX
8
CREASE
10
149.380
20
5.400
30
0.000
0
SEQEND
8
CREASE
0
POLYLINE
8
CREASE
66
1
70
0
10
0.000
20
0.000
30
0.000
0
VERTEX
8
CREASE
10
58.280
20
91.540
30
0.000
0
VERTEX
8
CREASE
10
58.280
20
116.120
30
0.000
0
SEQEND
8
CREASE
0
POLYLINE
8
CREASE
66
1
70
0
10
0.000
20
0.000
30
0.000
0
VERTEX
8
CREASE
10
149.380
20
116.120
30
0.000
0
VERTEX
8
CREASE
10
149.380
20
91.540
30
0.000
0
SEQEND
8
CREASE
0
POLYLINE
8
CREASE
66
1
70
0
10
0.000
20
0.000
30
0.000
0
VERTEX
8
CREASE
10
58.280
20
116.520
30
0.000
0
VERTEX
8
CREASE
10
149.380
20
116.520
30
0.000
0
SEQEND
8
CREASE
0
POLYLINE
8
CREASE
66
1
70
0
10
0.000
20
0.000
30
0.000
0
VERTEX
8
CREASE
10
58.830
20
176.900
30
0.000
0
VERTEX
8
CREASE
10
148.830
20
176.900
30
0.000
0
SEQEND
8
CREASE
0
POLYLINE
8
CUT
66
1
70
1
10
0.000
20
0.000
30
0.000
0
VERTEX
8
CUT
10
58.280
20
30.380
30
0.000
0
VERTEX
8
CUT
10
58.280
20
29.980
30
0.000
0
VERTEX
8
CUT
10
28.300
20
29.980
30
0.000
0
VERTEX
8
CUT
10
28.300
20
14.003
30
0.000
0
VERTEX
8
CUT
10
36.903
20
5.400
30
0.000
0
VERTEX
8
CUT
10
58.280
20
5.400
30
0.000
0
VERTEX
8
CUT
10
58.280
20
5.000
30
0.000
0
VERTEX
8
CUT
10
149.380
20
5.000
30
0.000
0
VERTEX
8
CUT
10
149.380
20
5.400
30
0.000
0
VERTEX
8
CUT
10
170.757
20
5.400
30
0.000
0
VERTEX
8
CUT
10
179.360
20
14.003
30
0.000
0
VERTEX
8
CUT
10
179.360
20
29.980
30
0.000
0
VERTEX
8
CUT
10
149.380
20
29.980
30
0.000
0
VERTEX
8
CUT
10
149.380
20
30.380
30
0.000
0
VERTEX
8
CUT
10
174.780
20
30.380
30
0.000
0
VERTEX
8
CUT
10
174.780
20
30.780
30
0.000
0
VERTEX
8
CUT
10
200.160
20
30.780
30
0.000
0
VERTEX
8
CUT
10
200.160
20
42.532
30
0.000
0
VERTEX
8
CUT
10
202.660
20
42.532
30
0.000
0
VERTEX
8
CUT
10
202.660
20
54.684
30
0.000
0
VERTEX
8
CUT
10
200.160
20
54.684
30
0.000
0
VERTEX
8
CUT
10
200.160
20
66.836
30
0.000
0
VERTEX
8
CUT
10
202.660
20
66.836
30
0.000
0
VERTEX
8
CUT
10
202.660
20
78.988
30
0.000
0
VERTEX
8
CUT
10
200.160
20
78.988
30
0.000
0
VERTEX
8
CUT
10
200.160
20
90.740
30
0.000
0
VERTEX
8
CUT
10
174.780
20
90.740
30
0.000
0
VERTEX
8
CUT
10
174.780
20
91.140
30
0.000
0
VERTEX
8
CUT
10
149.380
20
91.140
30
0.000
0
VERTEX
8
CUT
10
149.380
20
91.540
30
0.000
0
VERTEX
8
CUT
10
179.360
20
91.540
30
0.000
0
VERTEX
8
CUT
10
179.360
20
107.517
30
0.000
0
VERTEX
8
CUT
10
170.757
20
116.120
30
0.000
0
VERTEX
8
CUT
10
149.380
20
116.120
30
0.000
0
VERTEX
8
CUT
10
149.380
20
116.520
30
0.000
0
VERTEX
8
CUT
10
149.970
20
116.520
30
0.000
0
VERTEX
8
CUT
10
149.970
20
176.900
30
0.000
0
VERTEX
8
CUT
10
148.830
20
176.900
30
0.000
0
VERTEX
8
CUT
10
148.830
20
189.505
30
0.000
0
VERTEX
8
CUT
10
148.261
20
193.100
30
0.000
0
VERTEX
8
CUT
10
146.608
20
196.344
30
0.000
0
VERTEX
8
CUT
10
144.034
20
198.918
30
0.000
0
VERTEX
8
CUT
10
140.790
20
200.571
30
0.000
0
VERTEX
8
CUT
10
137.195
20
201.140
30
0.000
0
VERTEX
8
CUT
10
70.465
20
201.140
30
0.000
0
VERTEX
8
CUT
10
66.870
20
200.571
30
0.000
0
VERTEX
8
CUT
10
63.626
20
198.918
30
0.000
0
VERTEX
8
CUT
10
61.052
20
196.344
30
0.000
0
VERTEX
8
CUT
10
59.400
20
193.100
30
0.000
0
VERTEX
8
CUT
10
58.830
20
189.505
30
0.000
0
VERTEX
8
CUT
10
58.830
20
176.900
30
0.000
0
VERTEX
8
CUT
10
57.690
20
176.900
30
0.000
0
VERTEX
8
CUT
10
57.690
20
116.520
30
0.000
0
VERTEX
8
CUT
10
58.280
20
116.520
30
0.000
0
VERTEX
8
CUT
10
58.280
20
116.120
30
0.000
0
VERTEX
8
CUT
10
36.903
20
116.120
30
0.000
0
VERTEX
8
CUT
10
28.300
20
107.517
30
0.000
0
VERTEX
8
CUT
10
28.300
20
91.540
30
0.000
0
VERTEX
8
CUT
10
58.280
20
91.540
30
0.000
0
VERTEX
8
CUT
10
58.280
20
91.140
30
0.000
0
VERTEX
8
CUT
10
32.880
20
91.140
30
0.000
0
VERTEX
8
CUT
10
32.880
20
90.740
30
0.000
0
VERTEX
8
CUT
10
7.500
20
90.740
30
0.000
0
VERTEX
8
CUT
10
7.500
20
78.988
30
0.000
0
VERTEX
8
CUT
10
5.000
20
78.988
30
0.000
0
VERTEX
8
CUT
10
5.000
20
66.836
30
0.000
0
VERTEX
8
CUT
10
7.500
20
66.836
30
0.000
0
VERTEX
8
CUT
10
7.500
20
54.684
30
0.000
0
VERTEX
8
CUT
10
5.000
20
54.684
30
0.000
0
VERTEX
8
CUT
10
5.000
20
42.532
30
0.000
0
VERTEX
8
CUT
10
7.500
20
42.532
30
0.000
0
VERTEX
8
CUT
10
7.500
20
30.780
30
0.000
0
VERTEX
8
CUT
10
32.880
20
30.780
30
0.000
0
VERTEX
8
CUT
10
32.880
20
30.380
30
0.000
0
SEQEND
8
CUT
0
POLYLINE
8
ENGRAVE
66
1
70
1
10
0.000
20
0.000
30
0.000
0
VERTEX
8
ENGRAVE
10
5.000
20
207.140
30
0.000
0
VERTEX
8
ENGRAVE
10
105.000
20
207.140
30
0.000
0
VERTEX
8
ENGRAVE
10
105.000
20
217.140
30
0.000
0
VERTEX
8
ENGRAVE
10
5.000
20
217.140
30
0.000
0
SEQEND
8
ENGRAVE
0
ENDSEC
0
EOF
