0
SECTION
2
HEADER
9
$ACADVER
1
AC1009
9
$INSUNITS
70
4
9
$MEASUREMENT
70
1
9
$EXTMIN
10
0.000
20
0.000
30
0.000
9
$EXTMAX
10
297.000
20
210.000
30
0.000
0
ENDSEC
0
SECTION
2
TABLES
0
TABLE
2
LAYER
70
5
0
LAYER
2
CUT
70
0
62
1
6
CONTINUOUS
0
LAYER
2
CREASE
70
0
62
5
6
CONTINUOUS
0
LAYER
2
PERF
70
0
62
4
6
CONTINUOUS
0
LAYER
2
FILM
70
0
62
3
6
CONTINUOUS
0
LAYER
2
ENGRAVE
70
0
62
7
6
CONTINUOUS
0
ENDTAB
0
ENDSEC
0
SECTION
2
ENTITIES
0
POLYLINE
8
CUT
66
1
70
1
10
0.000
20
0.000
30
0.000
0
VERTEX
8
CUT
10
68.480
20
60.084
30
0.000
0
VERTEX
8
CUT
10
70.280
20
60.084
30
0.000
0
VERTEX
8
CUT
10
70.280
20
47.132
30
0.000
0
VERTEX
8
CUT
10
68.480
20
47.132
30
0.000
0
SEQEND
8
CUT
0
POLYLINE
8
CUT
66
1
70
1
10
0.000
20
0.000
30
0.000
0
VERTEX
8
CUT
10
68.480
20
84.388
30
0.000
0
VERTEX
8
CUT
10
70.280
20
84.388
30
0.000
0
VERTEX
8
CUT
10
70.280
20
71.436
30
0.000
0
VERTEX
8
CUT
10
68.480
20
71.436
30
0.000
0
SEQEND
8
CUT
0
POLYLINE
8
CUT
66
1
70
1
10
0.000
20
0.000
30
0.000
0
VERTEX
8
CUT
10
133.180
20
47.132
30
0.000
0
VERTEX
8
CUT
10
131.380
20
47.132
30
0.000
0
VERTEX
8
CUT
10
131.380
20
60.084
30
0.000
0
VERTEX
8
CUT
10
133.180
20
60.084
30
0.000
0
SEQEND
8
CUT
0
POLYLINE
8
CUT
66
1
70
1
10
0.000
20
0.000
30
0.000
0
VERTEX
8
CUT
10
133.180
20
71.436
30
0.000
0
VERTEX
8
CUT
10
131.380
20
71.436
30
0.000
0
VERTEX
8
CUT
10
131.380
20
84.388
30
0.000
0
VERTEX
8
CUT
10
133.180
20
84.388
30
0.000
0
SEQEND
8
CUT
0
POLYLINE
8
CUT
66
1
70
1
10
0.000
20
0.000
30
0.000
0
VERTEX
8
CUT
10
58.880
20
52.760
30
0.000
0
VERTEX
8
CUT
10
58.347
20
50.081
30
0.000
0
VERTEX
8
CUT
10
56.830
20
47.810
30
0.000
0
VERTEX
8
CUT
10
54.559
20
46.293
30
0.000
0
VERTEX
8
CUT
10
51.880
20
45.760
30
0.000
0
VERTEX
8
CUT
10
49.201
20
46.293
30
0.000
0
VERTEX
8
CUT
10
46.930
20
47.810
30
0.000
0
VERTEX
8
CUT
10
45.413
20
50.081
30
0.000
0
VERTEX
8
CUT
10
44.880
20
52.760
30
0.000
0
VERTEX
8
CUT
10
44.880
20
78.760
30
0.000
0
VERTEX
8
CUT
10
45.413
20
81.439
30
0.000
0
VERTEX
8
CUT
10
46.930
20
83.710
30
0.000
0
VERTEX
8
CUT
10
49.201
20
85.227
30
0.000
0
VERTEX
8
CUT
10
51.880
20
85.760
30
0.000
0
VERTEX
8
CUT
10
54.559
20
85.227
30
0.000
0
VERTEX
8
CUT
10
56.830
20
83.710
30
0.000
0
VERTEX
8
CUT
10
58.347
20
81.439
30
0.000
0
VERTEX
8
CUT
10
58.880
20
78.760
30
0.000
0
SEQEND
8
CUT
0
POLYLINE
8
CUT
66
1
70
1
10
0.000
20
0.000
30
0.000
0
VERTEX
8
CUT
10
30.120
20
52.760
30
0.000
0
VERTEX
8
CUT
10
29.587
20
50.081
30
0.000
0
VERTEX
8
CUT
10
28.070
20
47.810
30
0.000
0
VERTEX
8
CUT
10
25.799
20
46.293
30
0.000
0
VERTEX
8
CUT
10
23.120
20
45.760
30
0.000
0
VERTEX
8
CUT
10
20.441
20
46.293
30
0.000
0
VERTEX
8
CUT
10
18.170
20
47.810
30
0.000
0
VERTEX
8
CUT
10
16.653
20
50.081
30
0.000
0
VERTEX
8
CUT
10
16.120
20
52.760
30
0.000
0
VERTEX
8
CUT
10
16.120
20
78.760
30
0.000
0
VERTEX
8
CUT
10
16.653
20
81.439
30
0.000
0
VERTEX
8
CUT
10
18.170
20
83.710
30
0.000
0
VERTEX
8
CUT
10
20.441
20
85.227
30
0.000
0
VERTEX
8
CUT
10
23.120
20
85.760
30
0.000
0
VERTEX
8
CUT
10
25.799
20
85.227
30
0.000
0
VERTEX
8
CUT
10
28.070
20
83.710
30
0.000
0
VERTEX
8
CUT
10
29.587
20
81.439
30
0.000
0
VERTEX
8
CUT
10
30.120
20
78.760
30
0.000
0
SEQEND
8
CUT
0
POLYLINE
8
CUT
66
1
70
1
10
0.000
20
0.000
30
0.000
0
VERTEX
8
CUT
10
156.780
20
52.760
30
0.000
0
VERTEX
8
CUT
10
156.247
20
50.081
30
0.000
0
VERTEX
8
CUT
10
154.730
20
47.810
30
0.000
0
VERTEX
8
CUT
10
152.459
20
46.293
30
0.000
0
VERTEX
8
CUT
10
149.780
20
45.760
30
0.000
0
VERTEX
8
CUT
10
147.101
20
46.293
30
0.000
0
VERTEX
8
CUT
10
144.830
20
47.810
30
0.000
0
VERTEX
8
CUT
10
143.313
20
50.081
30
0.000
0
VERTEX
8
CUT
10
142.780
20
52.760
30
0.000
0
VERTEX
8
CUT
10
142.780
20
78.760
30
0.000
0
VERTEX
8
CUT
10
143.313
20
81.439
30
0.000
0
VERTEX
8
CUT
10
144.830
20
83.710
30
0.000
0
VERTEX
8
CUT
10
147.101
20
85.227
30
0.000
0
VERTEX
8
CUT
10
149.780
20
85.760
30
0.000
0
VERTEX
8
CUT
10
152.459
20
85.227
30
0.000
0
VERTEX
8
CUT
10
154.730
20
83.710
30
0.000
0
VERTEX
8
CUT
10
156.247
20
81.439
30
0.000
0
VERTEX
8
CUT
10
156.780
20
78.760
30
0.000
0
SEQEND
8
CUT
0
POLYLINE
8
CUT
66
1
70
1
10
0.000
20
0.000
30
0.000
0
VERTEX
8
CUT
10
185.540
20
52.760
30
0.000
0
VERTEX
8
CUT
10
185.007
20
50.081
30
0.000
0
VERTEX
8
CUT
10
183.490
20
47.810
30
0.000
0
VERTEX
8
CUT
10
181.219
20
46.293
30
0.000
0
VERTEX
8
CUT
10
178.540
20
45.760
30
0.000
0
VERTEX
8
CUT
10
175.861
20
46.293
30
0.000
0
VERTEX
8
CUT
10
173.590
20
47.810
30
0.000
0
VERTEX
8
CUT
10
172.073
20
50.081
30
0.000
0
VERTEX
8
CUT
10
171.540
20
52.760
30
0.000
0
VERTEX
8
CUT
10
171.540
20
78.760
30
0.000
0
VERTEX
8
CUT
10
172.073
20
81.439
30
0.000
0
VERTEX
8
CUT
10
173.590
20
83.710
30
0.000
0
VERTEX
8
CUT
10
175.861
20
85.227
30
0.000
0
VERTEX
8
CUT
10
178.540
20
85.760
30
0.000
0
VERTEX
8
CUT
10
181.219
20
85.227
30
0.000
0
VERTEX
8
CUT
10
183.490
20
83.710
30
0.000
0
VERTEX
8
CUT
10
185.007
20
81.439
30
0.000
0
VERTEX
8
CUT
10
185.540
20
78.760
30
0.000
0
SEQEND
8
CUT
0
POLYLINE
8
CREASE
66
1
70
0
10
0.000
20
0.000
30
0.000
0
VERTEX
8
CREASE
10
133.380
20
35.380
30
0.000
0
VERTEX
8
CREASE
10
68.280
20
35.380
30
0.000
0
SEQEND
8
CREASE
0
POLYLINE
8
CREASE
66
1
70
0
10
0.000
20
0.000
30
0.000
0
VERTEX
8
CREASE
10
68.280
20
96.140
30
0.000
0
VERTEX
8
CREASE
10
133.380
20
96.140
30
0.000
0
SEQEND
8
CREASE
0
POLYLINE
8
CREASE
66
1
70
0
10
0.000
20
0.000
30
0.000
0
VERTEX
8
CREASE
10
67.880
20
35.380
30
0.000
0
VERTEX
8
CREASE
10
67.880
20
96.140
30
0.000
0
SEQEND
8
CREASE
0
POLYLINE
8
CREASE
66
1
70
0
10
0.000
20
0.000
30
0.000
0
VERTEX
8
CREASE
10
37.880
20
35.780
30
0.000
0
VERTEX
8
CREASE
10
37.880
20
95.740
30
0.000
0
SEQEND
8
CREASE
0
POLYLINE
8
CREASE
66
1
70
0
10
0.000
20
0.000
30
0.000
0
VERTEX
8
CREASE
10
37.120
20
35.780
30
0.000
0
VERTEX
8
CREASE
10
37.120
20
95.740
30
0.000
0
SEQEND
8
CREASE
0
POLYLINE
8
CREASE
66
1
70
0
10
0.000
20
0.000
30
0.000
0
VERTEX
8
CREASE
10
133.780
20
96.140
30
0.000
0
VERTEX
8
CREASE
10
133.780
20
35.380
30
0.000
0
SEQEND
8
CREASE
0
POLYLINE
8
CREASE
66
1
70
0
10
0.000
20
0.000
30
0.000
0
VERTEX
8
CREASE
10
163.780
20
95.740
30
0.000
0
VERTEX
8
CREASE
10
163.780
20
35.780
30
0.000
0
SEQEND
8
CREASE
0
POLYLINE
8
CREASE
66
1
70
0
10
0.000
20
0.000
30
0.000
0
VERTEX
8
CREASE
10
164.540
20
95.740
30
0.000
0
VERTEX
8
CREASE
10
164.540
20
35.780
30
0.000
0
SEQEND
8
CREASE
0
POLYLINE
8
CREASE
66
1
70
0
10
0.000
20
0.000
30
0.000
0
VERTEX
8
CREASE
10
68.280
20
5.400
30
0.000
0
VERTEX
8
CREASE
10
68.280
20
34.980
30
0.000
0
SEQEND
8
CREASE
0
POLYLINE
8
CREASE
66
1
70
0
10
0.000
20
0.000
30
0.000
0
VERTEX
8
CREASE
10
133.380
20
34.980
30
0.000
0
VERTEX
8
CREASE
10
133.380
20
5.400
30
0.000
0
SEQEND
8
CREASE
0
POLYLINE
8
CREASE
66
1
70
0
10
0.000
20
0.000
30
0.000
0
VERTEX
8
CREASE
10
68.280
20
96.540
30
0.000
0
VERTEX
8
CREASE
10
68.280
20
126.120
30
0.000
0
SEQEND
8
CREASE
0
POLYLINE
8
CREASE
66
1
70
0
10
0.000
20
0.000
30
0.000
0
VERTEX
8
CREASE
10
133.380
20
126.120
30
0.000
0
VERTEX
8
CREASE
10
133.380
20
96.540
30
0.000
0
SEQEND
8
CREASE
0
POLYLINE
8
CREASE
66
1
70
0
10
0.000
20
0.000
30
0.000
0
VERTEX
8
CREASE
10
68.280
20
126.520
30
0.000
0
VERTEX
8
CREASE
10
133.380
20
126.520
30
0.000
0
SEQEND
8
CREASE
0
POLYLINE
8
CREASE
66
1
70
0
10
0.000
20
0.000
30
0.000
0
VERTEX
8
CREASE
10
68.830
20
186.900
30
0.000
0
VERTEX
8
CREASE
10
132.830
20
186.900
30
0.000
0
SEQEND
8
CREASE
0
POLYLINE
8
CUT
66
1
70
1
10
0.000
20
0.000
30
0.000
0
VERTEX
8
CUT
10
68.280
20
35.380
30
0.000
0
VERTEX
8
CUT
10
68.280
20
34.980
30
0.000
0
VERTEX
8
CUT
10
38.300
20
34.980
30
0.000
0
VERTEX
8
CUT
10
38.300
20
15.753
30
0.000
0
VERTEX
8
CUT
10
48.653
20
5.400
30
0.000
0
VERTEX
8
CUT
10
68.280
20
5.400
30
0.000
0
VERTEX
8
CUT
10
68.280
20
5.000
30
0.000
0
VERTEX
8
CUT
10
133.380
20
5.000
30
0.000
0
VERTEX
8
CUT
10
133.380
20
5.400
30
0.000
0
VERTEX
8
CUT
10
153.007
20
5.400
30
0.000
0
VERTEX
8
CUT
10
163.360
20
15.753
30
0.000
0
VERTEX
8
CUT
10
163.360
20
34.980
30
0.000
0
VERTEX
8
CUT
10
133.380
20
34.980
30
0.000
0
VERTEX
8
CUT
10
133.380
20
35.380
30
0.000
0
VERTEX
8
CUT
10
163.780
20
35.380
30
0.000
0
VERTEX
8
CUT
10
163.780
20
35.780
30
0.000
0
VERTEX
8
CUT
10
194.160
20
35.780
30
0.000
0
VERTEX
8
CUT
10
194.160
20
47.532
30
0.000
0
VERTEX
8
CUT
10
196.660
20
47.532
30
0.000
0
VERTEX
8
CUT
10
196.660
20
59.684
30
0.000
0
VERTEX
8
CUT
10
194.160
20
59.684
30
0.000
0
VERTEX
8
CUT
10
194.160
20
71.836
30
0.000
0
VERTEX
8
CUT
10
196.660
20
71.836
30
0.000
0
VERTEX
8
CUT
10
196.660
20
83.988
30
0.000
0
VERTEX
8
CUT
10
194.160
20
83.988
30
0.000
0
VERTEX
8
CUT
10
194.160
20
95.740
30
0.000
0
VERTEX
8
CUT
10
163.780
20
95.740
30
0.000
0
VERTEX
8
CUT
10
163.780
20
96.140
30
0.000
0
VERTEX
8
CUT
10
133.380
20
96.140
30
0.000
0
VERTEX
8
CUT
10
133.380
20
96.540
30
0.000
0
VERTEX
8
CUT
10
163.360
20
96.540
30
0.000
0
VERTEX
8
CUT
10
163.360
20
115.767
30
0.000
0
VERTEX
8
CUT
10
153.007
20
126.120
30
0.000
0
VERTEX
8
CUT
10
133.380
20
126.120
30
0.000
0
VERTEX
8
CUT
10
133.380
20
126.520
30
0.000
0
VERTEX
8
CUT
10
133.970
20
126.520
30
0.000
0
VERTEX
8
CUT
10
133.970
20
186.900
30
0.000
0
VERTEX
8
CUT
10
132.830
20
186.900
30
0.000
0
VERTEX
8
CUT
10
132.830
20
207.180
30
0.000
0
VERTEX
8
CUT
10
132.392
20
209.949
30
0.000
0
VERTEX
8
CUT
10
131.119
20
212.447
30
0.000
0
VERTEX
8
CUT
10
129.137
20
214.429
30
0.000
0
VERTEX
8
CUT
10
126.639
20
215.702
30
0.000
0
VERTEX
8
CUT
10
123.870
20
216.140
30
0.000
0
VERTEX
8
CUT
10
77.790
20
216.140
30
0.000
0
VERTEX
8
CUT
10
75.021
20
215.702
30
0.000
0
VERTEX
8
CUT
10
72.523
20
214.429
30
0.000
0
VERTEX
8
CUT
10
70.541
20
212.447
30
0.000
0
VERTEX
8
CUT
10
69.268
20
209.949
30
0.000
0
VERTEX
8
CUT
10
68.830
20
207.180
30
0.000
0
VERTEX
8
CUT
10
68.830
20
186.900
30
0.000
0
VERTEX
8
CUT
10
67.690
20
186.900
30
0.000
0
VERTEX
8
CUT
10
67.690
20
126.520
30
0.000
0
VERTEX
8
CUT
10
68.280
20
126.520
30
0.000
0
VERTEX
8
CUT
10
68.280
20
126.120
30
0.000
0
VERTEX
8
CUT
10
48.653
20
126.120
30
0.000
0
VERTEX
8
CUT
10
38.300
20
115.767
30
0.000
0
VERTEX
8
CUT
10
38.300
20
96.540
30
0.000
0
VERTEX
8
CUT
10
68.280
20
96.540
30
0.000
0
VERTEX
8
CUT
10
68.280
20
96.140
30
0.000
0
VERTEX
8
CUT
10
37.880
20
96.140
30
0.000
0
VERTEX
8
CUT
10
37.880
20
95.740
30
0.000
0
VERTEX
8
CUT
10
7.500
20
95.740
30
0.000
0
VERTEX
8
CUT
10
7.500
20
83.988
30
0.000
0
VERTEX
8
CUT
10
5.000
20
83.988
30
0.000
0
VERTEX
8
CUT
10
5.000
20
71.836
30
0.000
0
VERTEX
8
CUT
10
7.500
20
71.836
30
0.000
0
VERTEX
8
CUT
10
7.500
20
59.684
30
0.000
0
VERTEX
8
CUT
10
5.000
20
59.684
30
0.000
0
VERTEX
8
CUT
10
5.000
20
47.532
30
0.000
0
VERTEX
8
CUT
10
7.500
20
47.532
30
0.000
0
VERTEX
8
CUT
10
7.500
20
35.780
30
0.000
0
VERTEX
8
CUT
10
37.880
20
35.780
30
0.000
0
VERTEX
8
CUT
10
37.880
20
35.380
30
0.000
0
SEQEND
8
CUT
0
POLYLINE
8
ENGRAVE
66
1
70
1
10
0.000
20
0.000
30
0.000
0
VERTEX
8
ENGRAVE
10
5.000
20
222.140
30
0.000
0
VERTEX
8
ENGRAVE
10
105.000
20
222.140
30
0.000
0
VERTEX
8
ENGRAVE
10
105.000
20
232.140
30
0.000
0
VERTEX
8
ENGRAVE
10
5.000
20
232.140
30
0.000
0
SEQEND
8
ENGRAVE
0
ENDSEC
0
EOF
