0
SECTION
2
HEADER
9
$ACADVER
1
AC1009
9
$INSUNITS
70
4
9
$MEASUREMENT
70
1
9
$EXTMIN
10
0.000
20
0.000
30
0.000
9
$EXTMAX
10
297.000
20
210.000
30
0.000
0
ENDSEC
0
SECTION
2
TABLES
0
TABLE
2
LAYER
70
5
0
LAYER
2
CUT
70
0
62
1
6
CONTINUOUS
0
LAYER
2
CREASE
70
0
62
5
6
CONTINUOUS
0
LAYER
2
PERF
70
0
62
4
6
CONTINUOUS
0
LAYER
2
FILM
70
0
62
3
6
CONTINUOUS
0
LAYER
2
ENGRAVE
70
0
62
7
6
CONTINUOUS
0
ENDTAB
0
ENDSEC
0
SECTION
2
ENTITIES
0
POLYLINE
8
CUT
66
1
70
1
10
0.000
20
0.000
30
0.000
0
VERTEX
8
CUT
10
47.380
20
18.000
30
0.000
0
VERTEX
8
CUT
10
47.038
20
16.278
30
0.000
0
VERTEX
8
CUT
10
46.062
20
14.818
30
0.000
0
VERTEX
8
CUT
10
44.602
20
13.843
30
0.000
0
VERTEX
8
CUT
10
42.880
20
13.500
30
0.000
0
VERTEX
8
CUT
10
41.158
20
13.843
30
0.000
0
VERTEX
8
CUT
10
39.698
20
14.818
30
0.000
0
VERTEX
8
CUT
10
38.723
20
16.278
30
0.000
0
VERTEX
8
CUT
10
38.380
20
18.000
30
0.000
0
VERTEX
8
CUT
10
38.380
20
31.500
30
0.000
0
VERTEX
8
CUT
10
38.723
20
33.222
30
0.000
0
VERTEX
8
CUT
10
39.698
20
34.682
30
0.000
0
VERTEX
8
CUT
10
41.158
20
35.657
30
0.000
0
VERTEX
8
CUT
10
42.880
20
36.000
30
0.000
0
VERTEX
8
CUT
10
44.602
20
35.657
30
0.000
0
VERTEX
8
CUT
10
46.062
20
34.682
30
0.000
0
VERTEX
8
CUT
10
47.038
20
33.222
30
0.000
0
VERTEX
8
CUT
10
47.380
20
31.500
30
0.000
0
SEQEND
8
CUT
0
POLYLINE
8
CUT
66
1
70
1
10
0.000
20
0.000
30
0.000
0
VERTEX
8
CUT
10
36.130
20
29.500
30
0.000
0
VERTEX
8
CUT
10
34.886
20
29.747
30
0.000
0
VERTEX
8
CUT
10
33.832
20
30.452
30
0.000
0
VERTEX
8
CUT
10
33.127
20
31.506
30
0.000
0
VERTEX
8
CUT
10
32.880
20
32.750
30
0.000
0
VERTEX
8
CUT
10
33.127
20
33.994
30
0.000
0
VERTEX
8
CUT
10
33.832
20
35.048
30
0.000
0
VERTEX
8
CUT
10
34.886
20
35.753
30
0.000
0
VERTEX
8
CUT
10
36.130
20
36.000
30
0.000
0
VERTEX
8
CUT
10
49.630
20
36.000
30
0.000
0
VERTEX
8
CUT
10
50.874
20
35.753
30
0.000
0
VERTEX
8
CUT
10
51.928
20
35.048
30
0.000
0
VERTEX
8
CUT
10
52.633
20
33.994
30
0.000
0
VERTEX
8
CUT
10
52.880
20
32.750
30
0.000
0
VERTEX
8
CUT
10
52.633
20
31.506
30
0.000
0
VERTEX
8
CUT
10
51.928
20
30.452
30
0.000
0
VERTEX
8
CUT
10
50.874
20
29.747
30
0.000
0
VERTEX
8
CUT
10
49.630
20
29.500
30
0.000
0
SEQEND
8
CUT
0
POLYLINE
8
CREASE
66
1
70
0
10
0.000
20
0.000
30
0.000
0
VERTEX
8
CREASE
10
80.760
20
40.000
30
0.000
0
VERTEX
8
CREASE
10
80.760
20
5.000
30
0.000
0
SEQEND
8
CREASE
0
POLYLINE
8
CREASE
66
1
70
0
10
0.000
20
0.000
30
0.000
0
VERTEX
8
CREASE
10
131.520
20
40.000
30
0.000
0
VERTEX
8
CREASE
10
131.520
20
5.000
30
0.000
0
SEQEND
8
CREASE
0
POLYLINE
8
CREASE
66
1
70
0
10
0.000
20
0.000
30
0.000
0
VERTEX
8
CREASE
10
207.280
20
40.000
30
0.000
0
VERTEX
8
CREASE
10
207.280
20
5.000
30
0.000
0
SEQEND
8
CREASE
0
POLYLINE
8
CREASE
66
1
70
0
10
0.000
20
0.000
30
0.000
0
VERTEX
8
CREASE
10
257.280
20
40.000
30
0.000
0
VERTEX
8
CREASE
10
257.280
20
5.000
30
0.000
0
SEQEND
8
CREASE
0
POLYLINE
8
CUT
66
1
70
1
10
0.000
20
0.000
30
0.000
0
VERTEX
8
CUT
10
5.000
20
5.000
30
0.000
0
VERTEX
8
CUT
10
257.280
20
5.000
30
0.000
0
VERTEX
8
CUT
10
269.280
20
9.200
30
0.000
0
VERTEX
8
CUT
10
269.280
20
35.800
30
0.000
0
VERTEX
8
CUT
10
257.280
20
40.000
30
0.000
0
VERTEX
8
CUT
10
5.000
20
40.000
30
0.000
0
SEQEND
8
CUT
0
POLYLINE
8
ENGRAVE
66
1
70
1
10
0.000
20
0.000
30
0.000
0
VERTEX
8
ENGRAVE
10
5.000
20
46.000
30
0.000
0
VERTEX
8
ENGRAVE
10
105.000
20
46.000
30
0.000
0
VERTEX
8
ENGRAVE
10
105.000
20
56.000
30
0.000
0
VERTEX
8
ENGRAVE
10
5.000
20
56.000
30
0.000
0
SEQEND
8
ENGRAVE
0
ENDSEC
0
EOF
