<?xml version="1.0" encoding="UTF-8"?>
<svg xmlns="http://www.w3.org/2000/svg" xmlns:inkscape="http://www.inkscape.org/namespaces/inkscape"
     version="1.1" width="297.000mm" height="210.000mm" viewBox="0 0 297.000 210.000">
  <title>Sleeve 75x50x35</title>
  <desc>Sleeve 75x50x35 — generated by Vostok Labs (https://vostoklabs.github.io)</desc>
  <g id="CUT" inkscape:groupmode="layer" inkscape:label="CUT">
    <path d="M 47.380 192.000 L 47.038 193.722 L 46.062 195.182 L 44.602 196.157 L 42.880 196.500 L 41.158 196.157 L 39.698 195.182 L 38.723 193.722 L 38.380 192.000 L 38.380 178.500 L 38.723 176.778 L 39.698 175.318 L 41.158 174.343 L 42.880 174.000 L 44.602 174.343 L 46.062 175.318 L 47.038 176.778 L 47.380 178.500 Z" fill="#FF0000" fill-opacity="0.06" stroke="#FF0000" stroke-width="0.05"/>
    <path d="M 36.130 180.500 L 34.886 180.253 L 33.832 179.548 L 33.127 178.494 L 32.880 177.250 L 33.127 176.006 L 33.832 174.952 L 34.886 174.247 L 36.130 174.000 L 49.630 174.000 L 50.874 174.247 L 51.928 174.952 L 52.633 176.006 L 52.880 177.250 L 52.633 178.494 L 51.928 179.548 L 50.874 180.253 L 49.630 180.500 Z" fill="#FF0000" fill-opacity="0.06" stroke="#FF0000" stroke-width="0.05"/>
    <path d="M 5.000 205.000 L 257.280 205.000 L 269.280 200.800 L 269.280 174.200 L 257.280 170.000 L 5.000 170.000 Z" fill="#FF0000" fill-opacity="0.06" stroke="#FF0000" stroke-width="0.05"/>
  </g>
  <g id="CREASE" inkscape:groupmode="layer" inkscape:label="CREASE">
    <path d="M 80.760 170.000 L 80.760 205.000" fill="none" stroke="#0000FF" stroke-width="0.05"/>
    <path d="M 131.520 170.000 L 131.520 205.000" fill="none" stroke="#0000FF" stroke-width="0.05"/>
    <path d="M 207.280 170.000 L 207.280 205.000" fill="none" stroke="#0000FF" stroke-width="0.05"/>
    <path d="M 257.280 170.000 L 257.280 205.000" fill="none" stroke="#0000FF" stroke-width="0.05"/>
  </g>
  <g id="ENGRAVE" inkscape:groupmode="layer" inkscape:label="ENGRAVE">
    <path d="M 5.000 164.000 L 105.000 164.000 L 105.000 154.000 L 5.000 154.000 Z" fill="#000000" fill-opacity="0.06" stroke="#000000" stroke-width="0.05"/>
  </g>
</svg>
