0
SECTION
2
HEADER
9
$ACADVER
1
AC1009
9
$INSUNITS
70
4
9
$MEASUREMENT
70
1
9
$EXTMIN
10
0.000
20
0.000
30
0.000
9
$EXTMAX
10
297.000
20
210.000
30
0.000
0
ENDSEC
0
SECTION
2
TABLES
0
TABLE
2
LAYER
70
5
0
LAYER
2
CUT
70
0
62
1
6
CONTINUOUS
0
LAYER
2
CREASE
70
0
62
5
6
CONTINUOUS
0
LAYER
2
PERF
70
0
62
4
6
CONTINUOUS
0
LAYER
2
FILM
70
0
62
3
6
CONTINUOUS
0
LAYER
2
ENGRAVE
70
0
62
7
6
CONTINUOUS
0
ENDTAB
0
ENDSEC
0
SECTION
2
ENTITIES
0
POLYLINE
8
CUT
66
1
70
1
10
0.000
20
0.000
30
0.000
0
VERTEX
8
CUT
10
53.781
20
10.433
30
0.000
0
VERTEX
8
CUT
10
52.343
20
8.996
30
0.000
0
VERTEX
8
CUT
10
50.380
20
8.470
30
0.000
0
VERTEX
8
CUT
10
48.416
20
8.996
30
0.000
0
VERTEX
8
CUT
10
46.979
20
10.433
30
0.000
0
VERTEX
8
CUT
10
46.453
20
12.397
30
0.000
0
VERTEX
8
CUT
10
46.453
20
12.897
30
0.000
0
VERTEX
8
CUT
10
44.036
20
15.585
30
0.000
0
VERTEX
8
CUT
10
43.244
20
19.112
30
0.000
0
VERTEX
8
CUT
10
44.282
20
22.574
30
0.000
0
VERTEX
8
CUT
10
46.883
20
25.085
30
0.000
0
VERTEX
8
CUT
10
50.380
20
26.000
30
0.000
0
VERTEX
8
CUT
10
53.877
20
25.085
30
0.000
0
VERTEX
8
CUT
10
56.478
20
22.574
30
0.000
0
VERTEX
8
CUT
10
57.516
20
19.112
30
0.000
0
VERTEX
8
CUT
10
56.724
20
15.585
30
0.000
0
VERTEX
8
CUT
10
54.307
20
12.897
30
0.000
0
VERTEX
8
CUT
10
54.307
20
12.397
30
0.000
0
SEQEND
8
CUT
0
POLYLINE
8
CREASE
66
1
70
0
10
0.000
20
0.000
30
0.000
0
VERTEX
8
CREASE
10
95.760
20
30.000
30
0.000
0
VERTEX
8
CREASE
10
95.760
20
5.000
30
0.000
0
SEQEND
8
CREASE
0
POLYLINE
8
CREASE
66
1
70
0
10
0.000
20
0.000
30
0.000
0
VERTEX
8
CREASE
10
156.520
20
30.000
30
0.000
0
VERTEX
8
CREASE
10
156.520
20
5.000
30
0.000
0
SEQEND
8
CREASE
0
POLYLINE
8
CREASE
66
1
70
0
10
0.000
20
0.000
30
0.000
0
VERTEX
8
CREASE
10
247.280
20
30.000
30
0.000
0
VERTEX
8
CREASE
10
247.280
20
5.000
30
0.000
0
SEQEND
8
CREASE
0
POLYLINE
8
CREASE
66
1
70
0
10
0.000
20
0.000
30
0.000
0
VERTEX
8
CREASE
10
307.280
20
30.000
30
0.000
0
VERTEX
8
CREASE
10
307.280
20
5.000
30
0.000
0
SEQEND
8
CREASE
0
POLYLINE
8
CUT
66
1
70
1
10
0.000
20
0.000
30
0.000
0
VERTEX
8
CUT
10
5.000
20
5.000
30
0.000
0
VERTEX
8
CUT
10
307.280
20
5.000
30
0.000
0
VERTEX
8
CUT
10
319.280
20
9.200
30
0.000
0
VERTEX
8
CUT
10
319.280
20
25.800
30
0.000
0
VERTEX
8
CUT
10
307.280
20
30.000
30
0.000
0
VERTEX
8
CUT
10
5.000
20
30.000
30
0.000
0
SEQEND
8
CUT
0
POLYLINE
8
ENGRAVE
66
1
70
1
10
0.000
20
0.000
30
0.000
0
VERTEX
8
ENGRAVE
10
5.000
20
36.000
30
0.000
0
VERTEX
8
ENGRAVE
10
105.000
20
36.000
30
0.000
0
VERTEX
8
ENGRAVE
10
105.000
20
46.000
30
0.000
0
VERTEX
8
ENGRAVE
10
5.000
20
46.000
30
0.000
0
SEQEND
8
ENGRAVE
0
ENDSEC
0
EOF
