0
SECTION
2
HEADER
9
$ACADVER
1
AC1009
9
$INSUNITS
70
4
9
$MEASUREMENT
70
1
9
$EXTMIN
10
0.000
20
0.000
30
0.000
9
$EXTMAX
10
297.000
20
210.000
30
0.000
0
ENDSEC
0
SECTION
2
TABLES
0
TABLE
2
LAYER
70
5
0
LAYER
2
CUT
70
0
62
1
6
CONTINUOUS
0
LAYER
2
CREASE
70
0
62
5
6
CONTINUOUS
0
LAYER
2
PERF
70
0
62
4
6
CONTINUOUS
0
LAYER
2
FILM
70
0
62
3
6
CONTINUOUS
0
LAYER
2
ENGRAVE
70
0
62
7
6
CONTINUOUS
0
ENDTAB
0
ENDSEC
0
SECTION
2
ENTITIES
0
POLYLINE
8
CREASE
66
1
70
0
10
0.000
20
0.000
30
0.000
0
VERTEX
8
CREASE
10
80.000
20
89.620
30
0.000
0
VERTEX
8
CREASE
10
80.000
20
54.620
30
0.000
0
SEQEND
8
CREASE
0
POLYLINE
8
CREASE
66
1
70
0
10
0.000
20
0.000
30
0.000
0
VERTEX
8
CREASE
10
130.000
20
89.620
30
0.000
0
VERTEX
8
CREASE
10
130.000
20
54.620
30
0.000
0
SEQEND
8
CREASE
0
POLYLINE
8
CREASE
66
1
70
0
10
0.000
20
0.000
30
0.000
0
VERTEX
8
CREASE
10
205.000
20
89.620
30
0.000
0
VERTEX
8
CREASE
10
205.000
20
54.620
30
0.000
0
SEQEND
8
CREASE
0
POLYLINE
8
CREASE
66
1
70
0
10
0.000
20
0.000
30
0.000
0
VERTEX
8
CREASE
10
254.240
20
89.620
30
0.000
0
VERTEX
8
CREASE
10
254.240
20
54.620
30
0.000
0
SEQEND
8
CREASE
0
POLYLINE
8
CREASE
66
1
70
0
10
0.000
20
0.000
30
0.000
0
VERTEX
8
CREASE
10
130.000
20
89.620
30
0.000
0
VERTEX
8
CREASE
10
205.000
20
89.620
30
0.000
0
SEQEND
8
CREASE
0
POLYLINE
8
CREASE
66
1
70
0
10
0.000
20
0.000
30
0.000
0
VERTEX
8
CREASE
10
130.500
20
138.120
30
0.000
0
VERTEX
8
CREASE
10
204.500
20
138.120
30
0.000
0
SEQEND
8
CREASE
0
POLYLINE
8
CREASE
66
1
70
0
10
0.000
20
0.000
30
0.000
0
VERTEX
8
CREASE
10
80.760
20
89.620
30
0.000
0
VERTEX
8
CREASE
10
129.240
20
89.620
30
0.000
0
SEQEND
8
CREASE
0
POLYLINE
8
CREASE
66
1
70
0
10
0.000
20
0.000
30
0.000
0
VERTEX
8
CREASE
10
205.760
20
89.620
30
0.000
0
VERTEX
8
CREASE
10
253.480
20
89.620
30
0.000
0
SEQEND
8
CREASE
0
POLYLINE
8
CREASE
66
1
70
0
10
0.000
20
0.000
30
0.000
0
VERTEX
8
CREASE
10
129.600
20
54.620
30
0.000
0
VERTEX
8
CREASE
10
80.400
20
54.620
30
0.000
0
SEQEND
8
CREASE
0
POLYLINE
8
CREASE
66
1
70
0
10
0.000
20
0.000
30
0.000
0
VERTEX
8
CREASE
10
253.840
20
54.620
30
0.000
0
VERTEX
8
CREASE
10
205.400
20
54.620
30
0.000
0
SEQEND
8
CREASE
0
POLYLINE
8
CREASE
66
1
70
0
10
0.000
20
0.000
30
0.000
0
VERTEX
8
CREASE
10
204.600
20
54.620
30
0.000
0
VERTEX
8
CREASE
10
130.400
20
54.620
30
0.000
0
SEQEND
8
CREASE
0
POLYLINE
8
CREASE
66
1
70
0
10
0.000
20
0.000
30
0.000
0
VERTEX
8
CREASE
10
79.600
20
54.620
30
0.000
0
VERTEX
8
CREASE
10
5.400
20
54.620
30
0.000
0
SEQEND
8
CREASE
0
POLYLINE
8
CUT
66
1
70
0
10
0.000
20
0.000
30
0.000
0
VERTEX
8
CUT
10
130.500
20
138.120
30
0.000
0
VERTEX
8
CUT
10
130.500
20
136.360
30
0.000
0
SEQEND
8
CUT
0
POLYLINE
8
CUT
66
1
70
0
10
0.000
20
0.000
30
0.000
0
VERTEX
8
CUT
10
204.500
20
138.120
30
0.000
0
VERTEX
8
CUT
10
204.500
20
136.360
30
0.000
0
SEQEND
8
CUT
0
POLYLINE
8
CUT
66
1
70
0
10
0.000
20
0.000
30
0.000
0
VERTEX
8
CUT
10
154.100
20
11.400
30
0.000
0
VERTEX
8
CUT
10
180.900
20
11.400
30
0.000
0
SEQEND
8
CUT
0
POLYLINE
8
CUT
66
1
70
1
10
0.000
20
0.000
30
0.000
0
VERTEX
8
CUT
10
5.000
20
54.620
30
0.000
0
VERTEX
8
CUT
10
5.400
20
54.620
30
0.000
0
VERTEX
8
CUT
10
5.400
20
11.000
30
0.000
0
VERTEX
8
CUT
10
29.500
20
11.000
30
0.000
0
VERTEX
8
CUT
10
31.900
20
5.000
30
0.000
0
VERTEX
8
CUT
10
53.100
20
5.000
30
0.000
0
VERTEX
8
CUT
10
55.500
20
11.000
30
0.000
0
VERTEX
8
CUT
10
79.600
20
11.000
30
0.000
0
VERTEX
8
CUT
10
79.600
20
54.620
30
0.000
0
VERTEX
8
CUT
10
80.400
20
54.620
30
0.000
0
VERTEX
8
CUT
10
80.400
20
40.870
30
0.000
0
VERTEX
8
CUT
10
94.150
20
27.120
30
0.000
0
VERTEX
8
CUT
10
115.850
20
27.120
30
0.000
0
VERTEX
8
CUT
10
129.600
20
40.870
30
0.000
0
VERTEX
8
CUT
10
129.600
20
54.620
30
0.000
0
VERTEX
8
CUT
10
130.400
20
54.620
30
0.000
0
VERTEX
8
CUT
10
130.400
20
5.000
30
0.000
0
VERTEX
8
CUT
10
204.600
20
5.000
30
0.000
0
VERTEX
8
CUT
10
204.600
20
54.620
30
0.000
0
VERTEX
8
CUT
10
205.400
20
54.620
30
0.000
0
VERTEX
8
CUT
10
205.400
20
40.870
30
0.000
0
VERTEX
8
CUT
10
219.150
20
27.120
30
0.000
0
VERTEX
8
CUT
10
240.090
20
27.120
30
0.000
0
VERTEX
8
CUT
10
253.840
20
40.870
30
0.000
0
VERTEX
8
CUT
10
253.840
20
54.620
30
0.000
0
VERTEX
8
CUT
10
254.240
20
54.620
30
0.000
0
VERTEX
8
CUT
10
266.240
20
58.820
30
0.000
0
VERTEX
8
CUT
10
266.240
20
85.420
30
0.000
0
VERTEX
8
CUT
10
254.240
20
89.620
30
0.000
0
VERTEX
8
CUT
10
253.480
20
89.620
30
0.000
0
VERTEX
8
CUT
10
250.480
20
121.430
30
0.000
0
VERTEX
8
CUT
10
208.760
20
121.430
30
0.000
0
VERTEX
8
CUT
10
205.760
20
89.620
30
0.000
0
VERTEX
8
CUT
10
205.000
20
89.620
30
0.000
0
VERTEX
8
CUT
10
205.000
20
138.120
30
0.000
0
VERTEX
8
CUT
10
204.500
20
138.120
30
0.000
0
VERTEX
8
CUT
10
196.500
20
152.120
30
0.000
0
VERTEX
8
CUT
10
174.500
20
152.120
30
0.000
0
VERTEX
8
CUT
10
174.157
20
149.957
30
0.000
0
VERTEX
8
CUT
10
173.163
20
148.006
30
0.000
0
VERTEX
8
CUT
10
171.615
20
146.457
30
0.000
0
VERTEX
8
CUT
10
169.663
20
145.463
30
0.000
0
VERTEX
8
CUT
10
167.500
20
145.120
30
0.000
0
VERTEX
8
CUT
10
165.337
20
145.463
30
0.000
0
VERTEX
8
CUT
10
163.386
20
146.457
30
0.000
0
VERTEX
8
CUT
10
161.837
20
148.006
30
0.000
0
VERTEX
8
CUT
10
160.843
20
149.957
30
0.000
0
VERTEX
8
CUT
10
160.500
20
152.120
30
0.000
0
VERTEX
8
CUT
10
138.500
20
152.120
30
0.000
0
VERTEX
8
CUT
10
130.500
20
138.120
30
0.000
0
VERTEX
8
CUT
10
130.000
20
138.120
30
0.000
0
VERTEX
8
CUT
10
130.000
20
89.620
30
0.000
0
VERTEX
8
CUT
10
129.240
20
89.620
30
0.000
0
VERTEX
8
CUT
10
126.240
20
121.430
30
0.000
0
VERTEX
8
CUT
10
83.760
20
121.430
30
0.000
0
VERTEX
8
CUT
10
80.760
20
89.620
30
0.000
0
VERTEX
8
CUT
10
5.000
20
89.620
30
0.000
0
SEQEND
8
CUT
0
POLYLINE
8
ENGRAVE
66
1
70
1
10
0.000
20
0.000
30
0.000
0
VERTEX
8
ENGRAVE
10
5.000
20
158.120
30
0.000
0
VERTEX
8
ENGRAVE
10
105.000
20
158.120
30
0.000
0
VERTEX
8
ENGRAVE
10
105.000
20
168.120
30
0.000
0
VERTEX
8
ENGRAVE
10
5.000
20
168.120
30
0.000
0
SEQEND
8
ENGRAVE
0
ENDSEC
0
EOF
