0
SECTION
2
HEADER
9
$ACADVER
1
AC1009
9
$INSUNITS
70
4
9
$MEASUREMENT
70
1
9
$EXTMIN
10
0.000
20
0.000
30
0.000
9
$EXTMAX
10
297.000
20
210.000
30
0.000
0
ENDSEC
0
SECTION
2
TABLES
0
TABLE
2
LAYER
70
5
0
LAYER
2
CUT
70
0
62
1
6
CONTINUOUS
0
LAYER
2
CREASE
70
0
62
5
6
CONTINUOUS
0
LAYER
2
PERF
70
0
62
4
6
CONTINUOUS
0
LAYER
2
FILM
70
0
62
3
6
CONTINUOUS
0
LAYER
2
ENGRAVE
70
0
62
7
6
CONTINUOUS
0
ENDTAB
0
ENDSEC
0
SECTION
2
ENTITIES
0
POLYLINE
8
CREASE
66
1
70
0
10
0.000
20
0.000
30
0.000
0
VERTEX
8
CREASE
10
95.000
20
89.620
30
0.000
0
VERTEX
8
CREASE
10
95.000
20
64.620
30
0.000
0
SEQEND
8
CREASE
0
POLYLINE
8
CREASE
66
1
70
0
10
0.000
20
0.000
30
0.000
0
VERTEX
8
CREASE
10
155.000
20
89.620
30
0.000
0
VERTEX
8
CREASE
10
155.000
20
64.620
30
0.000
0
SEQEND
8
CREASE
0
POLYLINE
8
CREASE
66
1
70
0
10
0.000
20
0.000
30
0.000
0
VERTEX
8
CREASE
10
245.000
20
89.620
30
0.000
0
VERTEX
8
CREASE
10
245.000
20
64.620
30
0.000
0
SEQEND
8
CREASE
0
POLYLINE
8
CREASE
66
1
70
0
10
0.000
20
0.000
30
0.000
0
VERTEX
8
CREASE
10
304.240
20
89.620
30
0.000
0
VERTEX
8
CREASE
10
304.240
20
64.620
30
0.000
0
SEQEND
8
CREASE
0
POLYLINE
8
CREASE
66
1
70
0
10
0.000
20
0.000
30
0.000
0
VERTEX
8
CREASE
10
155.000
20
89.620
30
0.000
0
VERTEX
8
CREASE
10
245.000
20
89.620
30
0.000
0
SEQEND
8
CREASE
0
POLYLINE
8
CREASE
66
1
70
0
10
0.000
20
0.000
30
0.000
0
VERTEX
8
CREASE
10
155.500
20
148.120
30
0.000
0
VERTEX
8
CREASE
10
244.500
20
148.120
30
0.000
0
SEQEND
8
CREASE
0
POLYLINE
8
CREASE
66
1
70
0
10
0.000
20
0.000
30
0.000
0
VERTEX
8
CREASE
10
95.760
20
89.620
30
0.000
0
VERTEX
8
CREASE
10
154.240
20
89.620
30
0.000
0
SEQEND
8
CREASE
0
POLYLINE
8
CREASE
66
1
70
0
10
0.000
20
0.000
30
0.000
0
VERTEX
8
CREASE
10
245.760
20
89.620
30
0.000
0
VERTEX
8
CREASE
10
303.480
20
89.620
30
0.000
0
SEQEND
8
CREASE
0
POLYLINE
8
CREASE
66
1
70
0
10
0.000
20
0.000
30
0.000
0
VERTEX
8
CREASE
10
154.600
20
64.620
30
0.000
0
VERTEX
8
CREASE
10
95.400
20
64.620
30
0.000
0
SEQEND
8
CREASE
0
POLYLINE
8
CREASE
66
1
70
0
10
0.000
20
0.000
30
0.000
0
VERTEX
8
CREASE
10
303.840
20
64.620
30
0.000
0
VERTEX
8
CREASE
10
245.400
20
64.620
30
0.000
0
SEQEND
8
CREASE
0
POLYLINE
8
CREASE
66
1
70
0
10
0.000
20
0.000
30
0.000
0
VERTEX
8
CREASE
10
244.600
20
64.620
30
0.000
0
VERTEX
8
CREASE
10
155.400
20
64.620
30
0.000
0
SEQEND
8
CREASE
0
POLYLINE
8
CREASE
66
1
70
0
10
0.000
20
0.000
30
0.000
0
VERTEX
8
CREASE
10
94.600
20
64.620
30
0.000
0
VERTEX
8
CREASE
10
5.400
20
64.620
30
0.000
0
SEQEND
8
CREASE
0
POLYLINE
8
CUT
66
1
70
0
10
0.000
20
0.000
30
0.000
0
VERTEX
8
CUT
10
155.500
20
148.120
30
0.000
0
VERTEX
8
CUT
10
155.500
20
146.360
30
0.000
0
SEQEND
8
CUT
0
POLYLINE
8
CUT
66
1
70
0
10
0.000
20
0.000
30
0.000
0
VERTEX
8
CUT
10
244.500
20
148.120
30
0.000
0
VERTEX
8
CUT
10
244.500
20
146.360
30
0.000
0
SEQEND
8
CUT
0
POLYLINE
8
CUT
66
1
70
0
10
0.000
20
0.000
30
0.000
0
VERTEX
8
CUT
10
186.600
20
11.400
30
0.000
0
VERTEX
8
CUT
10
213.400
20
11.400
30
0.000
0
SEQEND
8
CUT
0
POLYLINE
8
CUT
66
1
70
1
10
0.000
20
0.000
30
0.000
0
VERTEX
8
CUT
10
5.000
20
64.620
30
0.000
0
VERTEX
8
CUT
10
5.400
20
64.620
30
0.000
0
VERTEX
8
CUT
10
5.400
20
11.000
30
0.000
0
VERTEX
8
CUT
10
37.000
20
11.000
30
0.000
0
VERTEX
8
CUT
10
39.400
20
5.000
30
0.000
0
VERTEX
8
CUT
10
60.600
20
5.000
30
0.000
0
VERTEX
8
CUT
10
63.000
20
11.000
30
0.000
0
VERTEX
8
CUT
10
94.600
20
11.000
30
0.000
0
VERTEX
8
CUT
10
94.600
20
64.620
30
0.000
0
VERTEX
8
CUT
10
95.400
20
64.620
30
0.000
0
VERTEX
8
CUT
10
95.400
20
48.120
30
0.000
0
VERTEX
8
CUT
10
111.900
20
31.620
30
0.000
0
VERTEX
8
CUT
10
138.100
20
31.620
30
0.000
0
VERTEX
8
CUT
10
154.600
20
48.120
30
0.000
0
VERTEX
8
CUT
10
154.600
20
64.620
30
0.000
0
VERTEX
8
CUT
10
155.400
20
64.620
30
0.000
0
VERTEX
8
CUT
10
155.400
20
5.000
30
0.000
0
VERTEX
8
CUT
10
244.600
20
5.000
30
0.000
0
VERTEX
8
CUT
10
244.600
20
64.620
30
0.000
0
VERTEX
8
CUT
10
245.400
20
64.620
30
0.000
0
VERTEX
8
CUT
10
245.400
20
48.120
30
0.000
0
VERTEX
8
CUT
10
261.900
20
31.620
30
0.000
0
VERTEX
8
CUT
10
287.340
20
31.620
30
0.000
0
VERTEX
8
CUT
10
303.840
20
48.120
30
0.000
0
VERTEX
8
CUT
10
303.840
20
64.620
30
0.000
0
VERTEX
8
CUT
10
304.240
20
64.620
30
0.000
0
VERTEX
8
CUT
10
316.240
20
68.820
30
0.000
0
VERTEX
8
CUT
10
316.240
20
85.420
30
0.000
0
VERTEX
8
CUT
10
304.240
20
89.620
30
0.000
0
VERTEX
8
CUT
10
303.480
20
89.620
30
0.000
0
VERTEX
8
CUT
10
300.480
20
125.055
30
0.000
0
VERTEX
8
CUT
10
248.760
20
125.055
30
0.000
0
VERTEX
8
CUT
10
245.760
20
89.620
30
0.000
0
VERTEX
8
CUT
10
245.000
20
89.620
30
0.000
0
VERTEX
8
CUT
10
245.000
20
148.120
30
0.000
0
VERTEX
8
CUT
10
244.500
20
148.120
30
0.000
0
VERTEX
8
CUT
10
237.750
20
159.370
30
0.000
0
VERTEX
8
CUT
10
205.625
20
159.370
30
0.000
0
VERTEX
8
CUT
10
205.350
20
157.632
30
0.000
0
VERTEX
8
CUT
10
204.551
20
156.064
30
0.000
0
VERTEX
8
CUT
10
203.306
20
154.819
30
0.000
0
VERTEX
8
CUT
10
201.738
20
154.020
30
0.000
0
VERTEX
8
CUT
10
200.000
20
153.745
30
0.000
0
VERTEX
8
CUT
10
198.262
20
154.020
30
0.000
0
VERTEX
8
CUT
10
196.694
20
154.819
30
0.000
0
VERTEX
8
CUT
10
195.449
20
156.064
30
0.000
0
VERTEX
8
CUT
10
194.650
20
157.632
30
0.000
0
VERTEX
8
CUT
10
194.375
20
159.370
30
0.000
0
VERTEX
8
CUT
10
162.250
20
159.370
30
0.000
0
VERTEX
8
CUT
10
155.500
20
148.120
30
0.000
0
VERTEX
8
CUT
10
155.000
20
148.120
30
0.000
0
VERTEX
8
CUT
10
155.000
20
89.620
30
0.000
0
VERTEX
8
CUT
10
154.240
20
89.620
30
0.000
0
VERTEX
8
CUT
10
151.240
20
125.055
30
0.000
0
VERTEX
8
CUT
10
98.760
20
125.055
30
0.000
0
VERTEX
8
CUT
10
95.760
20
89.620
30
0.000
0
VERTEX
8
CUT
10
5.000
20
89.620
30
0.000
0
SEQEND
8
CUT
0
POLYLINE
8
ENGRAVE
66
1
70
1
10
0.000
20
0.000
30
0.000
0
VERTEX
8
ENGRAVE
10
5.000
20
165.370
30
0.000
0
VERTEX
8
ENGRAVE
10
105.000
20
165.370
30
0.000
0
VERTEX
8
ENGRAVE
10
105.000
20
175.370
30
0.000
0
VERTEX
8
ENGRAVE
10
5.000
20
175.370
30
0.000
0
SEQEND
8
ENGRAVE
0
ENDSEC
0
EOF
