0
SECTION
2
HEADER
9
$ACADVER
1
AC1009
9
$INSUNITS
70
4
9
$MEASUREMENT
70
1
9
$EXTMIN
10
0.000
20
0.000
30
0.000
9
$EXTMAX
10
297.000
20
210.000
30
0.000
0
ENDSEC
0
SECTION
2
TABLES
0
TABLE
2
LAYER
70
5
0
LAYER
2
CUT
70
0
62
1
6
CONTINUOUS
0
LAYER
2
CREASE
70
0
62
5
6
CONTINUOUS
0
LAYER
2
PERF
70
0
62
4
6
CONTINUOUS
0
LAYER
2
FILM
70
0
62
3
6
CONTINUOUS
0
LAYER
2
ENGRAVE
70
0
62
7
6
CONTINUOUS
0
ENDTAB
0
ENDSEC
0
SECTION
2
ENTITIES
0
POLYLINE
8
CUT
66
1
70
1
10
0.000
20
0.000
30
0.000
0
VERTEX
8
CUT
10
58.480
20
100.084
30
0.000
0
VERTEX
8
CUT
10
60.280
20
100.084
30
0.000
0
VERTEX
8
CUT
10
60.280
20
87.132
30
0.000
0
VERTEX
8
CUT
10
58.480
20
87.132
30
0.000
0
SEQEND
8
CUT
0
POLYLINE
8
CUT
66
1
70
1
10
0.000
20
0.000
30
0.000
0
VERTEX
8
CUT
10
58.480
20
124.388
30
0.000
0
VERTEX
8
CUT
10
60.280
20
124.388
30
0.000
0
VERTEX
8
CUT
10
60.280
20
111.436
30
0.000
0
VERTEX
8
CUT
10
58.480
20
111.436
30
0.000
0
SEQEND
8
CUT
0
POLYLINE
8
CUT
66
1
70
1
10
0.000
20
0.000
30
0.000
0
VERTEX
8
CUT
10
149.180
20
87.132
30
0.000
0
VERTEX
8
CUT
10
147.380
20
87.132
30
0.000
0
VERTEX
8
CUT
10
147.380
20
100.084
30
0.000
0
VERTEX
8
CUT
10
149.180
20
100.084
30
0.000
0
SEQEND
8
CUT
0
POLYLINE
8
CUT
66
1
70
1
10
0.000
20
0.000
30
0.000
0
VERTEX
8
CUT
10
149.180
20
111.436
30
0.000
0
VERTEX
8
CUT
10
147.380
20
111.436
30
0.000
0
VERTEX
8
CUT
10
147.380
20
124.388
30
0.000
0
VERTEX
8
CUT
10
149.180
20
124.388
30
0.000
0
SEQEND
8
CUT
0
POLYLINE
8
CUT
66
1
70
1
10
0.000
20
0.000
30
0.000
0
VERTEX
8
CUT
10
94.583
20
17.600
30
0.000
0
VERTEX
8
CUT
10
90.277
20
18.456
30
0.000
0
VERTEX
8
CUT
10
86.627
20
20.895
30
0.000
0
VERTEX
8
CUT
10
84.189
20
24.545
30
0.000
0
VERTEX
8
CUT
10
83.333
20
28.850
30
0.000
0
VERTEX
8
CUT
10
84.189
20
33.155
30
0.000
0
VERTEX
8
CUT
10
86.627
20
36.805
30
0.000
0
VERTEX
8
CUT
10
90.277
20
39.244
30
0.000
0
VERTEX
8
CUT
10
94.583
20
40.100
30
0.000
0
VERTEX
8
CUT
10
113.078
20
40.100
30
0.000
0
VERTEX
8
CUT
10
117.383
20
39.244
30
0.000
0
VERTEX
8
CUT
10
121.032
20
36.805
30
0.000
0
VERTEX
8
CUT
10
123.471
20
33.155
30
0.000
0
VERTEX
8
CUT
10
124.328
20
28.850
30
0.000
0
VERTEX
8
CUT
10
123.471
20
24.545
30
0.000
0
VERTEX
8
CUT
10
121.032
20
20.895
30
0.000
0
VERTEX
8
CUT
10
117.383
20
18.456
30
0.000
0
VERTEX
8
CUT
10
113.078
20
17.600
30
0.000
0
SEQEND
8
CUT
0
POLYLINE
8
CUT
66
1
70
1
10
0.000
20
0.000
30
0.000
0
VERTEX
8
CUT
10
94.583
20
171.420
30
0.000
0
VERTEX
8
CUT
10
90.277
20
172.276
30
0.000
0
VERTEX
8
CUT
10
86.627
20
174.715
30
0.000
0
VERTEX
8
CUT
10
84.189
20
178.365
30
0.000
0
VERTEX
8
CUT
10
83.333
20
182.670
30
0.000
0
VERTEX
8
CUT
10
84.189
20
186.975
30
0.000
0
VERTEX
8
CUT
10
86.627
20
190.625
30
0.000
0
VERTEX
8
CUT
10
90.277
20
193.064
30
0.000
0
VERTEX
8
CUT
10
94.583
20
193.920
30
0.000
0
VERTEX
8
CUT
10
113.078
20
193.920
30
0.000
0
VERTEX
8
CUT
10
117.383
20
193.064
30
0.000
0
VERTEX
8
CUT
10
121.032
20
190.625
30
0.000
0
VERTEX
8
CUT
10
123.471
20
186.975
30
0.000
0
VERTEX
8
CUT
10
124.328
20
182.670
30
0.000
0
VERTEX
8
CUT
10
123.471
20
178.365
30
0.000
0
VERTEX
8
CUT
10
121.032
20
174.715
30
0.000
0
VERTEX
8
CUT
10
117.383
20
172.276
30
0.000
0
VERTEX
8
CUT
10
113.078
20
171.420
30
0.000
0
SEQEND
8
CUT
0
POLYLINE
8
CREASE
66
1
70
0
10
0.000
20
0.000
30
0.000
0
VERTEX
8
CREASE
10
149.380
20
75.380
30
0.000
0
VERTEX
8
CREASE
10
58.280
20
75.380
30
0.000
0
SEQEND
8
CREASE
0
POLYLINE
8
CREASE
66
1
70
0
10
0.000
20
0.000
30
0.000
0
VERTEX
8
CREASE
10
58.280
20
136.140
30
0.000
0
VERTEX
8
CREASE
10
149.380
20
136.140
30
0.000
0
SEQEND
8
CREASE
0
POLYLINE
8
CREASE
66
1
70
0
10
0.000
20
0.000
30
0.000
0
VERTEX
8
CREASE
10
57.880
20
75.380
30
0.000
0
VERTEX
8
CREASE
10
57.880
20
136.140
30
0.000
0
SEQEND
8
CREASE
0
POLYLINE
8
CREASE
66
1
70
0
10
0.000
20
0.000
30
0.000
0
VERTEX
8
CREASE
10
32.880
20
75.780
30
0.000
0
VERTEX
8
CREASE
10
32.880
20
135.740
30
0.000
0
SEQEND
8
CREASE
0
POLYLINE
8
CREASE
66
1
70
0
10
0.000
20
0.000
30
0.000
0
VERTEX
8
CREASE
10
32.120
20
75.780
30
0.000
0
VERTEX
8
CREASE
10
32.120
20
135.740
30
0.000
0
SEQEND
8
CREASE
0
POLYLINE
8
CREASE
66
1
70
0
10
0.000
20
0.000
30
0.000
0
VERTEX
8
CREASE
10
149.780
20
136.140
30
0.000
0
VERTEX
8
CREASE
10
149.780
20
75.380
30
0.000
0
SEQEND
8
CREASE
0
POLYLINE
8
CREASE
66
1
70
0
10
0.000
20
0.000
30
0.000
0
VERTEX
8
CREASE
10
174.780
20
135.740
30
0.000
0
VERTEX
8
CREASE
10
174.780
20
75.780
30
0.000
0
SEQEND
8
CREASE
0
POLYLINE
8
CREASE
66
1
70
0
10
0.000
20
0.000
30
0.000
0
VERTEX
8
CREASE
10
175.540
20
135.740
30
0.000
0
VERTEX
8
CREASE
10
175.540
20
75.780
30
0.000
0
SEQEND
8
CREASE
0
POLYLINE
8
CREASE
66
1
70
0
10
0.000
20
0.000
30
0.000
0
VERTEX
8
CREASE
10
58.280
20
50.400
30
0.000
0
VERTEX
8
CREASE
10
58.280
20
74.980
30
0.000
0
SEQEND
8
CREASE
0
POLYLINE
8
CREASE
66
1
70
0
10
0.000
20
0.000
30
0.000
0
VERTEX
8
CREASE
10
149.380
20
74.980
30
0.000
0
VERTEX
8
CREASE
10
149.380
20
50.400
30
0.000
0
SEQEND
8
CREASE
0
POLYLINE
8
CREASE
66
1
70
0
10
0.000
20
0.000
30
0.000
0
VERTEX
8
CREASE
10
58.280
20
136.540
30
0.000
0
VERTEX
8
CREASE
10
58.280
20
161.120
30
0.000
0
SEQEND
8
CREASE
0
POLYLINE
8
CREASE
66
1
70
0
10
0.000
20
0.000
30
0.000
0
VERTEX
8
CREASE
10
149.380
20
161.120
30
0.000
0
VERTEX
8
CREASE
10
149.380
20
136.540
30
0.000
0
SEQEND
8
CREASE
0
POLYLINE
8
CUT
66
1
70
1
10
0.000
20
0.000
30
0.000
0
VERTEX
8
CUT
10
58.280
20
75.380
30
0.000
0
VERTEX
8
CUT
10
58.280
20
74.980
30
0.000
0
VERTEX
8
CUT
10
32.520
20
74.980
30
0.000
0
VERTEX
8
CUT
10
32.520
20
59.003
30
0.000
0
VERTEX
8
CUT
10
41.123
20
50.400
30
0.000
0
VERTEX
8
CUT
10
58.280
20
50.400
30
0.000
0
VERTEX
8
CUT
10
58.280
20
50.000
30
0.000
0
VERTEX
8
CUT
10
59.280
20
50.000
30
0.000
0
VERTEX
8
CUT
10
59.631
20
49.959
30
0.000
0
VERTEX
8
CUT
10
59.963
20
49.839
30
0.000
0
VERTEX
8
CUT
10
60.259
20
49.645
30
0.000
0
VERTEX
8
CUT
10
60.502
20
49.389
30
0.000
0
VERTEX
8
CUT
10
60.679
20
49.083
30
0.000
0
VERTEX
8
CUT
10
77.259
20
11.008
30
0.000
0
VERTEX
8
CUT
10
78.422
20
9.006
30
0.000
0
VERTEX
8
CUT
10
80.015
20
7.326
30
0.000
0
VERTEX
8
CUT
10
81.951
20
6.058
30
0.000
0
VERTEX
8
CUT
10
84.128
20
5.268
30
0.000
0
VERTEX
8
CUT
10
86.427
20
5.000
30
0.000
0
VERTEX
8
CUT
10
121.233
20
5.000
30
0.000
0
VERTEX
8
CUT
10
123.532
20
5.268
30
0.000
0
VERTEX
8
CUT
10
125.709
20
6.058
30
0.000
0
VERTEX
8
CUT
10
127.645
20
7.326
30
0.000
0
VERTEX
8
CUT
10
129.238
20
9.006
30
0.000
0
VERTEX
8
CUT
10
130.401
20
11.008
30
0.000
0
VERTEX
8
CUT
10
146.981
20
49.083
30
0.000
0
VERTEX
8
CUT
10
147.158
20
49.389
30
0.000
0
VERTEX
8
CUT
10
147.401
20
49.645
30
0.000
0
VERTEX
8
CUT
10
147.697
20
49.839
30
0.000
0
VERTEX
8
CUT
10
148.029
20
49.959
30
0.000
0
VERTEX
8
CUT
10
148.380
20
50.000
30
0.000
0
VERTEX
8
CUT
10
149.380
20
50.000
30
0.000
0
VERTEX
8
CUT
10
149.380
20
50.400
30
0.000
0
VERTEX
8
CUT
10
166.537
20
50.400
30
0.000
0
VERTEX
8
CUT
10
175.140
20
59.003
30
0.000
0
VERTEX
8
CUT
10
175.140
20
74.980
30
0.000
0
VERTEX
8
CUT
10
149.380
20
74.980
30
0.000
0
VERTEX
8
CUT
10
149.380
20
75.380
30
0.000
0
VERTEX
8
CUT
10
174.780
20
75.380
30
0.000
0
VERTEX
8
CUT
10
174.780
20
75.780
30
0.000
0
VERTEX
8
CUT
10
200.160
20
75.780
30
0.000
0
VERTEX
8
CUT
10
200.160
20
87.532
30
0.000
0
VERTEX
8
CUT
10
202.660
20
87.532
30
0.000
0
VERTEX
8
CUT
10
202.660
20
99.684
30
0.000
0
VERTEX
8
CUT
10
200.160
20
99.684
30
0.000
0
VERTEX
8
CUT
10
200.160
20
111.836
30
0.000
0
VERTEX
8
CUT
10
202.660
20
111.836
30
0.000
0
VERTEX
8
CUT
10
202.660
20
123.988
30
0.000
0
VERTEX
8
CUT
10
200.160
20
123.988
30
0.000
0
VERTEX
8
CUT
10
200.160
20
135.740
30
0.000
0
VERTEX
8
CUT
10
174.780
20
135.740
30
0.000
0
VERTEX
8
CUT
10
174.780
20
136.140
30
0.000
0
VERTEX
8
CUT
10
149.380
20
136.140
30
0.000
0
VERTEX
8
CUT
10
149.380
20
136.540
30
0.000
0
VERTEX
8
CUT
10
175.140
20
136.540
30
0.000
0
VERTEX
8
CUT
10
175.140
20
152.517
30
0.000
0
VERTEX
8
CUT
10
166.537
20
161.120
30
0.000
0
VERTEX
8
CUT
10
149.380
20
161.120
30
0.000
0
VERTEX
8
CUT
10
149.380
20
161.520
30
0.000
0
VERTEX
8
CUT
10
148.380
20
161.520
30
0.000
0
VERTEX
8
CUT
10
148.029
20
161.561
30
0.000
0
VERTEX
8
CUT
10
147.697
20
161.681
30
0.000
0
VERTEX
8
CUT
10
147.401
20
161.875
30
0.000
0
VERTEX
8
CUT
10
147.158
20
162.131
30
0.000
0
VERTEX
8
CUT
10
146.981
20
162.437
30
0.000
0
VERTEX
8
CUT
10
130.401
20
200.512
30
0.000
0
VERTEX
8
CUT
10
129.238
20
202.514
30
0.000
0
VERTEX
8
CUT
10
127.645
20
204.194
30
0.000
0
VERTEX
8
CUT
10
125.709
20
205.463
30
0.000
0
VERTEX
8
CUT
10
123.532
20
206.252
30
0.000
0
VERTEX
8
CUT
10
121.233
20
206.520
30
0.000
0
VERTEX
8
CUT
10
86.427
20
206.520
30
0.000
0
VERTEX
8
CUT
10
84.128
20
206.252
30
0.000
0
VERTEX
8
CUT
10
81.951
20
205.463
30
0.000
0
VERTEX
8
CUT
10
80.015
20
204.194
30
0.000
0
VERTEX
8
CUT
10
78.422
20
202.514
30
0.000
0
VERTEX
8
CUT
10
77.259
20
200.512
30
0.000
0
VERTEX
8
CUT
10
60.679
20
162.437
30
0.000
0
VERTEX
8
CUT
10
60.502
20
162.131
30
0.000
0
VERTEX
8
CUT
10
60.259
20
161.875
30
0.000
0
VERTEX
8
CUT
10
59.963
20
161.681
30
0.000
0
VERTEX
8
CUT
10
59.631
20
161.561
30
0.000
0
VERTEX
8
CUT
10
59.280
20
161.520
30
0.000
0
VERTEX
8
CUT
10
58.280
20
161.520
30
0.000
0
VERTEX
8
CUT
10
58.280
20
161.120
30
0.000
0
VERTEX
8
CUT
10
41.123
20
161.120
30
0.000
0
VERTEX
8
CUT
10
32.520
20
152.517
30
0.000
0
VERTEX
8
CUT
10
32.520
20
136.540
30
0.000
0
VERTEX
8
CUT
10
58.280
20
136.540
30
0.000
0
VERTEX
8
CUT
10
58.280
20
136.140
30
0.000
0
VERTEX
8
CUT
10
32.880
20
136.140
30
0.000
0
VERTEX
8
CUT
10
32.880
20
135.740
30
0.000
0
VERTEX
8
CUT
10
7.500
20
135.740
30
0.000
0
VERTEX
8
CUT
10
7.500
20
123.988
30
0.000
0
VERTEX
8
CUT
10
5.000
20
123.988
30
0.000
0
VERTEX
8
CUT
10
5.000
20
111.836
30
0.000
0
VERTEX
8
CUT
10
7.500
20
111.836
30
0.000
0
VERTEX
8
CUT
10
7.500
20
99.684
30
0.000
0
VERTEX
8
CUT
10
5.000
20
99.684
30
0.000
0
VERTEX
8
CUT
10
5.000
20
87.532
30
0.000
0
VERTEX
8
CUT
10
7.500
20
87.532
30
0.000
0
VERTEX
8
CUT
10
7.500
20
75.780
30
0.000
0
VERTEX
8
CUT
10
32.880
20
75.780
30
0.000
0
VERTEX
8
CUT
10
32.880
20
75.380
30
0.000
0
SEQEND
8
CUT
0
POLYLINE
8
ENGRAVE
66
1
70
1
10
0.000
20
0.000
30
0.000
0
VERTEX
8
ENGRAVE
10
5.000
20
212.520
30
0.000
0
VERTEX
8
ENGRAVE
10
105.000
20
212.520
30
0.000
0
VERTEX
8
ENGRAVE
10
105.000
20
222.520
30
0.000
0
VERTEX
8
ENGRAVE
10
5.000
20
222.520
30
0.000
0
SEQEND
8
ENGRAVE
0
ENDSEC
0
EOF
