0
SECTION
2
HEADER
9
$ACADVER
1
AC1009
9
$INSUNITS
70
4
9
$MEASUREMENT
70
1
9
$EXTMIN
10
0.000
20
0.000
30
0.000
9
$EXTMAX
10
297.000
20
210.000
30
0.000
0
ENDSEC
0
SECTION
2
TABLES
0
TABLE
2
LAYER
70
5
0
LAYER
2
CUT
70
0
62
1
6
CONTINUOUS
0
LAYER
2
CREASE
70
0
62
5
6
CONTINUOUS
0
LAYER
2
PERF
70
0
62
4
6
CONTINUOUS
0
LAYER
2
FILM
70
0
62
3
6
CONTINUOUS
0
LAYER
2
ENGRAVE
70
0
62
7
6
CONTINUOUS
0
ENDTAB
0
ENDSEC
0
SECTION
2
ENTITIES
0
POLYLINE
8
CUT
66
1
70
1
10
0.000
20
0.000
30
0.000
0
VERTEX
8
CUT
10
57.766
20
167.890
30
0.000
0
VERTEX
8
CUT
10
56.731
20
168.026
30
0.000
0
VERTEX
8
CUT
10
55.766
20
168.426
30
0.000
0
VERTEX
8
CUT
10
54.938
20
169.062
30
0.000
0
VERTEX
8
CUT
10
54.302
20
169.890
30
0.000
0
VERTEX
8
CUT
10
53.903
20
170.855
30
0.000
0
VERTEX
8
CUT
10
53.766
20
171.890
30
0.000
0
VERTEX
8
CUT
10
53.766
20
189.670
30
0.000
0
VERTEX
8
CUT
10
53.903
20
190.705
30
0.000
0
VERTEX
8
CUT
10
54.302
20
191.670
30
0.000
0
VERTEX
8
CUT
10
54.938
20
192.498
30
0.000
0
VERTEX
8
CUT
10
55.766
20
193.134
30
0.000
0
VERTEX
8
CUT
10
56.731
20
193.534
30
0.000
0
VERTEX
8
CUT
10
57.766
20
193.670
30
0.000
0
VERTEX
8
CUT
10
97.234
20
193.670
30
0.000
0
VERTEX
8
CUT
10
98.269
20
193.534
30
0.000
0
VERTEX
8
CUT
10
99.234
20
193.134
30
0.000
0
VERTEX
8
CUT
10
100.062
20
192.498
30
0.000
0
VERTEX
8
CUT
10
100.698
20
191.670
30
0.000
0
VERTEX
8
CUT
10
101.097
20
190.705
30
0.000
0
VERTEX
8
CUT
10
101.234
20
189.670
30
0.000
0
VERTEX
8
CUT
10
101.234
20
171.890
30
0.000
0
VERTEX
8
CUT
10
101.097
20
170.855
30
0.000
0
VERTEX
8
CUT
10
100.698
20
169.890
30
0.000
0
VERTEX
8
CUT
10
100.062
20
169.062
30
0.000
0
VERTEX
8
CUT
10
99.234
20
168.426
30
0.000
0
VERTEX
8
CUT
10
98.269
20
168.026
30
0.000
0
VERTEX
8
CUT
10
97.234
20
167.890
30
0.000
0
SEQEND
8
CUT
0
POLYLINE
8
CREASE
66
1
70
0
10
0.000
20
0.000
30
0.000
0
VERTEX
8
CREASE
10
115.000
20
40.000
30
0.000
0
VERTEX
8
CREASE
10
40.000
20
40.000
30
0.000
0
SEQEND
8
CREASE
0
POLYLINE
8
CREASE
66
1
70
0
10
0.000
20
0.000
30
0.000
0
VERTEX
8
CREASE
10
40.000
20
90.000
30
0.000
0
VERTEX
8
CREASE
10
115.000
20
90.000
30
0.000
0
SEQEND
8
CREASE
0
POLYLINE
8
CREASE
66
1
70
0
10
0.000
20
0.000
30
0.000
0
VERTEX
8
CREASE
10
115.000
20
90.000
30
0.000
0
VERTEX
8
CREASE
10
115.000
20
40.000
30
0.000
0
SEQEND
8
CREASE
0
POLYLINE
8
CREASE
66
1
70
0
10
0.000
20
0.000
30
0.000
0
VERTEX
8
CREASE
10
40.000
20
40.000
30
0.000
0
VERTEX
8
CREASE
10
40.000
20
90.000
30
0.000
0
SEQEND
8
CREASE
0
POLYLINE
8
CREASE
66
1
70
0
10
0.000
20
0.000
30
0.000
0
VERTEX
8
CREASE
10
40.000
20
5.400
30
0.000
0
VERTEX
8
CREASE
10
40.000
20
40.000
30
0.000
0
SEQEND
8
CREASE
0
POLYLINE
8
CREASE
66
1
70
0
10
0.000
20
0.000
30
0.000
0
VERTEX
8
CREASE
10
115.000
20
40.000
30
0.000
0
VERTEX
8
CREASE
10
115.000
20
5.400
30
0.000
0
SEQEND
8
CREASE
0
POLYLINE
8
CREASE
66
1
70
0
10
0.000
20
0.000
30
0.000
0
VERTEX
8
CREASE
10
40.000
20
90.000
30
0.000
0
VERTEX
8
CREASE
10
40.000
20
124.600
30
0.000
0
SEQEND
8
CREASE
0
POLYLINE
8
CREASE
66
1
70
0
10
0.000
20
0.000
30
0.000
0
VERTEX
8
CREASE
10
115.000
20
124.600
30
0.000
0
VERTEX
8
CREASE
10
115.000
20
90.000
30
0.000
0
SEQEND
8
CREASE
0
POLYLINE
8
CREASE
66
1
70
0
10
0.000
20
0.000
30
0.000
0
VERTEX
8
CREASE
10
115.780
20
155.000
30
0.000
0
VERTEX
8
CREASE
10
39.220
20
155.000
30
0.000
0
SEQEND
8
CREASE
0
POLYLINE
8
CREASE
66
1
70
0
10
0.000
20
0.000
30
0.000
0
VERTEX
8
CREASE
10
39.220
20
206.560
30
0.000
0
VERTEX
8
CREASE
10
115.780
20
206.560
30
0.000
0
SEQEND
8
CREASE
0
POLYLINE
8
CREASE
66
1
70
0
10
0.000
20
0.000
30
0.000
0
VERTEX
8
CREASE
10
115.780
20
206.560
30
0.000
0
VERTEX
8
CREASE
10
115.780
20
155.000
30
0.000
0
SEQEND
8
CREASE
0
POLYLINE
8
CREASE
66
1
70
0
10
0.000
20
0.000
30
0.000
0
VERTEX
8
CREASE
10
39.220
20
155.000
30
0.000
0
VERTEX
8
CREASE
10
39.220
20
206.560
30
0.000
0
SEQEND
8
CREASE
0
POLYLINE
8
CREASE
66
1
70
0
10
0.000
20
0.000
30
0.000
0
VERTEX
8
CREASE
10
39.220
20
133.400
30
0.000
0
VERTEX
8
CREASE
10
39.220
20
155.000
30
0.000
0
SEQEND
8
CREASE
0
POLYLINE
8
CREASE
66
1
70
0
10
0.000
20
0.000
30
0.000
0
VERTEX
8
CREASE
10
115.780
20
155.000
30
0.000
0
VERTEX
8
CREASE
10
115.780
20
133.400
30
0.000
0
SEQEND
8
CREASE
0
POLYLINE
8
CREASE
66
1
70
0
10
0.000
20
0.000
30
0.000
0
VERTEX
8
CREASE
10
39.220
20
206.560
30
0.000
0
VERTEX
8
CREASE
10
39.220
20
228.160
30
0.000
0
SEQEND
8
CREASE
0
POLYLINE
8
CREASE
66
1
70
0
10
0.000
20
0.000
30
0.000
0
VERTEX
8
CREASE
10
115.780
20
228.160
30
0.000
0
VERTEX
8
CREASE
10
115.780
20
206.560
30
0.000
0
SEQEND
8
CREASE
0
POLYLINE
8
CUT
66
1
70
1
10
0.000
20
0.000
30
0.000
0
VERTEX
8
CUT
10
40.000
20
5.000
30
0.000
0
VERTEX
8
CUT
10
115.000
20
5.000
30
0.000
0
VERTEX
8
CUT
10
115.000
20
5.400
30
0.000
0
VERTEX
8
CUT
10
149.600
20
5.400
30
0.000
0
VERTEX
8
CUT
10
149.600
20
24.030
30
0.000
0
VERTEX
8
CUT
10
115.000
20
40.000
30
0.000
0
VERTEX
8
CUT
10
150.000
20
40.000
30
0.000
0
VERTEX
8
CUT
10
150.000
20
90.000
30
0.000
0
VERTEX
8
CUT
10
115.000
20
90.000
30
0.000
0
VERTEX
8
CUT
10
149.600
20
105.970
30
0.000
0
VERTEX
8
CUT
10
149.600
20
124.600
30
0.000
0
VERTEX
8
CUT
10
115.000
20
124.600
30
0.000
0
VERTEX
8
CUT
10
115.000
20
125.000
30
0.000
0
VERTEX
8
CUT
10
40.000
20
125.000
30
0.000
0
VERTEX
8
CUT
10
40.000
20
124.600
30
0.000
0
VERTEX
8
CUT
10
5.400
20
124.600
30
0.000
0
VERTEX
8
CUT
10
5.400
20
105.970
30
0.000
0
VERTEX
8
CUT
10
40.000
20
90.000
30
0.000
0
VERTEX
8
CUT
10
5.000
20
90.000
30
0.000
0
VERTEX
8
CUT
10
5.000
20
40.000
30
0.000
0
VERTEX
8
CUT
10
40.000
20
40.000
30
0.000
0
VERTEX
8
CUT
10
5.400
20
24.030
30
0.000
0
VERTEX
8
CUT
10
5.400
20
5.400
30
0.000
0
VERTEX
8
CUT
10
40.000
20
5.400
30
0.000
0
SEQEND
8
CUT
0
POLYLINE
8
CUT
66
1
70
1
10
0.000
20
0.000
30
0.000
0
VERTEX
8
CUT
10
39.220
20
133.000
30
0.000
0
VERTEX
8
CUT
10
115.780
20
133.000
30
0.000
0
VERTEX
8
CUT
10
115.780
20
133.400
30
0.000
0
VERTEX
8
CUT
10
137.380
20
133.400
30
0.000
0
VERTEX
8
CUT
10
137.380
20
144.880
30
0.000
0
VERTEX
8
CUT
10
115.780
20
155.000
30
0.000
0
VERTEX
8
CUT
10
137.780
20
155.000
30
0.000
0
VERTEX
8
CUT
10
137.780
20
206.560
30
0.000
0
VERTEX
8
CUT
10
115.780
20
206.560
30
0.000
0
VERTEX
8
CUT
10
137.380
20
216.680
30
0.000
0
VERTEX
8
CUT
10
137.380
20
228.160
30
0.000
0
VERTEX
8
CUT
10
115.780
20
228.160
30
0.000
0
VERTEX
8
CUT
10
115.780
20
228.560
30
0.000
0
VERTEX
8
CUT
10
39.220
20
228.560
30
0.000
0
VERTEX
8
CUT
10
39.220
20
228.160
30
0.000
0
VERTEX
8
CUT
10
17.620
20
228.160
30
0.000
0
VERTEX
8
CUT
10
17.620
20
216.680
30
0.000
0
VERTEX
8
CUT
10
39.220
20
206.560
30
0.000
0
VERTEX
8
CUT
10
17.220
20
206.560
30
0.000
0
VERTEX
8
CUT
10
17.220
20
155.000
30
0.000
0
VERTEX
8
CUT
10
39.220
20
155.000
30
0.000
0
VERTEX
8
CUT
10
17.620
20
144.880
30
0.000
0
VERTEX
8
CUT
10
17.620
20
133.400
30
0.000
0
VERTEX
8
CUT
10
39.220
20
133.400
30
0.000
0
SEQEND
8
CUT
0
POLYLINE
8
FILM
66
1
70
1
10
0.000
20
0.000
30
0.000
0
VERTEX
8
FILM
10
97.234
20
162.890
30
0.000
0
VERTEX
8
FILM
10
99.563
20
163.197
30
0.000
0
VERTEX
8
FILM
10
101.734
20
164.096
30
0.000
0
VERTEX
8
FILM
10
103.598
20
165.526
30
0.000
0
VERTEX
8
FILM
10
105.028
20
167.390
30
0.000
0
VERTEX
8
FILM
10
105.927
20
169.561
30
0.000
0
VERTEX
8
FILM
10
106.234
20
171.890
30
0.000
0
VERTEX
8
FILM
10
106.234
20
189.670
30
0.000
0
VERTEX
8
FILM
10
105.927
20
191.999
30
0.000
0
VERTEX
8
FILM
10
105.028
20
194.170
30
0.000
0
VERTEX
8
FILM
10
103.598
20
196.034
30
0.000
0
VERTEX
8
FILM
10
101.734
20
197.464
30
0.000
0
VERTEX
8
FILM
10
99.563
20
198.363
30
0.000
0
VERTEX
8
FILM
10
97.234
20
198.670
30
0.000
0
VERTEX
8
FILM
10
57.766
20
198.670
30
0.000
0
VERTEX
8
FILM
10
55.437
20
198.363
30
0.000
0
VERTEX
8
FILM
10
53.266
20
197.464
30
0.000
0
VERTEX
8
FILM
10
51.402
20
196.034
30
0.000
0
VERTEX
8
FILM
10
49.972
20
194.170
30
0.000
0
VERTEX
8
FILM
10
49.073
20
191.999
30
0.000
0
VERTEX
8
FILM
10
48.766
20
189.670
30
0.000
0
VERTEX
8
FILM
10
48.766
20
171.890
30
0.000
0
VERTEX
8
FILM
10
49.073
20
169.561
30
0.000
0
VERTEX
8
FILM
10
49.972
20
167.390
30
0.000
0
VERTEX
8
FILM
10
51.402
20
165.526
30
0.000
0
VERTEX
8
FILM
10
53.266
20
164.096
30
0.000
0
VERTEX
8
FILM
10
55.437
20
163.197
30
0.000
0
VERTEX
8
FILM
10
57.766
20
162.890
30
0.000
0
SEQEND
8
FILM
0
POLYLINE
8
ENGRAVE
66
1
70
1
10
0.000
20
0.000
30
0.000
0
VERTEX
8
ENGRAVE
10
5.000
20
234.560
30
0.000
0
VERTEX
8
ENGRAVE
10
105.000
20
234.560
30
0.000
0
VERTEX
8
ENGRAVE
10
105.000
20
244.560
30
0.000
0
VERTEX
8
ENGRAVE
10
5.000
20
244.560
30
0.000
0
SEQEND
8
ENGRAVE
0
ENDSEC
0
EOF
