0
SECTION
2
HEADER
9
$ACADVER
1
AC1009
9
$INSUNITS
70
4
9
$MEASUREMENT
70
1
9
$EXTMIN
10
0.000
20
0.000
30
0.000
9
$EXTMAX
10
297.000
20
210.000
30
0.000
0
ENDSEC
0
SECTION
2
TABLES
0
TABLE
2
LAYER
70
5
0
LAYER
2
CUT
70
0
62
1
6
CONTINUOUS
0
LAYER
2
CREASE
70
0
62
5
6
CONTINUOUS
0
LAYER
2
PERF
70
0
62
4
6
CONTINUOUS
0
LAYER
2
FILM
70
0
62
3
6
CONTINUOUS
0
LAYER
2
ENGRAVE
70
0
62
7
6
CONTINUOUS
0
ENDTAB
0
ENDSEC
0
SECTION
2
ENTITIES
0
POLYLINE
8
CUT
66
1
70
1
10
0.000
20
0.000
30
0.000
0
VERTEX
8
CUT
10
23.250
20
76.250
30
0.000
0
VERTEX
8
CUT
10
22.215
20
76.386
30
0.000
0
VERTEX
8
CUT
10
21.250
20
76.786
30
0.000
0
VERTEX
8
CUT
10
20.422
20
77.422
30
0.000
0
VERTEX
8
CUT
10
19.786
20
78.250
30
0.000
0
VERTEX
8
CUT
10
19.386
20
79.215
30
0.000
0
VERTEX
8
CUT
10
19.250
20
80.250
30
0.000
0
VERTEX
8
CUT
10
19.250
20
89.750
30
0.000
0
VERTEX
8
CUT
10
19.386
20
90.785
30
0.000
0
VERTEX
8
CUT
10
19.786
20
91.750
30
0.000
0
VERTEX
8
CUT
10
20.422
20
92.578
30
0.000
0
VERTEX
8
CUT
10
21.250
20
93.214
30
0.000
0
VERTEX
8
CUT
10
22.215
20
93.614
30
0.000
0
VERTEX
8
CUT
10
23.250
20
93.750
30
0.000
0
VERTEX
8
CUT
10
61.750
20
93.750
30
0.000
0
VERTEX
8
CUT
10
62.785
20
93.614
30
0.000
0
VERTEX
8
CUT
10
63.750
20
93.214
30
0.000
0
VERTEX
8
CUT
10
64.578
20
92.578
30
0.000
0
VERTEX
8
CUT
10
65.214
20
91.750
30
0.000
0
VERTEX
8
CUT
10
65.614
20
90.785
30
0.000
0
VERTEX
8
CUT
10
65.750
20
89.750
30
0.000
0
VERTEX
8
CUT
10
65.750
20
80.250
30
0.000
0
VERTEX
8
CUT
10
65.614
20
79.215
30
0.000
0
VERTEX
8
CUT
10
65.214
20
78.250
30
0.000
0
VERTEX
8
CUT
10
64.578
20
77.422
30
0.000
0
VERTEX
8
CUT
10
63.750
20
76.786
30
0.000
0
VERTEX
8
CUT
10
62.785
20
76.386
30
0.000
0
VERTEX
8
CUT
10
61.750
20
76.250
30
0.000
0
SEQEND
8
CUT
0
POLYLINE
8
CREASE
66
1
70
0
10
0.000
20
0.000
30
0.000
0
VERTEX
8
CREASE
10
80.000
20
102.500
30
0.000
0
VERTEX
8
CREASE
10
80.000
20
67.500
30
0.000
0
SEQEND
8
CREASE
0
POLYLINE
8
CREASE
66
1
70
0
10
0.000
20
0.000
30
0.000
0
VERTEX
8
CREASE
10
130.000
20
102.500
30
0.000
0
VERTEX
8
CREASE
10
130.000
20
67.500
30
0.000
0
SEQEND
8
CREASE
0
POLYLINE
8
CREASE
66
1
70
0
10
0.000
20
0.000
30
0.000
0
VERTEX
8
CREASE
10
205.000
20
102.500
30
0.000
0
VERTEX
8
CREASE
10
205.000
20
67.500
30
0.000
0
SEQEND
8
CREASE
0
POLYLINE
8
CREASE
66
1
70
0
10
0.000
20
0.000
30
0.000
0
VERTEX
8
CREASE
10
254.240
20
102.500
30
0.000
0
VERTEX
8
CREASE
10
254.240
20
67.500
30
0.000
0
SEQEND
8
CREASE
0
POLYLINE
8
CREASE
66
1
70
0
10
0.000
20
0.000
30
0.000
0
VERTEX
8
CREASE
10
130.000
20
102.500
30
0.000
0
VERTEX
8
CREASE
10
205.000
20
102.500
30
0.000
0
SEQEND
8
CREASE
0
POLYLINE
8
CREASE
66
1
70
0
10
0.000
20
0.000
30
0.000
0
VERTEX
8
CREASE
10
130.500
20
151.000
30
0.000
0
VERTEX
8
CREASE
10
204.500
20
151.000
30
0.000
0
SEQEND
8
CREASE
0
POLYLINE
8
CREASE
66
1
70
0
10
0.000
20
0.000
30
0.000
0
VERTEX
8
CREASE
10
80.000
20
67.500
30
0.000
0
VERTEX
8
CREASE
10
5.000
20
67.500
30
0.000
0
SEQEND
8
CREASE
0
POLYLINE
8
CREASE
66
1
70
0
10
0.000
20
0.000
30
0.000
0
VERTEX
8
CREASE
10
79.500
20
19.000
30
0.000
0
VERTEX
8
CREASE
10
5.500
20
19.000
30
0.000
0
SEQEND
8
CREASE
0
POLYLINE
8
CREASE
66
1
70
0
10
0.000
20
0.000
30
0.000
0
VERTEX
8
CREASE
10
80.760
20
102.500
30
0.000
0
VERTEX
8
CREASE
10
129.240
20
102.500
30
0.000
0
SEQEND
8
CREASE
0
POLYLINE
8
CREASE
66
1
70
0
10
0.000
20
0.000
30
0.000
0
VERTEX
8
CREASE
10
129.240
20
67.500
30
0.000
0
VERTEX
8
CREASE
10
80.760
20
67.500
30
0.000
0
SEQEND
8
CREASE
0
POLYLINE
8
CREASE
66
1
70
0
10
0.000
20
0.000
30
0.000
0
VERTEX
8
CREASE
10
205.760
20
102.500
30
0.000
0
VERTEX
8
CREASE
10
253.480
20
102.500
30
0.000
0
SEQEND
8
CREASE
0
POLYLINE
8
CREASE
66
1
70
0
10
0.000
20
0.000
30
0.000
0
VERTEX
8
CREASE
10
253.480
20
67.500
30
0.000
0
VERTEX
8
CREASE
10
205.760
20
67.500
30
0.000
0
SEQEND
8
CREASE
0
POLYLINE
8
CUT
66
1
70
0
10
0.000
20
0.000
30
0.000
0
VERTEX
8
CUT
10
130.500
20
151.000
30
0.000
0
VERTEX
8
CUT
10
130.500
20
149.240
30
0.000
0
SEQEND
8
CUT
0
POLYLINE
8
CUT
66
1
70
0
10
0.000
20
0.000
30
0.000
0
VERTEX
8
CUT
10
204.500
20
151.000
30
0.000
0
VERTEX
8
CUT
10
204.500
20
149.240
30
0.000
0
SEQEND
8
CUT
0
POLYLINE
8
CUT
66
1
70
0
10
0.000
20
0.000
30
0.000
0
VERTEX
8
CUT
10
5.500
20
19.000
30
0.000
0
VERTEX
8
CUT
10
5.500
20
20.760
30
0.000
0
SEQEND
8
CUT
0
POLYLINE
8
CUT
66
1
70
0
10
0.000
20
0.000
30
0.000
0
VERTEX
8
CUT
10
79.500
20
19.000
30
0.000
0
VERTEX
8
CUT
10
79.500
20
20.760
30
0.000
0
SEQEND
8
CUT
0
POLYLINE
8
CUT
66
1
70
1
10
0.000
20
0.000
30
0.000
0
VERTEX
8
CUT
10
5.000
20
102.500
30
0.000
0
VERTEX
8
CUT
10
5.000
20
19.000
30
0.000
0
VERTEX
8
CUT
10
5.500
20
19.000
30
0.000
0
VERTEX
8
CUT
10
13.500
20
5.000
30
0.000
0
VERTEX
8
CUT
10
71.500
20
5.000
30
0.000
0
VERTEX
8
CUT
10
79.500
20
19.000
30
0.000
0
VERTEX
8
CUT
10
80.000
20
19.000
30
0.000
0
VERTEX
8
CUT
10
80.000
20
67.500
30
0.000
0
VERTEX
8
CUT
10
80.760
20
67.500
30
0.000
0
VERTEX
8
CUT
10
83.760
20
35.690
30
0.000
0
VERTEX
8
CUT
10
126.240
20
35.690
30
0.000
0
VERTEX
8
CUT
10
129.240
20
67.500
30
0.000
0
VERTEX
8
CUT
10
205.760
20
67.500
30
0.000
0
VERTEX
8
CUT
10
208.760
20
35.690
30
0.000
0
VERTEX
8
CUT
10
250.480
20
35.690
30
0.000
0
VERTEX
8
CUT
10
253.480
20
67.500
30
0.000
0
VERTEX
8
CUT
10
254.240
20
67.500
30
0.000
0
VERTEX
8
CUT
10
266.240
20
71.700
30
0.000
0
VERTEX
8
CUT
10
266.240
20
98.300
30
0.000
0
VERTEX
8
CUT
10
254.240
20
102.500
30
0.000
0
VERTEX
8
CUT
10
253.480
20
102.500
30
0.000
0
VERTEX
8
CUT
10
250.480
20
134.310
30
0.000
0
VERTEX
8
CUT
10
208.760
20
134.310
30
0.000
0
VERTEX
8
CUT
10
205.760
20
102.500
30
0.000
0
VERTEX
8
CUT
10
205.000
20
102.500
30
0.000
0
VERTEX
8
CUT
10
205.000
20
151.000
30
0.000
0
VERTEX
8
CUT
10
204.500
20
151.000
30
0.000
0
VERTEX
8
CUT
10
196.500
20
165.000
30
0.000
0
VERTEX
8
CUT
10
174.500
20
165.000
30
0.000
0
VERTEX
8
CUT
10
174.157
20
162.837
30
0.000
0
VERTEX
8
CUT
10
173.163
20
160.886
30
0.000
0
VERTEX
8
CUT
10
171.615
20
159.337
30
0.000
0
VERTEX
8
CUT
10
169.663
20
158.343
30
0.000
0
VERTEX
8
CUT
10
167.500
20
158.000
30
0.000
0
VERTEX
8
CUT
10
165.337
20
158.343
30
0.000
0
VERTEX
8
CUT
10
163.386
20
159.337
30
0.000
0
VERTEX
8
CUT
10
161.837
20
160.886
30
0.000
0
VERTEX
8
CUT
10
160.843
20
162.837
30
0.000
0
VERTEX
8
CUT
10
160.500
20
165.000
30
0.000
0
VERTEX
8
CUT
10
138.500
20
165.000
30
0.000
0
VERTEX
8
CUT
10
130.500
20
151.000
30
0.000
0
VERTEX
8
CUT
10
130.000
20
151.000
30
0.000
0
VERTEX
8
CUT
10
130.000
20
102.500
30
0.000
0
VERTEX
8
CUT
10
129.240
20
102.500
30
0.000
0
VERTEX
8
CUT
10
126.240
20
134.310
30
0.000
0
VERTEX
8
CUT
10
83.760
20
134.310
30
0.000
0
VERTEX
8
CUT
10
80.760
20
102.500
30
0.000
0
SEQEND
8
CUT
0
POLYLINE
8
FILM
66
1
70
1
10
0.000
20
0.000
30
0.000
0
VERTEX
8
FILM
10
61.750
20
71.250
30
0.000
0
VERTEX
8
FILM
10
64.079
20
71.557
30
0.000
0
VERTEX
8
FILM
10
66.250
20
72.456
30
0.000
0
VERTEX
8
FILM
10
68.114
20
73.886
30
0.000
0
VERTEX
8
FILM
10
69.544
20
75.750
30
0.000
0
VERTEX
8
FILM
10
70.443
20
77.921
30
0.000
0
VERTEX
8
FILM
10
70.750
20
80.250
30
0.000
0
VERTEX
8
FILM
10
70.750
20
89.750
30
0.000
0
VERTEX
8
FILM
10
70.443
20
92.079
30
0.000
0
VERTEX
8
FILM
10
69.544
20
94.250
30
0.000
0
VERTEX
8
FILM
10
68.114
20
96.114
30
0.000
0
VERTEX
8
FILM
10
66.250
20
97.544
30
0.000
0
VERTEX
8
FILM
10
64.079
20
98.443
30
0.000
0
VERTEX
8
FILM
10
61.750
20
98.750
30
0.000
0
VERTEX
8
FILM
10
23.250
20
98.750
30
0.000
0
VERTEX
8
FILM
10
20.921
20
98.443
30
0.000
0
VERTEX
8
FILM
10
18.750
20
97.544
30
0.000
0
VERTEX
8
FILM
10
16.886
20
96.114
30
0.000
0
VERTEX
8
FILM
10
15.456
20
94.250
30
0.000
0
VERTEX
8
FILM
10
14.557
20
92.079
30
0.000
0
VERTEX
8
FILM
10
14.250
20
89.750
30
0.000
0
VERTEX
8
FILM
10
14.250
20
80.250
30
0.000
0
VERTEX
8
FILM
10
14.557
20
77.921
30
0.000
0
VERTEX
8
FILM
10
15.456
20
75.750
30
0.000
0
VERTEX
8
FILM
10
16.886
20
73.886
30
0.000
0
VERTEX
8
FILM
10
18.750
20
72.456
30
0.000
0
VERTEX
8
FILM
10
20.921
20
71.557
30
0.000
0
VERTEX
8
FILM
10
23.250
20
71.250
30
0.000
0
SEQEND
8
FILM
0
POLYLINE
8
ENGRAVE
66
1
70
1
10
0.000
20
0.000
30
0.000
0
VERTEX
8
ENGRAVE
10
5.000
20
171.000
30
0.000
0
VERTEX
8
ENGRAVE
10
105.000
20
171.000
30
0.000
0
VERTEX
8
ENGRAVE
10
105.000
20
181.000
30
0.000
0
VERTEX
8
ENGRAVE
10
5.000
20
181.000
30
0.000
0
SEQEND
8
ENGRAVE
0
ENDSEC
0
EOF
