0
SECTION
2
HEADER
9
$ACADVER
1
AC1009
9
$INSUNITS
70
4
9
$MEASUREMENT
70
1
9
$EXTMIN
10
0.000
20
0.000
30
0.000
9
$EXTMAX
10
310.000
20
250.000
30
0.000
0
ENDSEC
0
SECTION
2
TABLES
0
TABLE
2
LAYER
70
2
0
LAYER
2
CUT
70
0
62
1
6
CONTINUOUS
0
LAYER
2
ENGRAVE
70
0
62
5
6
CONTINUOUS
0
ENDTAB
0
ENDSEC
0
SECTION
2
ENTITIES
0
POLYLINE
8
CUT
66
1
70
1
10
0.000
20
0.000
30
0.000
0
VERTEX
8
CUT
10
62.101
20
7.000
30
0.000
0
VERTEX
8
CUT
10
63.030
20
7.000
30
0.000
0
VERTEX
8
CUT
10
66.091
20
7.715
30
0.000
0
VERTEX
8
CUT
10
66.931
20
9.244
30
0.000
0
VERTEX
8
CUT
10
67.257
20
12.313
30
0.000
0
VERTEX
8
CUT
10
68.573
20
61.815
30
0.000
0
VERTEX
8
CUT
10
69.042
20
62.788
30
0.000
0
VERTEX
8
CUT
10
70.022
20
63.522
30
0.000
0
VERTEX
8
CUT
10
78.958
20
66.170
30
0.000
0
VERTEX
8
CUT
10
82.720
20
68.016
30
0.000
0
VERTEX
8
CUT
10
86.050
20
70.224
30
0.000
0
VERTEX
8
CUT
10
91.438
20
75.557
30
0.000
0
VERTEX
8
CUT
10
95.722
20
82.481
30
0.000
0
VERTEX
8
CUT
10
98.884
20
91.514
30
0.000
0
VERTEX
8
CUT
10
100.491
20
101.480
30
0.000
0
VERTEX
8
CUT
10
101.123
20
114.003
30
0.000
0
VERTEX
8
CUT
10
100.653
20
131.127
30
0.000
0
VERTEX
8
CUT
10
99.875
20
135.216
30
0.000
0
VERTEX
8
CUT
10
98.680
20
138.568
30
0.000
0
VERTEX
8
CUT
10
96.990
20
141.239
30
0.000
0
VERTEX
8
CUT
10
94.929
20
143.008
30
0.000
0
VERTEX
8
CUT
10
92.191
20
143.939
30
0.000
0
VERTEX
8
CUT
10
89.488
20
143.793
30
0.000
0
VERTEX
8
CUT
10
86.861
20
142.571
30
0.000
0
VERTEX
8
CUT
10
84.782
20
140.474
30
0.000
0
VERTEX
8
CUT
10
82.950
20
136.537
30
0.000
0
VERTEX
8
CUT
10
81.774
20
130.713
30
0.000
0
VERTEX
8
CUT
10
81.089
20
105.967
30
0.000
0
VERTEX
8
CUT
10
80.639
20
101.252
30
0.000
0
VERTEX
8
CUT
10
79.596
20
96.611
30
0.000
0
VERTEX
8
CUT
10
77.835
20
92.013
30
0.000
0
VERTEX
8
CUT
10
75.382
20
88.718
30
0.000
0
VERTEX
8
CUT
10
71.677
20
86.320
30
0.000
0
VERTEX
8
CUT
10
70.042
20
86.003
30
0.000
0
VERTEX
8
CUT
10
69.081
20
86.340
30
0.000
0
VERTEX
8
CUT
10
68.339
20
89.079
30
0.000
0
VERTEX
8
CUT
10
66.518
20
164.502
30
0.000
0
VERTEX
8
CUT
10
65.146
20
175.100
30
0.000
0
VERTEX
8
CUT
10
63.933
20
178.902
30
0.000
0
VERTEX
8
CUT
10
62.247
20
182.057
30
0.000
0
VERTEX
8
CUT
10
60.014
20
184.580
30
0.000
0
VERTEX
8
CUT
10
57.541
20
186.217
30
0.000
0
VERTEX
8
CUT
10
54.342
20
187.162
30
0.000
0
VERTEX
8
CUT
10
53.986
20
187.164
30
0.000
0
VERTEX
8
CUT
10
53.986
20
97.595
30
0.000
0
VERTEX
8
CUT
10
54.233
20
97.569
30
0.000
0
VERTEX
8
CUT
10
54.416
20
97.463
30
0.000
0
VERTEX
8
CUT
10
54.540
20
97.292
30
0.000
0
VERTEX
8
CUT
10
54.584
20
97.086
30
0.000
0
VERTEX
8
CUT
10
54.540
20
96.879
30
0.000
0
VERTEX
8
CUT
10
54.416
20
96.708
30
0.000
0
VERTEX
8
CUT
10
54.233
20
96.603
30
0.000
0
VERTEX
8
CUT
10
54.023
20
96.581
30
0.000
0
VERTEX
8
CUT
10
53.822
20
96.646
30
0.000
0
VERTEX
8
CUT
10
53.665
20
96.787
30
0.000
0
VERTEX
8
CUT
10
53.579
20
96.980
30
0.000
0
VERTEX
8
CUT
10
53.579
20
97.176
30
0.000
0
VERTEX
8
CUT
10
51.573
20
97.176
30
0.000
0
VERTEX
8
CUT
10
51.510
20
96.879
30
0.000
0
VERTEX
8
CUT
10
51.386
20
96.708
30
0.000
0
VERTEX
8
CUT
10
51.203
20
96.603
30
0.000
0
VERTEX
8
CUT
10
50.993
20
96.581
30
0.000
0
VERTEX
8
CUT
10
50.792
20
96.646
30
0.000
0
VERTEX
8
CUT
10
50.635
20
96.787
30
0.000
0
VERTEX
8
CUT
10
50.549
20
96.980
30
0.000
0
VERTEX
8
CUT
10
50.549
20
97.191
30
0.000
0
VERTEX
8
CUT
10
50.635
20
97.384
30
0.000
0
VERTEX
8
CUT
10
50.792
20
97.526
30
0.000
0
VERTEX
8
CUT
10
50.993
20
97.591
30
0.000
0
VERTEX
8
CUT
10
51.136
20
97.576
30
0.000
0
VERTEX
8
CUT
10
51.136
20
187.179
30
0.000
0
VERTEX
8
CUT
10
51.016
20
187.180
30
0.000
0
VERTEX
8
CUT
10
47.798
20
186.253
30
0.000
0
VERTEX
8
CUT
10
45.180
20
184.507
30
0.000
0
VERTEX
8
CUT
10
42.838
20
181.821
30
0.000
0
VERTEX
8
CUT
10
41.063
20
178.251
30
0.000
0
VERTEX
8
CUT
10
39.706
20
173.693
30
0.000
0
VERTEX
8
CUT
10
38.929
20
168.201
30
0.000
0
VERTEX
8
CUT
10
38.316
20
158.061
30
0.000
0
VERTEX
8
CUT
10
37.036
20
101.192
30
0.000
0
VERTEX
8
CUT
10
36.627
20
98.867
30
0.000
0
VERTEX
8
CUT
10
35.897
20
98.205
30
0.000
0
VERTEX
8
CUT
10
34.741
20
98.101
30
0.000
0
VERTEX
8
CUT
10
30.955
20
99.691
30
0.000
0
VERTEX
8
CUT
10
28.201
20
102.428
30
0.000
0
VERTEX
8
CUT
10
26.192
20
106.248
30
0.000
0
VERTEX
8
CUT
10
24.879
20
110.796
30
0.000
0
VERTEX
8
CUT
10
24.034
20
116.068
30
0.000
0
VERTEX
8
CUT
10
23.601
20
135.830
30
0.000
0
VERTEX
8
CUT
10
22.824
20
142.315
30
0.000
0
VERTEX
8
CUT
10
21.756
20
146.152
30
0.000
0
VERTEX
8
CUT
10
20.467
20
148.822
30
0.000
0
VERTEX
8
CUT
10
18.609
20
150.880
30
0.000
0
VERTEX
8
CUT
10
16.237
20
152.248
30
0.000
0
VERTEX
8
CUT
10
12.805
20
152.632
30
0.000
0
VERTEX
8
CUT
10
9.574
20
151.336
30
0.000
0
VERTEX
8
CUT
10
6.899
20
148.478
30
0.000
0
VERTEX
8
CUT
10
5.121
20
144.289
30
0.000
0
VERTEX
8
CUT
10
4.289
20
140.001
30
0.000
0
VERTEX
8
CUT
10
4.000
20
135.628
30
0.000
0
VERTEX
8
CUT
10
4.036
20
119.808
30
0.000
0
VERTEX
8
CUT
10
4.668
20
110.478
30
0.000
0
VERTEX
8
CUT
10
5.860
20
103.452
30
0.000
0
VERTEX
8
CUT
10
8.028
20
96.623
30
0.000
0
VERTEX
8
CUT
10
10.757
20
91.093
30
0.000
0
VERTEX
8
CUT
10
14.030
20
86.572
30
0.000
0
VERTEX
8
CUT
10
17.792
20
82.972
30
0.000
0
VERTEX
8
CUT
10
22.079
20
80.061
30
0.000
0
VERTEX
8
CUT
10
27.701
20
77.566
30
0.000
0
VERTEX
8
CUT
10
34.997
20
75.692
30
0.000
0
VERTEX
8
CUT
10
36.029
20
75.010
30
0.000
0
VERTEX
8
CUT
10
36.513
20
74.093
30
0.000
0
VERTEX
8
CUT
10
38.352
20
10.107
30
0.000
0
VERTEX
8
CUT
10
38.831
20
8.265
30
0.000
0
VERTEX
8
CUT
10
40.029
20
7.310
30
0.000
0
VERTEX
8
CUT
10
42.602
20
7.000
30
0.000
0
VERTEX
8
CUT
10
43.021
20
7.000
30
0.000
0
VERTEX
8
CUT
10
43.021
20
4.000
30
0.000
0
VERTEX
8
CUT
10
62.101
20
4.000
30
0.000
0
SEQEND
8
CUT
0
POLYLINE
8
CUT
66
1
70
1
10
0.000
20
0.000
30
0.000
0
VERTEX
8
CUT
10
150.259
20
96.596
30
0.000
0
VERTEX
8
CUT
10
150.116
20
96.581
30
0.000
0
VERTEX
8
CUT
10
149.915
20
96.646
30
0.000
0
VERTEX
8
CUT
10
149.758
20
96.787
30
0.000
0
VERTEX
8
CUT
10
149.672
20
96.980
30
0.000
0
VERTEX
8
CUT
10
149.672
20
97.191
30
0.000
0
VERTEX
8
CUT
10
149.758
20
97.384
30
0.000
0
VERTEX
8
CUT
10
149.915
20
97.526
30
0.000
0
VERTEX
8
CUT
10
150.116
20
97.591
30
0.000
0
VERTEX
8
CUT
10
150.326
20
97.569
30
0.000
0
VERTEX
8
CUT
10
150.509
20
97.463
30
0.000
0
VERTEX
8
CUT
10
150.633
20
97.292
30
0.000
0
VERTEX
8
CUT
10
150.696
20
96.996
30
0.000
0
VERTEX
8
CUT
10
152.702
20
96.996
30
0.000
0
VERTEX
8
CUT
10
152.702
20
97.191
30
0.000
0
VERTEX
8
CUT
10
152.788
20
97.384
30
0.000
0
VERTEX
8
CUT
10
152.945
20
97.526
30
0.000
0
VERTEX
8
CUT
10
153.146
20
97.591
30
0.000
0
VERTEX
8
CUT
10
153.356
20
97.569
30
0.000
0
VERTEX
8
CUT
10
153.539
20
97.463
30
0.000
0
VERTEX
8
CUT
10
153.663
20
97.292
30
0.000
0
VERTEX
8
CUT
10
153.707
20
97.086
30
0.000
0
VERTEX
8
CUT
10
153.663
20
96.879
30
0.000
0
VERTEX
8
CUT
10
153.539
20
96.708
30
0.000
0
VERTEX
8
CUT
10
153.356
20
96.603
30
0.000
0
VERTEX
8
CUT
10
153.109
20
96.577
30
0.000
0
VERTEX
8
CUT
10
153.109
20
4.000
30
0.000
0
VERTEX
8
CUT
10
161.224
20
4.000
30
0.000
0
VERTEX
8
CUT
10
161.224
20
7.000
30
0.000
0
VERTEX
8
CUT
10
162.153
20
7.000
30
0.000
0
VERTEX
8
CUT
10
165.214
20
7.715
30
0.000
0
VERTEX
8
CUT
10
166.053
20
9.244
30
0.000
0
VERTEX
8
CUT
10
166.380
20
12.313
30
0.000
0
VERTEX
8
CUT
10
167.696
20
61.815
30
0.000
0
VERTEX
8
CUT
10
168.165
20
62.788
30
0.000
0
VERTEX
8
CUT
10
169.144
20
63.522
30
0.000
0
VERTEX
8
CUT
10
178.080
20
66.170
30
0.000
0
VERTEX
8
CUT
10
181.843
20
68.016
30
0.000
0
VERTEX
8
CUT
10
185.173
20
70.224
30
0.000
0
VERTEX
8
CUT
10
190.561
20
75.557
30
0.000
0
VERTEX
8
CUT
10
194.845
20
82.481
30
0.000
0
VERTEX
8
CUT
10
198.007
20
91.514
30
0.000
0
VERTEX
8
CUT
10
199.614
20
101.480
30
0.000
0
VERTEX
8
CUT
10
200.245
20
114.003
30
0.000
0
VERTEX
8
CUT
10
199.776
20
131.127
30
0.000
0
VERTEX
8
CUT
10
198.998
20
135.216
30
0.000
0
VERTEX
8
CUT
10
197.802
20
138.568
30
0.000
0
VERTEX
8
CUT
10
196.113
20
141.239
30
0.000
0
VERTEX
8
CUT
10
194.051
20
143.008
30
0.000
0
VERTEX
8
CUT
10
191.314
20
143.939
30
0.000
0
VERTEX
8
CUT
10
188.610
20
143.793
30
0.000
0
VERTEX
8
CUT
10
185.983
20
142.571
30
0.000
0
VERTEX
8
CUT
10
183.905
20
140.474
30
0.000
0
VERTEX
8
CUT
10
182.073
20
136.537
30
0.000
0
VERTEX
8
CUT
10
180.897
20
130.713
30
0.000
0
VERTEX
8
CUT
10
180.211
20
105.967
30
0.000
0
VERTEX
8
CUT
10
179.761
20
101.252
30
0.000
0
VERTEX
8
CUT
10
178.718
20
96.611
30
0.000
0
VERTEX
8
CUT
10
176.958
20
92.013
30
0.000
0
VERTEX
8
CUT
10
174.504
20
88.718
30
0.000
0
VERTEX
8
CUT
10
170.800
20
86.320
30
0.000
0
VERTEX
8
CUT
10
169.164
20
86.003
30
0.000
0
VERTEX
8
CUT
10
168.204
20
86.340
30
0.000
0
VERTEX
8
CUT
10
167.462
20
89.079
30
0.000
0
VERTEX
8
CUT
10
165.641
20
164.502
30
0.000
0
VERTEX
8
CUT
10
164.269
20
175.100
30
0.000
0
VERTEX
8
CUT
10
163.055
20
178.902
30
0.000
0
VERTEX
8
CUT
10
161.370
20
182.057
30
0.000
0
VERTEX
8
CUT
10
159.137
20
184.580
30
0.000
0
VERTEX
8
CUT
10
156.663
20
186.217
30
0.000
0
VERTEX
8
CUT
10
153.464
20
187.162
30
0.000
0
VERTEX
8
CUT
10
150.139
20
187.180
30
0.000
0
VERTEX
8
CUT
10
146.921
20
186.253
30
0.000
0
VERTEX
8
CUT
10
144.303
20
184.507
30
0.000
0
VERTEX
8
CUT
10
141.961
20
181.821
30
0.000
0
VERTEX
8
CUT
10
140.185
20
178.251
30
0.000
0
VERTEX
8
CUT
10
138.829
20
173.693
30
0.000
0
VERTEX
8
CUT
10
138.052
20
168.201
30
0.000
0
VERTEX
8
CUT
10
137.438
20
158.061
30
0.000
0
VERTEX
8
CUT
10
136.158
20
101.192
30
0.000
0
VERTEX
8
CUT
10
135.750
20
98.867
30
0.000
0
VERTEX
8
CUT
10
135.020
20
98.205
30
0.000
0
VERTEX
8
CUT
10
133.864
20
98.101
30
0.000
0
VERTEX
8
CUT
10
130.078
20
99.691
30
0.000
0
VERTEX
8
CUT
10
127.323
20
102.428
30
0.000
0
VERTEX
8
CUT
10
125.314
20
106.248
30
0.000
0
VERTEX
8
CUT
10
124.002
20
110.796
30
0.000
0
VERTEX
8
CUT
10
123.156
20
116.068
30
0.000
0
VERTEX
8
CUT
10
122.723
20
135.830
30
0.000
0
VERTEX
8
CUT
10
121.947
20
142.315
30
0.000
0
VERTEX
8
CUT
10
120.879
20
146.152
30
0.000
0
VERTEX
8
CUT
10
119.589
20
148.822
30
0.000
0
VERTEX
8
CUT
10
117.732
20
150.880
30
0.000
0
VERTEX
8
CUT
10
115.359
20
152.248
30
0.000
0
VERTEX
8
CUT
10
111.928
20
152.632
30
0.000
0
VERTEX
8
CUT
10
108.696
20
151.336
30
0.000
0
VERTEX
8
CUT
10
106.021
20
148.478
30
0.000
0
VERTEX
8
CUT
10
104.244
20
144.289
30
0.000
0
VERTEX
8
CUT
10
103.412
20
140.001
30
0.000
0
VERTEX
8
CUT
10
103.123
20
135.628
30
0.000
0
VERTEX
8
CUT
10
103.159
20
119.808
30
0.000
0
VERTEX
8
CUT
10
103.790
20
110.478
30
0.000
0
VERTEX
8
CUT
10
104.982
20
103.452
30
0.000
0
VERTEX
8
CUT
10
107.150
20
96.623
30
0.000
0
VERTEX
8
CUT
10
109.879
20
91.093
30
0.000
0
VERTEX
8
CUT
10
113.152
20
86.572
30
0.000
0
VERTEX
8
CUT
10
116.915
20
82.972
30
0.000
0
VERTEX
8
CUT
10
121.201
20
80.061
30
0.000
0
VERTEX
8
CUT
10
126.823
20
77.566
30
0.000
0
VERTEX
8
CUT
10
134.119
20
75.692
30
0.000
0
VERTEX
8
CUT
10
135.151
20
75.010
30
0.000
0
VERTEX
8
CUT
10
135.636
20
74.093
30
0.000
0
VERTEX
8
CUT
10
137.475
20
10.107
30
0.000
0
VERTEX
8
CUT
10
137.954
20
8.265
30
0.000
0
VERTEX
8
CUT
10
139.151
20
7.310
30
0.000
0
VERTEX
8
CUT
10
141.724
20
7.000
30
0.000
0
VERTEX
8
CUT
10
142.144
20
7.000
30
0.000
0
VERTEX
8
CUT
10
142.144
20
4.000
30
0.000
0
VERTEX
8
CUT
10
150.259
20
4.000
30
0.000
0
SEQEND
8
CUT
0
POLYLINE
8
CUT
66
1
70
1
10
0.000
20
0.000
30
0.000
0
VERTEX
8
CUT
10
229.155
20
30.948
30
0.000
0
VERTEX
8
CUT
10
221.206
20
30.948
30
0.000
0
VERTEX
8
CUT
10
221.206
20
33.798
30
0.000
0
VERTEX
8
CUT
10
229.155
20
33.798
30
0.000
0
VERTEX
8
CUT
10
229.155
20
41.748
30
0.000
0
VERTEX
8
CUT
10
232.005
20
41.748
30
0.000
0
VERTEX
8
CUT
10
232.005
20
33.798
30
0.000
0
VERTEX
8
CUT
10
239.955
20
33.798
30
0.000
0
VERTEX
8
CUT
10
239.955
20
30.948
30
0.000
0
VERTEX
8
CUT
10
232.005
20
30.948
30
0.000
0
VERTEX
8
CUT
10
232.005
20
22.998
30
0.000
0
VERTEX
8
CUT
10
229.155
20
22.998
30
0.000
0
SEQEND
8
CUT
0
POLYLINE
8
CUT
66
1
70
1
10
0.000
20
0.000
30
0.000
0
VERTEX
8
CUT
10
234.771
20
4.299
30
0.000
0
VERTEX
8
CUT
10
238.062
20
4.991
30
0.000
0
VERTEX
8
CUT
10
241.248
20
6.068
30
0.000
0
VERTEX
8
CUT
10
244.285
20
7.515
30
0.000
0
VERTEX
8
CUT
10
247.128
20
9.310
30
0.000
0
VERTEX
8
CUT
10
249.740
20
11.429
30
0.000
0
VERTEX
8
CUT
10
252.083
20
13.842
30
0.000
0
VERTEX
8
CUT
10
254.123
20
16.515
30
0.000
0
VERTEX
8
CUT
10
255.833
20
19.411
30
0.000
0
VERTEX
8
CUT
10
257.189
20
22.489
30
0.000
0
VERTEX
8
CUT
10
258.171
20
25.705
30
0.000
0
VERTEX
8
CUT
10
258.766
20
29.015
30
0.000
0
VERTEX
8
CUT
10
258.966
20
32.373
30
0.000
0
VERTEX
8
CUT
10
258.766
20
35.730
30
0.000
0
VERTEX
8
CUT
10
258.171
20
39.040
30
0.000
0
VERTEX
8
CUT
10
257.189
20
42.256
30
0.000
0
VERTEX
8
CUT
10
255.833
20
45.334
30
0.000
0
VERTEX
8
CUT
10
254.123
20
48.230
30
0.000
0
VERTEX
8
CUT
10
252.083
20
50.903
30
0.000
0
VERTEX
8
CUT
10
249.740
20
53.316
30
0.000
0
VERTEX
8
CUT
10
247.128
20
55.435
30
0.000
0
VERTEX
8
CUT
10
244.285
20
57.231
30
0.000
0
VERTEX
8
CUT
10
241.248
20
58.677
30
0.000
0
VERTEX
8
CUT
10
238.062
20
59.754
30
0.000
0
VERTEX
8
CUT
10
234.771
20
60.447
30
0.000
0
VERTEX
8
CUT
10
231.422
20
60.745
30
0.000
0
VERTEX
8
CUT
10
228.060
20
60.646
30
0.000
0
VERTEX
8
CUT
10
224.734
20
60.149
30
0.000
0
VERTEX
8
CUT
10
221.490
20
59.263
30
0.000
0
VERTEX
8
CUT
10
218.373
20
57.999
30
0.000
0
VERTEX
8
CUT
10
215.428
20
56.375
30
0.000
0
VERTEX
8
CUT
10
212.695
20
54.414
30
0.000
0
VERTEX
8
CUT
10
210.214
20
52.144
30
0.000
0
VERTEX
8
CUT
10
208.018
20
49.597
30
0.000
0
VERTEX
8
CUT
10
206.140
20
46.807
30
0.000
0
VERTEX
8
CUT
10
204.604
20
43.815
30
0.000
0
VERTEX
8
CUT
10
203.433
20
40.663
30
0.000
0
VERTEX
8
CUT
10
202.643
20
37.394
30
0.000
0
VERTEX
8
CUT
10
202.245
20
34.054
30
0.000
0
VERTEX
8
CUT
10
202.245
20
30.691
30
0.000
0
VERTEX
8
CUT
10
202.643
20
27.352
30
0.000
0
VERTEX
8
CUT
10
203.433
20
24.083
30
0.000
0
VERTEX
8
CUT
10
204.604
20
20.930
30
0.000
0
VERTEX
8
CUT
10
206.140
20
17.938
30
0.000
0
VERTEX
8
CUT
10
208.018
20
15.149
30
0.000
0
VERTEX
8
CUT
10
210.214
20
12.601
30
0.000
0
VERTEX
8
CUT
10
212.695
20
10.331
30
0.000
0
VERTEX
8
CUT
10
215.428
20
8.370
30
0.000
0
VERTEX
8
CUT
10
218.373
20
6.747
30
0.000
0
VERTEX
8
CUT
10
221.490
20
5.483
30
0.000
0
VERTEX
8
CUT
10
224.734
20
4.596
30
0.000
0
VERTEX
8
CUT
10
228.060
20
4.100
30
0.000
0
VERTEX
8
CUT
10
231.422
20
4.000
30
0.000
0
SEQEND
8
CUT
0
ENDSEC
0
EOF
