0
SECTION
2
HEADER
9
$ACADVER
1
AC1009
9
$INSUNITS
70
4
9
$MEASUREMENT
70
1
9
$EXTMIN
10
0.000
20
0.000
30
0.000
9
$EXTMAX
10
310.000
20
250.000
30
0.000
0
ENDSEC
0
SECTION
2
TABLES
0
TABLE
2
LAYER
70
2
0
LAYER
2
CUT
70
0
62
1
6
CONTINUOUS
0
LAYER
2
ENGRAVE
70
0
62
5
6
CONTINUOUS
0
ENDTAB
0
ENDSEC
0
SECTION
2
ENTITIES
0
POLYLINE
8
CUT
66
1
70
1
10
0.000
20
0.000
30
0.000
0
VERTEX
8
CUT
10
66.796
20
91.579
30
0.000
0
VERTEX
8
CUT
10
66.652
20
91.563
30
0.000
0
VERTEX
8
CUT
10
66.452
20
91.629
30
0.000
0
VERTEX
8
CUT
10
66.295
20
91.770
30
0.000
0
VERTEX
8
CUT
10
66.209
20
91.963
30
0.000
0
VERTEX
8
CUT
10
66.209
20
92.174
30
0.000
0
VERTEX
8
CUT
10
66.295
20
92.367
30
0.000
0
VERTEX
8
CUT
10
66.452
20
92.509
30
0.000
0
VERTEX
8
CUT
10
66.652
20
92.574
30
0.000
0
VERTEX
8
CUT
10
66.863
20
92.552
30
0.000
0
VERTEX
8
CUT
10
67.045
20
92.446
30
0.000
0
VERTEX
8
CUT
10
67.170
20
92.275
30
0.000
0
VERTEX
8
CUT
10
67.233
20
91.979
30
0.000
0
VERTEX
8
CUT
10
69.239
20
91.979
30
0.000
0
VERTEX
8
CUT
10
69.239
20
92.174
30
0.000
0
VERTEX
8
CUT
10
69.325
20
92.367
30
0.000
0
VERTEX
8
CUT
10
69.482
20
92.509
30
0.000
0
VERTEX
8
CUT
10
69.682
20
92.574
30
0.000
0
VERTEX
8
CUT
10
69.893
20
92.552
30
0.000
0
VERTEX
8
CUT
10
70.075
20
92.446
30
0.000
0
VERTEX
8
CUT
10
70.200
20
92.275
30
0.000
0
VERTEX
8
CUT
10
70.244
20
92.069
30
0.000
0
VERTEX
8
CUT
10
70.200
20
91.862
30
0.000
0
VERTEX
8
CUT
10
70.075
20
91.691
30
0.000
0
VERTEX
8
CUT
10
69.893
20
91.586
30
0.000
0
VERTEX
8
CUT
10
69.646
20
91.560
30
0.000
0
VERTEX
8
CUT
10
69.646
20
4.000
30
0.000
0
VERTEX
8
CUT
10
83.093
20
4.000
30
0.000
0
VERTEX
8
CUT
10
83.093
20
7.016
30
0.000
0
VERTEX
8
CUT
10
85.923
20
7.017
30
0.000
0
VERTEX
8
CUT
10
88.052
20
7.172
30
0.000
0
VERTEX
8
CUT
10
89.372
20
7.823
30
0.000
0
VERTEX
8
CUT
10
89.937
20
9.146
30
0.000
0
VERTEX
8
CUT
10
89.937
20
11.820
30
0.000
0
VERTEX
8
CUT
10
82.966
20
103.423
30
0.000
0
VERTEX
8
CUT
10
83.100
20
105.837
30
0.000
0
VERTEX
8
CUT
10
83.796
20
106.727
30
0.000
0
VERTEX
8
CUT
10
85.408
20
107.192
30
0.000
0
VERTEX
8
CUT
10
101.433
20
108.177
30
0.000
0
VERTEX
8
CUT
10
116.232
20
110.100
30
0.000
0
VERTEX
8
CUT
10
122.618
20
111.496
30
0.000
0
VERTEX
8
CUT
10
127.704
20
113.459
30
0.000
0
VERTEX
8
CUT
10
130.997
20
116.135
30
0.000
0
VERTEX
8
CUT
10
132.442
20
119.677
30
0.000
0
VERTEX
8
CUT
10
132.168
20
125.251
30
0.000
0
VERTEX
8
CUT
10
130.326
20
131.168
30
0.000
0
VERTEX
8
CUT
10
127.107
20
137.522
30
0.000
0
VERTEX
8
CUT
10
122.834
20
143.719
30
0.000
0
VERTEX
8
CUT
10
115.518
20
152.549
30
0.000
0
VERTEX
8
CUT
10
108.661
20
159.559
30
0.000
0
VERTEX
8
CUT
10
102.670
20
164.716
30
0.000
0
VERTEX
8
CUT
10
96.524
20
169.040
30
0.000
0
VERTEX
8
CUT
10
89.866
20
172.497
30
0.000
0
VERTEX
8
CUT
10
83.173
20
174.899
30
0.000
0
VERTEX
8
CUT
10
74.949
20
176.669
30
0.000
0
VERTEX
8
CUT
10
67.471
20
177.180
30
0.000
0
VERTEX
8
CUT
10
60.759
20
176.533
30
0.000
0
VERTEX
8
CUT
10
52.008
20
174.541
30
0.000
0
VERTEX
8
CUT
10
45.400
20
171.901
30
0.000
0
VERTEX
8
CUT
10
39.474
20
168.649
30
0.000
0
VERTEX
8
CUT
10
32.733
20
163.848
30
0.000
0
VERTEX
8
CUT
10
26.401
20
158.214
30
0.000
0
VERTEX
8
CUT
10
16.397
20
147.207
30
0.000
0
VERTEX
8
CUT
10
9.063
20
136.979
30
0.000
0
VERTEX
8
CUT
10
6.626
20
132.327
30
0.000
0
VERTEX
8
CUT
10
5.075
20
128.100
30
0.000
0
VERTEX
8
CUT
10
4.034
20
123.528
30
0.000
0
VERTEX
8
CUT
10
4.000
20
119.985
30
0.000
0
VERTEX
8
CUT
10
4.894
20
117.183
30
0.000
0
VERTEX
8
CUT
10
6.886
20
114.778
30
0.000
0
VERTEX
8
CUT
10
9.746
20
112.997
30
0.000
0
VERTEX
8
CUT
10
14.012
20
111.479
30
0.000
0
VERTEX
8
CUT
10
21.502
20
109.930
30
0.000
0
VERTEX
8
CUT
10
32.797
20
108.416
30
0.000
0
VERTEX
8
CUT
10
50.862
20
107.192
30
0.000
0
VERTEX
8
CUT
10
52.493
20
106.693
30
0.000
0
VERTEX
8
CUT
10
53.256
20
105.784
30
0.000
0
VERTEX
8
CUT
10
53.424
20
102.590
30
0.000
0
VERTEX
8
CUT
10
46.521
20
11.715
30
0.000
0
VERTEX
8
CUT
10
46.728
20
8.338
30
0.000
0
VERTEX
8
CUT
10
48.003
20
7.275
30
0.000
0
VERTEX
8
CUT
10
50.602
20
7.000
30
0.000
0
VERTEX
8
CUT
10
53.348
20
7.001
30
0.000
0
VERTEX
8
CUT
10
53.348
20
4.000
30
0.000
0
VERTEX
8
CUT
10
66.796
20
4.000
30
0.000
0
SEQEND
8
CUT
0
POLYLINE
8
CUT
66
1
70
1
10
0.000
20
0.000
30
0.000
0
VERTEX
8
CUT
10
213.535
20
7.016
30
0.000
0
VERTEX
8
CUT
10
216.364
20
7.017
30
0.000
0
VERTEX
8
CUT
10
218.493
20
7.172
30
0.000
0
VERTEX
8
CUT
10
219.814
20
7.823
30
0.000
0
VERTEX
8
CUT
10
220.379
20
9.146
30
0.000
0
VERTEX
8
CUT
10
220.379
20
11.820
30
0.000
0
VERTEX
8
CUT
10
213.408
20
103.423
30
0.000
0
VERTEX
8
CUT
10
213.542
20
105.837
30
0.000
0
VERTEX
8
CUT
10
214.238
20
106.727
30
0.000
0
VERTEX
8
CUT
10
215.850
20
107.192
30
0.000
0
VERTEX
8
CUT
10
231.875
20
108.177
30
0.000
0
VERTEX
8
CUT
10
246.674
20
110.100
30
0.000
0
VERTEX
8
CUT
10
253.060
20
111.496
30
0.000
0
VERTEX
8
CUT
10
258.146
20
113.459
30
0.000
0
VERTEX
8
CUT
10
261.439
20
116.135
30
0.000
0
VERTEX
8
CUT
10
262.884
20
119.677
30
0.000
0
VERTEX
8
CUT
10
262.610
20
125.251
30
0.000
0
VERTEX
8
CUT
10
260.768
20
131.168
30
0.000
0
VERTEX
8
CUT
10
257.549
20
137.522
30
0.000
0
VERTEX
8
CUT
10
253.276
20
143.719
30
0.000
0
VERTEX
8
CUT
10
245.960
20
152.549
30
0.000
0
VERTEX
8
CUT
10
239.103
20
159.559
30
0.000
0
VERTEX
8
CUT
10
233.112
20
164.716
30
0.000
0
VERTEX
8
CUT
10
226.966
20
169.040
30
0.000
0
VERTEX
8
CUT
10
220.308
20
172.497
30
0.000
0
VERTEX
8
CUT
10
213.615
20
174.899
30
0.000
0
VERTEX
8
CUT
10
205.391
20
176.669
30
0.000
0
VERTEX
8
CUT
10
200.087
20
177.032
30
0.000
0
VERTEX
8
CUT
10
200.087
20
92.578
30
0.000
0
VERTEX
8
CUT
10
200.334
20
92.552
30
0.000
0
VERTEX
8
CUT
10
200.517
20
92.446
30
0.000
0
VERTEX
8
CUT
10
200.641
20
92.275
30
0.000
0
VERTEX
8
CUT
10
200.685
20
92.069
30
0.000
0
VERTEX
8
CUT
10
200.641
20
91.862
30
0.000
0
VERTEX
8
CUT
10
200.517
20
91.691
30
0.000
0
VERTEX
8
CUT
10
200.334
20
91.586
30
0.000
0
VERTEX
8
CUT
10
200.124
20
91.563
30
0.000
0
VERTEX
8
CUT
10
199.923
20
91.629
30
0.000
0
VERTEX
8
CUT
10
199.766
20
91.770
30
0.000
0
VERTEX
8
CUT
10
199.680
20
91.963
30
0.000
0
VERTEX
8
CUT
10
199.680
20
92.159
30
0.000
0
VERTEX
8
CUT
10
197.674
20
92.159
30
0.000
0
VERTEX
8
CUT
10
197.611
20
91.862
30
0.000
0
VERTEX
8
CUT
10
197.487
20
91.691
30
0.000
0
VERTEX
8
CUT
10
197.304
20
91.586
30
0.000
0
VERTEX
8
CUT
10
197.094
20
91.563
30
0.000
0
VERTEX
8
CUT
10
196.893
20
91.629
30
0.000
0
VERTEX
8
CUT
10
196.736
20
91.770
30
0.000
0
VERTEX
8
CUT
10
196.650
20
91.963
30
0.000
0
VERTEX
8
CUT
10
196.650
20
92.174
30
0.000
0
VERTEX
8
CUT
10
196.736
20
92.367
30
0.000
0
VERTEX
8
CUT
10
196.893
20
92.509
30
0.000
0
VERTEX
8
CUT
10
197.094
20
92.574
30
0.000
0
VERTEX
8
CUT
10
197.237
20
92.559
30
0.000
0
VERTEX
8
CUT
10
197.237
20
177.115
30
0.000
0
VERTEX
8
CUT
10
191.201
20
176.533
30
0.000
0
VERTEX
8
CUT
10
182.450
20
174.541
30
0.000
0
VERTEX
8
CUT
10
175.842
20
171.901
30
0.000
0
VERTEX
8
CUT
10
169.916
20
168.649
30
0.000
0
VERTEX
8
CUT
10
163.175
20
163.848
30
0.000
0
VERTEX
8
CUT
10
156.843
20
158.214
30
0.000
0
VERTEX
8
CUT
10
146.839
20
147.207
30
0.000
0
VERTEX
8
CUT
10
139.505
20
136.979
30
0.000
0
VERTEX
8
CUT
10
137.068
20
132.327
30
0.000
0
VERTEX
8
CUT
10
135.517
20
128.100
30
0.000
0
VERTEX
8
CUT
10
134.476
20
123.528
30
0.000
0
VERTEX
8
CUT
10
134.442
20
119.985
30
0.000
0
VERTEX
8
CUT
10
135.336
20
117.183
30
0.000
0
VERTEX
8
CUT
10
137.328
20
114.778
30
0.000
0
VERTEX
8
CUT
10
140.188
20
112.997
30
0.000
0
VERTEX
8
CUT
10
144.454
20
111.479
30
0.000
0
VERTEX
8
CUT
10
151.944
20
109.930
30
0.000
0
VERTEX
8
CUT
10
163.239
20
108.416
30
0.000
0
VERTEX
8
CUT
10
181.304
20
107.192
30
0.000
0
VERTEX
8
CUT
10
182.935
20
106.693
30
0.000
0
VERTEX
8
CUT
10
183.698
20
105.784
30
0.000
0
VERTEX
8
CUT
10
183.866
20
102.590
30
0.000
0
VERTEX
8
CUT
10
176.963
20
11.715
30
0.000
0
VERTEX
8
CUT
10
177.170
20
8.338
30
0.000
0
VERTEX
8
CUT
10
178.445
20
7.275
30
0.000
0
VERTEX
8
CUT
10
181.044
20
7.000
30
0.000
0
VERTEX
8
CUT
10
183.790
20
7.001
30
0.000
0
VERTEX
8
CUT
10
183.790
20
4.000
30
0.000
0
VERTEX
8
CUT
10
213.535
20
4.000
30
0.000
0
SEQEND
8
CUT
0
POLYLINE
8
CUT
66
1
70
1
10
0.000
20
0.000
30
0.000
0
VERTEX
8
CUT
10
35.997
20
211.128
30
0.000
0
VERTEX
8
CUT
10
22.714
20
211.128
30
0.000
0
VERTEX
8
CUT
10
22.714
20
213.978
30
0.000
0
VERTEX
8
CUT
10
35.997
20
213.978
30
0.000
0
VERTEX
8
CUT
10
35.997
20
227.261
30
0.000
0
VERTEX
8
CUT
10
38.847
20
227.261
30
0.000
0
VERTEX
8
CUT
10
38.847
20
213.978
30
0.000
0
VERTEX
8
CUT
10
52.130
20
213.978
30
0.000
0
VERTEX
8
CUT
10
52.130
20
211.128
30
0.000
0
VERTEX
8
CUT
10
38.847
20
211.128
30
0.000
0
VERTEX
8
CUT
10
38.847
20
197.846
30
0.000
0
VERTEX
8
CUT
10
35.997
20
197.846
30
0.000
0
SEQEND
8
CUT
0
POLYLINE
8
CUT
66
1
70
1
10
0.000
20
0.000
30
0.000
0
VERTEX
8
CUT
10
42.829
20
179.572
30
0.000
0
VERTEX
8
CUT
10
46.363
20
180.350
30
0.000
0
VERTEX
8
CUT
10
49.793
20
181.505
30
0.000
0
VERTEX
8
CUT
10
53.077
20
183.025
30
0.000
0
VERTEX
8
CUT
10
56.178
20
184.890
30
0.000
0
VERTEX
8
CUT
10
59.059
20
187.080
30
0.000
0
VERTEX
8
CUT
10
61.686
20
189.569
30
0.000
0
VERTEX
8
CUT
10
64.029
20
192.327
30
0.000
0
VERTEX
8
CUT
10
66.060
20
195.322
30
0.000
0
VERTEX
8
CUT
10
67.755
20
198.520
30
0.000
0
VERTEX
8
CUT
10
69.095
20
201.882
30
0.000
0
VERTEX
8
CUT
10
70.063
20
205.369
30
0.000
0
VERTEX
8
CUT
10
70.648
20
208.940
30
0.000
0
VERTEX
8
CUT
10
70.844
20
212.553
30
0.000
0
VERTEX
8
CUT
10
70.648
20
216.167
30
0.000
0
VERTEX
8
CUT
10
70.063
20
219.738
30
0.000
0
VERTEX
8
CUT
10
69.095
20
223.225
30
0.000
0
VERTEX
8
CUT
10
67.755
20
226.587
30
0.000
0
VERTEX
8
CUT
10
66.060
20
229.784
30
0.000
0
VERTEX
8
CUT
10
64.029
20
232.780
30
0.000
0
VERTEX
8
CUT
10
61.686
20
235.538
30
0.000
0
VERTEX
8
CUT
10
59.059
20
238.026
30
0.000
0
VERTEX
8
CUT
10
56.178
20
240.217
30
0.000
0
VERTEX
8
CUT
10
53.077
20
242.082
30
0.000
0
VERTEX
8
CUT
10
49.793
20
243.602
30
0.000
0
VERTEX
8
CUT
10
46.363
20
244.757
30
0.000
0
VERTEX
8
CUT
10
42.829
20
245.535
30
0.000
0
VERTEX
8
CUT
10
39.232
20
245.926
30
0.000
0
VERTEX
8
CUT
10
35.613
20
245.926
30
0.000
0
VERTEX
8
CUT
10
32.015
20
245.535
30
0.000
0
VERTEX
8
CUT
10
28.481
20
244.757
30
0.000
0
VERTEX
8
CUT
10
25.051
20
243.602
30
0.000
0
VERTEX
8
CUT
10
21.767
20
242.082
30
0.000
0
VERTEX
8
CUT
10
18.666
20
240.217
30
0.000
0
VERTEX
8
CUT
10
15.785
20
238.026
30
0.000
0
VERTEX
8
CUT
10
13.158
20
235.538
30
0.000
0
VERTEX
8
CUT
10
10.815
20
232.780
30
0.000
0
VERTEX
8
CUT
10
8.784
20
229.784
30
0.000
0
VERTEX
8
CUT
10
7.089
20
226.587
30
0.000
0
VERTEX
8
CUT
10
5.750
20
223.225
30
0.000
0
VERTEX
8
CUT
10
4.781
20
219.738
30
0.000
0
VERTEX
8
CUT
10
4.196
20
216.167
30
0.000
0
VERTEX
8
CUT
10
4.000
20
212.553
30
0.000
0
VERTEX
8
CUT
10
4.196
20
208.940
30
0.000
0
VERTEX
8
CUT
10
4.781
20
205.369
30
0.000
0
VERTEX
8
CUT
10
5.750
20
201.882
30
0.000
0
VERTEX
8
CUT
10
7.089
20
198.520
30
0.000
0
VERTEX
8
CUT
10
8.784
20
195.322
30
0.000
0
VERTEX
8
CUT
10
10.815
20
192.327
30
0.000
0
VERTEX
8
CUT
10
13.158
20
189.569
30
0.000
0
VERTEX
8
CUT
10
15.785
20
187.080
30
0.000
0
VERTEX
8
CUT
10
18.666
20
184.890
30
0.000
0
VERTEX
8
CUT
10
21.767
20
183.025
30
0.000
0
VERTEX
8
CUT
10
25.051
20
181.505
30
0.000
0
VERTEX
8
CUT
10
28.481
20
180.350
30
0.000
0
VERTEX
8
CUT
10
32.015
20
179.572
30
0.000
0
VERTEX
8
CUT
10
35.613
20
179.180
30
0.000
0
VERTEX
8
CUT
10
39.232
20
179.180
30
0.000
0
SEQEND
8
CUT
0
ENDSEC
0
EOF
