0
SECTION
2
HEADER
9
$ACADVER
1
AC1009
9
$INSUNITS
70
4
9
$MEASUREMENT
70
1
9
$EXTMIN
10
0.000
20
0.000
30
0.000
9
$EXTMAX
10
310.000
20
250.000
30
0.000
0
ENDSEC
0
SECTION
2
TABLES
0
TABLE
2
LAYER
70
2
0
LAYER
2
CUT
70
0
62
1
6
CONTINUOUS
0
LAYER
2
ENGRAVE
70
0
62
5
6
CONTINUOUS
0
ENDTAB
0
ENDSEC
0
SECTION
2
ENTITIES
0
POLYLINE
8
CUT
66
1
70
1
10
0.000
20
0.000
30
0.000
0
VERTEX
8
CUT
10
75.444
20
7.003
30
0.000
0
VERTEX
8
CUT
10
76.469
20
7.000
30
0.000
0
VERTEX
8
CUT
10
79.257
20
7.679
30
0.000
0
VERTEX
8
CUT
10
79.879
20
8.886
30
0.000
0
VERTEX
8
CUT
10
79.934
20
10.694
30
0.000
0
VERTEX
8
CUT
10
78.187
20
35.012
30
0.000
0
VERTEX
8
CUT
10
75.539
20
84.198
30
0.000
0
VERTEX
8
CUT
10
75.017
20
107.933
30
0.000
0
VERTEX
8
CUT
10
75.196
20
116.519
30
0.000
0
VERTEX
8
CUT
10
75.603
20
116.587
30
0.000
0
VERTEX
8
CUT
10
76.324
20
115.419
30
0.000
0
VERTEX
8
CUT
10
88.121
20
87.737
30
0.000
0
VERTEX
8
CUT
10
90.660
20
83.711
30
0.000
0
VERTEX
8
CUT
10
91.696
20
83.184
30
0.000
0
VERTEX
8
CUT
10
92.748
20
83.279
30
0.000
0
VERTEX
8
CUT
10
94.299
20
85.034
30
0.000
0
VERTEX
8
CUT
10
95.279
20
89.027
30
0.000
0
VERTEX
8
CUT
10
95.442
20
93.998
30
0.000
0
VERTEX
8
CUT
10
93.584
20
106.116
30
0.000
0
VERTEX
8
CUT
10
91.761
20
111.999
30
0.000
0
VERTEX
8
CUT
10
88.815
20
118.450
30
0.000
0
VERTEX
8
CUT
10
88.857
20
119.233
30
0.000
0
VERTEX
8
CUT
10
90.909
20
117.416
30
0.000
0
VERTEX
8
CUT
10
97.807
20
108.699
30
0.000
0
VERTEX
8
CUT
10
100.932
20
105.951
30
0.000
0
VERTEX
8
CUT
10
103.539
20
99.803
30
0.000
0
VERTEX
8
CUT
10
114.102
20
83.868
30
0.000
0
VERTEX
8
CUT
10
116.034
20
81.772
30
0.000
0
VERTEX
8
CUT
10
117.923
20
81.323
30
0.000
0
VERTEX
8
CUT
10
119.420
20
82.521
30
0.000
0
VERTEX
8
CUT
10
120.152
20
85.046
30
0.000
0
VERTEX
8
CUT
10
120.278
20
98.015
30
0.000
0
VERTEX
8
CUT
10
118.673
20
108.171
30
0.000
0
VERTEX
8
CUT
10
115.569
20
116.977
30
0.000
0
VERTEX
8
CUT
10
111.255
20
123.890
30
0.000
0
VERTEX
8
CUT
10
105.211
20
130.764
30
0.000
0
VERTEX
8
CUT
10
98.320
20
136.176
30
0.000
0
VERTEX
8
CUT
10
89.170
20
141.516
30
0.000
0
VERTEX
8
CUT
10
91.572
20
141.361
30
0.000
0
VERTEX
8
CUT
10
99.374
20
139.168
30
0.000
0
VERTEX
8
CUT
10
105.036
20
136.777
30
0.000
0
VERTEX
8
CUT
10
111.622
20
132.844
30
0.000
0
VERTEX
8
CUT
10
115.477
20
132.450
30
0.000
0
VERTEX
8
CUT
10
118.719
20
128.491
30
0.000
0
VERTEX
8
CUT
10
125.258
20
123.015
30
0.000
0
VERTEX
8
CUT
10
131.095
20
116.259
30
0.000
0
VERTEX
8
CUT
10
132.869
20
114.929
30
0.000
0
VERTEX
8
CUT
10
134.136
20
115.319
30
0.000
0
VERTEX
8
CUT
10
134.472
20
117.372
30
0.000
0
VERTEX
8
CUT
10
132.000
20
129.353
30
0.000
0
VERTEX
8
CUT
10
128.845
20
138.801
30
0.000
0
VERTEX
8
CUT
10
125.092
20
146.469
30
0.000
0
VERTEX
8
CUT
10
120.614
20
152.302
30
0.000
0
VERTEX
8
CUT
10
114.817
20
157.196
30
0.000
0
VERTEX
8
CUT
10
108.621
20
160.321
30
0.000
0
VERTEX
8
CUT
10
101.307
20
162.145
30
0.000
0
VERTEX
8
CUT
10
94.535
20
162.325
30
0.000
0
VERTEX
8
CUT
10
85.753
20
160.886
30
0.000
0
VERTEX
8
CUT
10
84.635
20
161.109
30
0.000
0
VERTEX
8
CUT
10
85.694
20
162.841
30
0.000
0
VERTEX
8
CUT
10
90.314
20
166.454
30
0.000
0
VERTEX
8
CUT
10
92.904
20
169.062
30
0.000
0
VERTEX
8
CUT
10
96.990
20
171.485
30
0.000
0
VERTEX
8
CUT
10
97.467
20
172.648
30
0.000
0
VERTEX
8
CUT
10
96.621
20
174.447
30
0.000
0
VERTEX
8
CUT
10
96.835
20
174.905
30
0.000
0
VERTEX
8
CUT
10
107.480
20
176.538
30
0.000
0
VERTEX
8
CUT
10
109.754
20
177.511
30
0.000
0
VERTEX
8
CUT
10
110.343
20
178.726
30
0.000
0
VERTEX
8
CUT
10
109.910
20
180.120
30
0.000
0
VERTEX
8
CUT
10
106.436
20
182.775
30
0.000
0
VERTEX
8
CUT
10
100.255
20
185.052
30
0.000
0
VERTEX
8
CUT
10
94.781
20
185.955
30
0.000
0
VERTEX
8
CUT
10
87.631
20
185.775
30
0.000
0
VERTEX
8
CUT
10
82.242
20
184.509
30
0.000
0
VERTEX
8
CUT
10
79.193
20
182.712
30
0.000
0
VERTEX
8
CUT
10
76.603
20
179.978
30
0.000
0
VERTEX
8
CUT
10
73.967
20
175.987
30
0.000
0
VERTEX
8
CUT
10
70.224
20
168.573
30
0.000
0
VERTEX
8
CUT
10
69.846
20
168.177
30
0.000
0
VERTEX
8
CUT
10
69.846
20
88.727
30
0.000
0
VERTEX
8
CUT
10
70.093
20
88.702
30
0.000
0
VERTEX
8
CUT
10
70.276
20
88.596
30
0.000
0
VERTEX
8
CUT
10
70.401
20
88.425
30
0.000
0
VERTEX
8
CUT
10
70.444
20
88.218
30
0.000
0
VERTEX
8
CUT
10
70.401
20
88.012
30
0.000
0
VERTEX
8
CUT
10
70.276
20
87.841
30
0.000
0
VERTEX
8
CUT
10
70.093
20
87.735
30
0.000
0
VERTEX
8
CUT
10
69.883
20
87.713
30
0.000
0
VERTEX
8
CUT
10
69.682
20
87.778
30
0.000
0
VERTEX
8
CUT
10
69.525
20
87.920
30
0.000
0
VERTEX
8
CUT
10
69.440
20
88.113
30
0.000
0
VERTEX
8
CUT
10
69.440
20
88.308
30
0.000
0
VERTEX
8
CUT
10
67.434
20
88.308
30
0.000
0
VERTEX
8
CUT
10
67.371
20
88.012
30
0.000
0
VERTEX
8
CUT
10
67.246
20
87.841
30
0.000
0
VERTEX
8
CUT
10
67.063
20
87.735
30
0.000
0
VERTEX
8
CUT
10
66.853
20
87.713
30
0.000
0
VERTEX
8
CUT
10
66.652
20
87.778
30
0.000
0
VERTEX
8
CUT
10
66.495
20
87.920
30
0.000
0
VERTEX
8
CUT
10
66.410
20
88.113
30
0.000
0
VERTEX
8
CUT
10
66.410
20
88.324
30
0.000
0
VERTEX
8
CUT
10
66.495
20
88.517
30
0.000
0
VERTEX
8
CUT
10
66.652
20
88.658
30
0.000
0
VERTEX
8
CUT
10
66.853
20
88.724
30
0.000
0
VERTEX
8
CUT
10
66.996
20
88.709
30
0.000
0
VERTEX
8
CUT
10
66.996
20
172.659
30
0.000
0
VERTEX
8
CUT
10
65.732
20
175.425
30
0.000
0
VERTEX
8
CUT
10
61.923
20
181.941
30
0.000
0
VERTEX
8
CUT
10
59.057
20
184.662
30
0.000
0
VERTEX
8
CUT
10
55.123
20
186.511
30
0.000
0
VERTEX
8
CUT
10
49.837
20
187.181
30
0.000
0
VERTEX
8
CUT
10
42.612
20
186.061
30
0.000
0
VERTEX
8
CUT
10
34.328
20
183.282
30
0.000
0
VERTEX
8
CUT
10
29.473
20
180.256
30
0.000
0
VERTEX
8
CUT
10
28.236
20
178.023
30
0.000
0
VERTEX
8
CUT
10
28.544
20
177.023
30
0.000
0
VERTEX
8
CUT
10
29.537
20
176.235
30
0.000
0
VERTEX
8
CUT
10
31.745
20
175.797
30
0.000
0
VERTEX
8
CUT
10
39.289
20
175.617
30
0.000
0
VERTEX
8
CUT
10
41.472
20
175.054
30
0.000
0
VERTEX
8
CUT
10
41.690
20
174.602
30
0.000
0
VERTEX
8
CUT
10
41.114
20
172.837
30
0.000
0
VERTEX
8
CUT
10
41.557
20
171.894
30
0.000
0
VERTEX
8
CUT
10
45.692
20
169.907
30
0.000
0
VERTEX
8
CUT
10
48.082
20
166.924
30
0.000
0
VERTEX
8
CUT
10
54.060
20
162.513
30
0.000
0
VERTEX
8
CUT
10
55.249
20
160.855
30
0.000
0
VERTEX
8
CUT
10
54.231
20
160.652
30
0.000
0
VERTEX
8
CUT
10
44.278
20
162.326
30
0.000
0
VERTEX
8
CUT
10
36.747
20
161.910
30
0.000
0
VERTEX
8
CUT
10
27.795
20
159.347
30
0.000
0
VERTEX
8
CUT
10
24.106
20
157.394
30
0.000
0
VERTEX
8
CUT
10
20.762
20
154.882
30
0.000
0
VERTEX
8
CUT
10
15.094
20
148.744
30
0.000
0
VERTEX
8
CUT
10
10.654
20
140.749
30
0.000
0
VERTEX
8
CUT
10
5.679
20
126.652
30
0.000
0
VERTEX
8
CUT
10
4.055
20
118.911
30
0.000
0
VERTEX
8
CUT
10
4.000
20
115.967
30
0.000
0
VERTEX
8
CUT
10
5.093
20
114.778
30
0.000
0
VERTEX
8
CUT
10
6.774
20
115.458
30
0.000
0
VERTEX
8
CUT
10
12.295
20
121.863
30
0.000
0
VERTEX
8
CUT
10
19.644
20
128.257
30
0.000
0
VERTEX
8
CUT
10
22.475
20
131.623
30
0.000
0
VERTEX
8
CUT
10
24.815
20
130.985
30
0.000
0
VERTEX
8
CUT
10
26.255
20
131.188
30
0.000
0
VERTEX
8
CUT
10
39.142
20
138.379
30
0.000
0
VERTEX
8
CUT
10
44.873
20
140.553
30
0.000
0
VERTEX
8
CUT
10
47.101
20
140.929
30
0.000
0
VERTEX
8
CUT
10
38.851
20
135.579
30
0.000
0
VERTEX
8
CUT
10
33.114
20
130.636
30
0.000
0
VERTEX
8
CUT
10
27.108
20
123.691
30
0.000
0
VERTEX
8
CUT
10
23.137
20
117.266
30
0.000
0
VERTEX
8
CUT
10
20.610
20
110.786
30
0.000
0
VERTEX
8
CUT
10
18.590
20
100.902
30
0.000
0
VERTEX
8
CUT
10
18.085
20
91.776
30
0.000
0
VERTEX
8
CUT
10
18.663
20
83.866
30
0.000
0
VERTEX
8
CUT
10
19.455
20
82.061
30
0.000
0
VERTEX
8
CUT
10
20.660
20
81.327
30
0.000
0
VERTEX
8
CUT
10
22.086
20
81.552
30
0.000
0
VERTEX
8
CUT
10
23.646
20
82.836
30
0.000
0
VERTEX
8
CUT
10
35.058
20
99.820
30
0.000
0
VERTEX
8
CUT
10
37.701
20
105.663
30
0.000
0
VERTEX
8
CUT
10
40.773
20
108.484
30
0.000
0
VERTEX
8
CUT
10
47.869
20
117.525
30
0.000
0
VERTEX
8
CUT
10
50.126
20
119.647
30
0.000
0
VERTEX
8
CUT
10
50.126
20
118.903
30
0.000
0
VERTEX
8
CUT
10
46.909
20
112.145
30
0.000
0
VERTEX
8
CUT
10
45.321
20
107.453
30
0.000
0
VERTEX
8
CUT
10
44.058
20
101.842
30
0.000
0
VERTEX
8
CUT
10
43.318
20
95.745
30
0.000
0
VERTEX
8
CUT
10
43.300
20
89.968
30
0.000
0
VERTEX
8
CUT
10
44.080
20
85.707
30
0.000
0
VERTEX
8
CUT
10
45.716
20
83.464
30
0.000
0
VERTEX
8
CUT
10
46.768
20
83.272
30
0.000
0
VERTEX
8
CUT
10
47.808
20
83.707
30
0.000
0
VERTEX
8
CUT
10
50.386
20
87.447
30
0.000
0
VERTEX
8
CUT
10
61.914
20
114.845
30
0.000
0
VERTEX
8
CUT
10
62.828
20
116.463
30
0.000
0
VERTEX
8
CUT
10
63.334
20
116.575
30
0.000
0
VERTEX
8
CUT
10
63.706
20
108.976
30
0.000
0
VERTEX
8
CUT
10
62.932
20
80.686
30
0.000
0
VERTEX
8
CUT
10
58.860
20
9.249
30
0.000
0
VERTEX
8
CUT
10
59.737
20
7.607
30
0.000
0
VERTEX
8
CUT
10
61.399
20
7.167
30
0.000
0
VERTEX
8
CUT
10
61.399
20
4.000
30
0.000
0
VERTEX
8
CUT
10
75.444
20
4.000
30
0.000
0
SEQEND
8
CUT
0
POLYLINE
8
CUT
66
1
70
1
10
0.000
20
0.000
30
0.000
0
VERTEX
8
CUT
10
199.469
20
87.728
30
0.000
0
VERTEX
8
CUT
10
199.326
20
87.713
30
0.000
0
VERTEX
8
CUT
10
199.125
20
87.778
30
0.000
0
VERTEX
8
CUT
10
198.968
20
87.920
30
0.000
0
VERTEX
8
CUT
10
198.882
20
88.113
30
0.000
0
VERTEX
8
CUT
10
198.882
20
88.324
30
0.000
0
VERTEX
8
CUT
10
198.968
20
88.517
30
0.000
0
VERTEX
8
CUT
10
199.125
20
88.658
30
0.000
0
VERTEX
8
CUT
10
199.326
20
88.724
30
0.000
0
VERTEX
8
CUT
10
199.536
20
88.702
30
0.000
0
VERTEX
8
CUT
10
199.719
20
88.596
30
0.000
0
VERTEX
8
CUT
10
199.843
20
88.425
30
0.000
0
VERTEX
8
CUT
10
199.906
20
88.128
30
0.000
0
VERTEX
8
CUT
10
201.912
20
88.128
30
0.000
0
VERTEX
8
CUT
10
201.912
20
88.324
30
0.000
0
VERTEX
8
CUT
10
201.998
20
88.517
30
0.000
0
VERTEX
8
CUT
10
202.155
20
88.658
30
0.000
0
VERTEX
8
CUT
10
202.356
20
88.724
30
0.000
0
VERTEX
8
CUT
10
202.566
20
88.702
30
0.000
0
VERTEX
8
CUT
10
202.749
20
88.596
30
0.000
0
VERTEX
8
CUT
10
202.873
20
88.425
30
0.000
0
VERTEX
8
CUT
10
202.917
20
88.218
30
0.000
0
VERTEX
8
CUT
10
202.873
20
88.012
30
0.000
0
VERTEX
8
CUT
10
202.749
20
87.841
30
0.000
0
VERTEX
8
CUT
10
202.566
20
87.735
30
0.000
0
VERTEX
8
CUT
10
202.319
20
87.709
30
0.000
0
VERTEX
8
CUT
10
202.319
20
4.000
30
0.000
0
VERTEX
8
CUT
10
207.916
20
4.000
30
0.000
0
VERTEX
8
CUT
10
207.916
20
7.003
30
0.000
0
VERTEX
8
CUT
10
208.941
20
7.000
30
0.000
0
VERTEX
8
CUT
10
211.729
20
7.679
30
0.000
0
VERTEX
8
CUT
10
212.352
20
8.886
30
0.000
0
VERTEX
8
CUT
10
212.407
20
10.694
30
0.000
0
VERTEX
8
CUT
10
210.659
20
35.012
30
0.000
0
VERTEX
8
CUT
10
208.012
20
84.198
30
0.000
0
VERTEX
8
CUT
10
207.490
20
107.933
30
0.000
0
VERTEX
8
CUT
10
207.668
20
116.519
30
0.000
0
VERTEX
8
CUT
10
208.075
20
116.587
30
0.000
0
VERTEX
8
CUT
10
208.796
20
115.419
30
0.000
0
VERTEX
8
CUT
10
220.593
20
87.737
30
0.000
0
VERTEX
8
CUT
10
223.132
20
83.711
30
0.000
0
VERTEX
8
CUT
10
224.168
20
83.184
30
0.000
0
VERTEX
8
CUT
10
225.220
20
83.279
30
0.000
0
VERTEX
8
CUT
10
226.771
20
85.034
30
0.000
0
VERTEX
8
CUT
10
227.751
20
89.027
30
0.000
0
VERTEX
8
CUT
10
227.914
20
93.998
30
0.000
0
VERTEX
8
CUT
10
226.057
20
106.116
30
0.000
0
VERTEX
8
CUT
10
224.234
20
111.999
30
0.000
0
VERTEX
8
CUT
10
221.287
20
118.450
30
0.000
0
VERTEX
8
CUT
10
221.330
20
119.233
30
0.000
0
VERTEX
8
CUT
10
223.381
20
117.416
30
0.000
0
VERTEX
8
CUT
10
230.280
20
108.699
30
0.000
0
VERTEX
8
CUT
10
233.404
20
105.951
30
0.000
0
VERTEX
8
CUT
10
236.011
20
99.803
30
0.000
0
VERTEX
8
CUT
10
246.574
20
83.868
30
0.000
0
VERTEX
8
CUT
10
248.507
20
81.772
30
0.000
0
VERTEX
8
CUT
10
250.395
20
81.323
30
0.000
0
VERTEX
8
CUT
10
251.893
20
82.521
30
0.000
0
VERTEX
8
CUT
10
252.624
20
85.046
30
0.000
0
VERTEX
8
CUT
10
252.751
20
98.015
30
0.000
0
VERTEX
8
CUT
10
251.145
20
108.171
30
0.000
0
VERTEX
8
CUT
10
248.041
20
116.977
30
0.000
0
VERTEX
8
CUT
10
243.728
20
123.890
30
0.000
0
VERTEX
8
CUT
10
237.684
20
130.764
30
0.000
0
VERTEX
8
CUT
10
230.792
20
136.176
30
0.000
0
VERTEX
8
CUT
10
221.642
20
141.516
30
0.000
0
VERTEX
8
CUT
10
224.044
20
141.361
30
0.000
0
VERTEX
8
CUT
10
231.846
20
139.168
30
0.000
0
VERTEX
8
CUT
10
237.509
20
136.777
30
0.000
0
VERTEX
8
CUT
10
244.095
20
132.844
30
0.000
0
VERTEX
8
CUT
10
247.950
20
132.450
30
0.000
0
VERTEX
8
CUT
10
251.192
20
128.491
30
0.000
0
VERTEX
8
CUT
10
257.730
20
123.015
30
0.000
0
VERTEX
8
CUT
10
263.567
20
116.259
30
0.000
0
VERTEX
8
CUT
10
265.341
20
114.929
30
0.000
0
VERTEX
8
CUT
10
266.609
20
115.319
30
0.000
0
VERTEX
8
CUT
10
266.945
20
117.372
30
0.000
0
VERTEX
8
CUT
10
264.473
20
129.353
30
0.000
0
VERTEX
8
CUT
10
261.317
20
138.801
30
0.000
0
VERTEX
8
CUT
10
257.564
20
146.469
30
0.000
0
VERTEX
8
CUT
10
253.086
20
152.302
30
0.000
0
VERTEX
8
CUT
10
247.289
20
157.196
30
0.000
0
VERTEX
8
CUT
10
241.093
20
160.321
30
0.000
0
VERTEX
8
CUT
10
233.780
20
162.145
30
0.000
0
VERTEX
8
CUT
10
227.007
20
162.325
30
0.000
0
VERTEX
8
CUT
10
218.226
20
160.886
30
0.000
0
VERTEX
8
CUT
10
217.107
20
161.109
30
0.000
0
VERTEX
8
CUT
10
218.166
20
162.841
30
0.000
0
VERTEX
8
CUT
10
222.787
20
166.454
30
0.000
0
VERTEX
8
CUT
10
225.376
20
169.062
30
0.000
0
VERTEX
8
CUT
10
229.463
20
171.485
30
0.000
0
VERTEX
8
CUT
10
229.939
20
172.648
30
0.000
0
VERTEX
8
CUT
10
229.094
20
174.447
30
0.000
0
VERTEX
8
CUT
10
229.308
20
174.905
30
0.000
0
VERTEX
8
CUT
10
239.952
20
176.538
30
0.000
0
VERTEX
8
CUT
10
242.227
20
177.511
30
0.000
0
VERTEX
8
CUT
10
242.815
20
178.726
30
0.000
0
VERTEX
8
CUT
10
242.382
20
180.120
30
0.000
0
VERTEX
8
CUT
10
238.908
20
182.775
30
0.000
0
VERTEX
8
CUT
10
232.728
20
185.052
30
0.000
0
VERTEX
8
CUT
10
227.254
20
185.955
30
0.000
0
VERTEX
8
CUT
10
220.104
20
185.775
30
0.000
0
VERTEX
8
CUT
10
214.714
20
184.509
30
0.000
0
VERTEX
8
CUT
10
211.665
20
182.712
30
0.000
0
VERTEX
8
CUT
10
209.076
20
179.978
30
0.000
0
VERTEX
8
CUT
10
206.439
20
175.987
30
0.000
0
VERTEX
8
CUT
10
202.696
20
168.573
30
0.000
0
VERTEX
8
CUT
10
202.028
20
167.873
30
0.000
0
VERTEX
8
CUT
10
201.386
20
168.467
30
0.000
0
VERTEX
8
CUT
10
198.204
20
175.425
30
0.000
0
VERTEX
8
CUT
10
194.395
20
181.941
30
0.000
0
VERTEX
8
CUT
10
191.529
20
184.662
30
0.000
0
VERTEX
8
CUT
10
187.595
20
186.511
30
0.000
0
VERTEX
8
CUT
10
182.309
20
187.181
30
0.000
0
VERTEX
8
CUT
10
175.085
20
186.061
30
0.000
0
VERTEX
8
CUT
10
166.801
20
183.282
30
0.000
0
VERTEX
8
CUT
10
161.945
20
180.256
30
0.000
0
VERTEX
8
CUT
10
160.708
20
178.023
30
0.000
0
VERTEX
8
CUT
10
161.016
20
177.023
30
0.000
0
VERTEX
8
CUT
10
162.009
20
176.235
30
0.000
0
VERTEX
8
CUT
10
164.218
20
175.797
30
0.000
0
VERTEX
8
CUT
10
171.762
20
175.617
30
0.000
0
VERTEX
8
CUT
10
173.945
20
175.054
30
0.000
0
VERTEX
8
CUT
10
174.163
20
174.602
30
0.000
0
VERTEX
8
CUT
10
173.587
20
172.837
30
0.000
0
VERTEX
8
CUT
10
174.030
20
171.894
30
0.000
0
VERTEX
8
CUT
10
178.165
20
169.907
30
0.000
0
VERTEX
8
CUT
10
180.555
20
166.924
30
0.000
0
VERTEX
8
CUT
10
186.532
20
162.513
30
0.000
0
VERTEX
8
CUT
10
187.721
20
160.855
30
0.000
0
VERTEX
8
CUT
10
186.704
20
160.652
30
0.000
0
VERTEX
8
CUT
10
176.750
20
162.326
30
0.000
0
VERTEX
8
CUT
10
169.220
20
161.910
30
0.000
0
VERTEX
8
CUT
10
160.267
20
159.347
30
0.000
0
VERTEX
8
CUT
10
156.579
20
157.394
30
0.000
0
VERTEX
8
CUT
10
153.234
20
154.882
30
0.000
0
VERTEX
8
CUT
10
147.566
20
148.744
30
0.000
0
VERTEX
8
CUT
10
143.127
20
140.749
30
0.000
0
VERTEX
8
CUT
10
138.151
20
126.652
30
0.000
0
VERTEX
8
CUT
10
136.527
20
118.911
30
0.000
0
VERTEX
8
CUT
10
136.472
20
115.967
30
0.000
0
VERTEX
8
CUT
10
137.566
20
114.778
30
0.000
0
VERTEX
8
CUT
10
139.247
20
115.458
30
0.000
0
VERTEX
8
CUT
10
144.768
20
121.863
30
0.000
0
VERTEX
8
CUT
10
152.117
20
128.257
30
0.000
0
VERTEX
8
CUT
10
154.948
20
131.623
30
0.000
0
VERTEX
8
CUT
10
157.288
20
130.985
30
0.000
0
VERTEX
8
CUT
10
158.727
20
131.188
30
0.000
0
VERTEX
8
CUT
10
171.614
20
138.379
30
0.000
0
VERTEX
8
CUT
10
177.345
20
140.553
30
0.000
0
VERTEX
8
CUT
10
179.573
20
140.929
30
0.000
0
VERTEX
8
CUT
10
171.324
20
135.579
30
0.000
0
VERTEX
8
CUT
10
165.587
20
130.636
30
0.000
0
VERTEX
8
CUT
10
159.580
20
123.691
30
0.000
0
VERTEX
8
CUT
10
155.610
20
117.266
30
0.000
0
VERTEX
8
CUT
10
153.082
20
110.786
30
0.000
0
VERTEX
8
CUT
10
151.062
20
100.902
30
0.000
0
VERTEX
8
CUT
10
150.557
20
91.776
30
0.000
0
VERTEX
8
CUT
10
151.135
20
83.866
30
0.000
0
VERTEX
8
CUT
10
151.927
20
82.061
30
0.000
0
VERTEX
8
CUT
10
153.132
20
81.327
30
0.000
0
VERTEX
8
CUT
10
154.558
20
81.552
30
0.000
0
VERTEX
8
CUT
10
156.118
20
82.836
30
0.000
0
VERTEX
8
CUT
10
167.530
20
99.820
30
0.000
0
VERTEX
8
CUT
10
170.174
20
105.663
30
0.000
0
VERTEX
8
CUT
10
173.245
20
108.484
30
0.000
0
VERTEX
8
CUT
10
180.342
20
117.525
30
0.000
0
VERTEX
8
CUT
10
182.599
20
119.647
30
0.000
0
VERTEX
8
CUT
10
182.599
20
118.903
30
0.000
0
VERTEX
8
CUT
10
179.381
20
112.145
30
0.000
0
VERTEX
8
CUT
10
177.793
20
107.453
30
0.000
0
VERTEX
8
CUT
10
176.530
20
101.842
30
0.000
0
VERTEX
8
CUT
10
175.791
20
95.745
30
0.000
0
VERTEX
8
CUT
10
175.773
20
89.968
30
0.000
0
VERTEX
8
CUT
10
176.552
20
85.707
30
0.000
0
VERTEX
8
CUT
10
178.188
20
83.464
30
0.000
0
VERTEX
8
CUT
10
179.241
20
83.272
30
0.000
0
VERTEX
8
CUT
10
180.280
20
83.707
30
0.000
0
VERTEX
8
CUT
10
182.858
20
87.447
30
0.000
0
VERTEX
8
CUT
10
194.387
20
114.845
30
0.000
0
VERTEX
8
CUT
10
195.301
20
116.463
30
0.000
0
VERTEX
8
CUT
10
195.806
20
116.575
30
0.000
0
VERTEX
8
CUT
10
196.179
20
108.976
30
0.000
0
VERTEX
8
CUT
10
195.404
20
80.686
30
0.000
0
VERTEX
8
CUT
10
191.333
20
9.249
30
0.000
0
VERTEX
8
CUT
10
192.209
20
7.607
30
0.000
0
VERTEX
8
CUT
10
193.871
20
7.167
30
0.000
0
VERTEX
8
CUT
10
193.871
20
4.000
30
0.000
0
VERTEX
8
CUT
10
199.469
20
4.000
30
0.000
0
SEQEND
8
CUT
0
POLYLINE
8
CUT
66
1
70
1
10
0.000
20
0.000
30
0.000
0
VERTEX
8
CUT
10
30.910
20
216.129
30
0.000
0
VERTEX
8
CUT
10
25.478
20
216.129
30
0.000
0
VERTEX
8
CUT
10
25.478
20
218.979
30
0.000
0
VERTEX
8
CUT
10
30.910
20
218.979
30
0.000
0
VERTEX
8
CUT
10
30.910
20
224.411
30
0.000
0
VERTEX
8
CUT
10
33.760
20
224.411
30
0.000
0
VERTEX
8
CUT
10
33.760
20
218.979
30
0.000
0
VERTEX
8
CUT
10
39.193
20
218.979
30
0.000
0
VERTEX
8
CUT
10
39.193
20
216.129
30
0.000
0
VERTEX
8
CUT
10
33.760
20
216.129
30
0.000
0
VERTEX
8
CUT
10
33.760
20
210.696
30
0.000
0
VERTEX
8
CUT
10
30.910
20
210.696
30
0.000
0
SEQEND
8
CUT
0
POLYLINE
8
CUT
66
1
70
1
10
0.000
20
0.000
30
0.000
0
VERTEX
8
CUT
10
36.526
20
189.480
30
0.000
0
VERTEX
8
CUT
10
39.817
20
190.172
30
0.000
0
VERTEX
8
CUT
10
43.003
20
191.249
30
0.000
0
VERTEX
8
CUT
10
46.039
20
192.696
30
0.000
0
VERTEX
8
CUT
10
48.883
20
194.491
30
0.000
0
VERTEX
8
CUT
10
51.495
20
196.610
30
0.000
0
VERTEX
8
CUT
10
53.837
20
199.023
30
0.000
0
VERTEX
8
CUT
10
55.878
20
201.696
30
0.000
0
VERTEX
8
CUT
10
57.588
20
204.592
30
0.000
0
VERTEX
8
CUT
10
58.944
20
207.670
30
0.000
0
VERTEX
8
CUT
10
59.926
20
210.886
30
0.000
0
VERTEX
8
CUT
10
60.521
20
214.196
30
0.000
0
VERTEX
8
CUT
10
60.720
20
217.554
30
0.000
0
VERTEX
8
CUT
10
60.521
20
220.911
30
0.000
0
VERTEX
8
CUT
10
59.926
20
224.221
30
0.000
0
VERTEX
8
CUT
10
58.944
20
227.437
30
0.000
0
VERTEX
8
CUT
10
57.588
20
230.515
30
0.000
0
VERTEX
8
CUT
10
55.878
20
233.411
30
0.000
0
VERTEX
8
CUT
10
53.837
20
236.084
30
0.000
0
VERTEX
8
CUT
10
51.495
20
238.497
30
0.000
0
VERTEX
8
CUT
10
48.883
20
240.616
30
0.000
0
VERTEX
8
CUT
10
46.039
20
242.411
30
0.000
0
VERTEX
8
CUT
10
43.003
20
243.858
30
0.000
0
VERTEX
8
CUT
10
39.817
20
244.935
30
0.000
0
VERTEX
8
CUT
10
36.526
20
245.628
30
0.000
0
VERTEX
8
CUT
10
33.176
20
245.926
30
0.000
0
VERTEX
8
CUT
10
29.815
20
245.827
30
0.000
0
VERTEX
8
CUT
10
26.489
20
245.330
30
0.000
0
VERTEX
8
CUT
10
23.244
20
244.444
30
0.000
0
VERTEX
8
CUT
10
20.128
20
243.180
30
0.000
0
VERTEX
8
CUT
10
17.183
20
241.556
30
0.000
0
VERTEX
8
CUT
10
14.450
20
239.595
30
0.000
0
VERTEX
8
CUT
10
11.969
20
237.325
30
0.000
0
VERTEX
8
CUT
10
9.773
20
234.778
30
0.000
0
VERTEX
8
CUT
10
7.894
20
231.988
30
0.000
0
VERTEX
8
CUT
10
6.359
20
228.996
30
0.000
0
VERTEX
8
CUT
10
5.188
20
225.844
30
0.000
0
VERTEX
8
CUT
10
4.398
20
222.575
30
0.000
0
VERTEX
8
CUT
10
4.000
20
219.235
30
0.000
0
VERTEX
8
CUT
10
4.000
20
215.872
30
0.000
0
VERTEX
8
CUT
10
4.398
20
212.533
30
0.000
0
VERTEX
8
CUT
10
5.188
20
209.263
30
0.000
0
VERTEX
8
CUT
10
6.359
20
206.111
30
0.000
0
VERTEX
8
CUT
10
7.894
20
203.119
30
0.000
0
VERTEX
8
CUT
10
9.773
20
200.329
30
0.000
0
VERTEX
8
CUT
10
11.969
20
197.782
30
0.000
0
VERTEX
8
CUT
10
14.450
20
195.512
30
0.000
0
VERTEX
8
CUT
10
17.183
20
193.551
30
0.000
0
VERTEX
8
CUT
10
20.128
20
191.928
30
0.000
0
VERTEX
8
CUT
10
23.244
20
190.664
30
0.000
0
VERTEX
8
CUT
10
26.489
20
189.777
30
0.000
0
VERTEX
8
CUT
10
29.815
20
189.281
30
0.000
0
VERTEX
8
CUT
10
33.176
20
189.181
30
0.000
0
SEQEND
8
CUT
0
ENDSEC
0
EOF
