0
SECTION
2
HEADER
9
$ACADVER
1
AC1009
9
$INSUNITS
70
4
9
$MEASUREMENT
70
1
9
$EXTMIN
10
0.000
20
0.000
30
0.000
9
$EXTMAX
10
310.000
20
250.000
30
0.000
0
ENDSEC
0
SECTION
2
TABLES
0
TABLE
2
LAYER
70
2
0
LAYER
2
CUT
70
0
62
1
6
CONTINUOUS
0
LAYER
2
ENGRAVE
70
0
62
5
6
CONTINUOUS
0
ENDTAB
0
ENDSEC
0
SECTION
2
ENTITIES
0
POLYLINE
8
CUT
66
1
70
1
10
0.000
20
0.000
30
0.000
0
VERTEX
8
CUT
10
59.518
20
96.592
30
0.000
0
VERTEX
8
CUT
10
59.375
20
96.577
30
0.000
0
VERTEX
8
CUT
10
59.174
20
96.642
30
0.000
0
VERTEX
8
CUT
10
59.017
20
96.784
30
0.000
0
VERTEX
8
CUT
10
58.931
20
96.977
30
0.000
0
VERTEX
8
CUT
10
58.931
20
97.188
30
0.000
0
VERTEX
8
CUT
10
59.017
20
97.381
30
0.000
0
VERTEX
8
CUT
10
59.174
20
97.522
30
0.000
0
VERTEX
8
CUT
10
59.375
20
97.587
30
0.000
0
VERTEX
8
CUT
10
59.585
20
97.565
30
0.000
0
VERTEX
8
CUT
10
59.768
20
97.460
30
0.000
0
VERTEX
8
CUT
10
59.892
20
97.289
30
0.000
0
VERTEX
8
CUT
10
59.955
20
96.992
30
0.000
0
VERTEX
8
CUT
10
61.961
20
96.992
30
0.000
0
VERTEX
8
CUT
10
61.961
20
97.188
30
0.000
0
VERTEX
8
CUT
10
62.047
20
97.381
30
0.000
0
VERTEX
8
CUT
10
62.204
20
97.522
30
0.000
0
VERTEX
8
CUT
10
62.405
20
97.587
30
0.000
0
VERTEX
8
CUT
10
62.615
20
97.565
30
0.000
0
VERTEX
8
CUT
10
62.798
20
97.460
30
0.000
0
VERTEX
8
CUT
10
62.922
20
97.289
30
0.000
0
VERTEX
8
CUT
10
62.966
20
97.082
30
0.000
0
VERTEX
8
CUT
10
62.922
20
96.876
30
0.000
0
VERTEX
8
CUT
10
62.798
20
96.705
30
0.000
0
VERTEX
8
CUT
10
62.615
20
96.599
30
0.000
0
VERTEX
8
CUT
10
62.368
20
96.573
30
0.000
0
VERTEX
8
CUT
10
62.368
20
4.000
30
0.000
0
VERTEX
8
CUT
10
66.529
20
4.000
30
0.000
0
VERTEX
8
CUT
10
66.529
20
7.127
30
0.000
0
VERTEX
8
CUT
10
68.771
20
7.753
30
0.000
0
VERTEX
8
CUT
10
69.666
20
9.152
30
0.000
0
VERTEX
8
CUT
10
69.977
20
11.417
30
0.000
0
VERTEX
8
CUT
10
69.345
20
36.151
30
0.000
0
VERTEX
8
CUT
10
69.633
20
43.225
30
0.000
0
VERTEX
8
CUT
10
70.382
20
44.948
30
0.000
0
VERTEX
8
CUT
10
72.806
20
45.194
30
0.000
0
VERTEX
8
CUT
10
100.901
20
39.402
30
0.000
0
VERTEX
8
CUT
10
109.761
20
38.317
30
0.000
0
VERTEX
8
CUT
10
113.073
20
38.736
30
0.000
0
VERTEX
8
CUT
10
115.667
20
40.069
30
0.000
0
VERTEX
8
CUT
10
117.353
20
42.141
30
0.000
0
VERTEX
8
CUT
10
117.885
20
44.728
30
0.000
0
VERTEX
8
CUT
10
117.226
20
47.146
30
0.000
0
VERTEX
8
CUT
10
115.372
20
49.945
30
0.000
0
VERTEX
8
CUT
10
101.795
20
63.703
30
0.000
0
VERTEX
8
CUT
10
97.397
20
69.092
30
0.000
0
VERTEX
8
CUT
10
95.684
20
71.894
30
0.000
0
VERTEX
8
CUT
10
95.747
20
72.479
30
0.000
0
VERTEX
8
CUT
10
96.326
20
72.720
30
0.000
0
VERTEX
8
CUT
10
102.401
20
72.107
30
0.000
0
VERTEX
8
CUT
10
106.011
20
72.855
30
0.000
0
VERTEX
8
CUT
10
108.590
20
75.086
30
0.000
0
VERTEX
8
CUT
10
109.254
20
76.672
30
0.000
0
VERTEX
8
CUT
10
109.364
20
78.381
30
0.000
0
VERTEX
8
CUT
10
108.761
20
80.609
30
0.000
0
VERTEX
8
CUT
10
107.342
20
82.992
30
0.000
0
VERTEX
8
CUT
10
95.427
20
96.370
30
0.000
0
VERTEX
8
CUT
10
91.299
20
102.211
30
0.000
0
VERTEX
8
CUT
10
88.585
20
106.955
30
0.000
0
VERTEX
8
CUT
10
88.518
20
107.719
30
0.000
0
VERTEX
8
CUT
10
88.925
20
108.063
30
0.000
0
VERTEX
8
CUT
10
93.380
20
107.793
30
0.000
0
VERTEX
8
CUT
10
96.357
20
108.597
30
0.000
0
VERTEX
8
CUT
10
98.161
20
110.217
30
0.000
0
VERTEX
8
CUT
10
98.824
20
112.502
30
0.000
0
VERTEX
8
CUT
10
98.347
20
114.740
30
0.000
0
VERTEX
8
CUT
10
96.983
20
117.141
30
0.000
0
VERTEX
8
CUT
10
85.033
20
131.601
30
0.000
0
VERTEX
8
CUT
10
80.426
20
139.141
30
0.000
0
VERTEX
8
CUT
10
80.359
20
139.906
30
0.000
0
VERTEX
8
CUT
10
80.790
20
140.304
30
0.000
0
VERTEX
8
CUT
10
85.271
20
140.448
30
0.000
0
VERTEX
8
CUT
10
87.734
20
141.698
30
0.000
0
VERTEX
8
CUT
10
88.861
20
143.971
30
0.000
0
VERTEX
8
CUT
10
88.366
20
146.942
30
0.000
0
VERTEX
8
CUT
10
86.603
20
149.813
30
0.000
0
VERTEX
8
CUT
10
78.660
20
159.815
30
0.000
0
VERTEX
8
CUT
10
74.676
20
165.782
30
0.000
0
VERTEX
8
CUT
10
64.834
20
185.031
30
0.000
0
VERTEX
8
CUT
10
63.477
20
186.407
30
0.000
0
VERTEX
8
CUT
10
61.782
20
187.181
30
0.000
0
VERTEX
8
CUT
10
59.937
20
187.125
30
0.000
0
VERTEX
8
CUT
10
58.259
20
186.314
30
0.000
0
VERTEX
8
CUT
10
56.055
20
183.600
30
0.000
0
VERTEX
8
CUT
10
51.738
20
174.224
30
0.000
0
VERTEX
8
CUT
10
46.687
20
164.989
30
0.000
0
VERTEX
8
CUT
10
41.818
20
157.956
30
0.000
0
VERTEX
8
CUT
10
34.847
20
149.216
30
0.000
0
VERTEX
8
CUT
10
33.191
20
146.122
30
0.000
0
VERTEX
8
CUT
10
33.063
20
143.529
30
0.000
0
VERTEX
8
CUT
10
34.283
20
141.532
30
0.000
0
VERTEX
8
CUT
10
36.834
20
140.412
30
0.000
0
VERTEX
8
CUT
10
41.114
20
140.304
30
0.000
0
VERTEX
8
CUT
10
41.526
20
139.924
30
0.000
0
VERTEX
8
CUT
10
41.460
20
139.159
30
0.000
0
VERTEX
8
CUT
10
36.583
20
131.294
30
0.000
0
VERTEX
8
CUT
10
24.903
20
117.159
30
0.000
0
VERTEX
8
CUT
10
23.538
20
114.740
30
0.000
0
VERTEX
8
CUT
10
23.061
20
112.521
30
0.000
0
VERTEX
8
CUT
10
23.633
20
110.383
30
0.000
0
VERTEX
8
CUT
10
25.363
20
108.671
30
0.000
0
VERTEX
8
CUT
10
28.288
20
107.793
30
0.000
0
VERTEX
8
CUT
10
32.975
20
108.063
30
0.000
0
VERTEX
8
CUT
10
33.416
20
107.638
30
0.000
0
VERTEX
8
CUT
10
33.160
20
106.548
30
0.000
0
VERTEX
8
CUT
10
27.052
20
97.179
30
0.000
0
VERTEX
8
CUT
10
23.140
20
92.402
30
0.000
0
VERTEX
8
CUT
10
15.647
20
84.422
30
0.000
0
VERTEX
8
CUT
10
13.797
20
81.828
30
0.000
0
VERTEX
8
CUT
10
12.778
20
79.497
30
0.000
0
VERTEX
8
CUT
10
12.539
20
77.592
30
0.000
0
VERTEX
8
CUT
10
12.888
20
75.902
30
0.000
0
VERTEX
8
CUT
10
13.752
20
74.450
30
0.000
0
VERTEX
8
CUT
10
15.223
20
73.218
30
0.000
0
VERTEX
8
CUT
10
19.120
20
72.161
30
0.000
0
VERTEX
8
CUT
10
25.696
20
72.702
30
0.000
0
VERTEX
8
CUT
10
26.182
20
72.420
30
0.000
0
VERTEX
8
CUT
10
26.117
20
71.654
30
0.000
0
VERTEX
8
CUT
10
19.674
20
63.214
30
0.000
0
VERTEX
8
CUT
10
6.350
20
49.745
30
0.000
0
VERTEX
8
CUT
10
4.476
20
46.708
30
0.000
0
VERTEX
8
CUT
10
4.000
20
44.087
30
0.000
0
VERTEX
8
CUT
10
4.826
20
41.572
30
0.000
0
VERTEX
8
CUT
10
6.713
20
39.685
30
0.000
0
VERTEX
8
CUT
10
9.233
20
38.626
30
0.000
0
VERTEX
8
CUT
10
12.578
20
38.299
30
0.000
0
VERTEX
8
CUT
10
21.996
20
39.564
30
0.000
0
VERTEX
8
CUT
10
49.099
20
45.230
30
0.000
0
VERTEX
8
CUT
10
51.293
20
45.072
30
0.000
0
VERTEX
8
CUT
10
52.253
20
43.293
30
0.000
0
VERTEX
8
CUT
10
52.559
20
36.638
30
0.000
0
VERTEX
8
CUT
10
51.891
20
15.105
30
0.000
0
VERTEX
8
CUT
10
51.981
20
10.707
30
0.000
0
VERTEX
8
CUT
10
52.440
20
8.724
30
0.000
0
VERTEX
8
CUT
10
53.705
20
7.440
30
0.000
0
VERTEX
8
CUT
10
55.357
20
7.118
30
0.000
0
VERTEX
8
CUT
10
55.357
20
4.000
30
0.000
0
VERTEX
8
CUT
10
59.518
20
4.000
30
0.000
0
SEQEND
8
CUT
0
POLYLINE
8
CUT
66
1
70
1
10
0.000
20
0.000
30
0.000
0
VERTEX
8
CUT
10
182.415
20
7.127
30
0.000
0
VERTEX
8
CUT
10
184.656
20
7.753
30
0.000
0
VERTEX
8
CUT
10
185.552
20
9.152
30
0.000
0
VERTEX
8
CUT
10
185.863
20
11.417
30
0.000
0
VERTEX
8
CUT
10
185.231
20
36.151
30
0.000
0
VERTEX
8
CUT
10
185.519
20
43.225
30
0.000
0
VERTEX
8
CUT
10
186.267
20
44.948
30
0.000
0
VERTEX
8
CUT
10
188.692
20
45.194
30
0.000
0
VERTEX
8
CUT
10
216.787
20
39.402
30
0.000
0
VERTEX
8
CUT
10
225.646
20
38.317
30
0.000
0
VERTEX
8
CUT
10
228.958
20
38.736
30
0.000
0
VERTEX
8
CUT
10
231.552
20
40.069
30
0.000
0
VERTEX
8
CUT
10
233.239
20
42.141
30
0.000
0
VERTEX
8
CUT
10
233.771
20
44.728
30
0.000
0
VERTEX
8
CUT
10
233.112
20
47.146
30
0.000
0
VERTEX
8
CUT
10
231.258
20
49.945
30
0.000
0
VERTEX
8
CUT
10
217.681
20
63.703
30
0.000
0
VERTEX
8
CUT
10
213.283
20
69.092
30
0.000
0
VERTEX
8
CUT
10
211.569
20
71.894
30
0.000
0
VERTEX
8
CUT
10
211.632
20
72.479
30
0.000
0
VERTEX
8
CUT
10
212.212
20
72.720
30
0.000
0
VERTEX
8
CUT
10
218.286
20
72.107
30
0.000
0
VERTEX
8
CUT
10
221.897
20
72.855
30
0.000
0
VERTEX
8
CUT
10
224.475
20
75.086
30
0.000
0
VERTEX
8
CUT
10
225.139
20
76.672
30
0.000
0
VERTEX
8
CUT
10
225.249
20
78.381
30
0.000
0
VERTEX
8
CUT
10
224.647
20
80.609
30
0.000
0
VERTEX
8
CUT
10
223.228
20
82.992
30
0.000
0
VERTEX
8
CUT
10
211.312
20
96.370
30
0.000
0
VERTEX
8
CUT
10
207.184
20
102.211
30
0.000
0
VERTEX
8
CUT
10
204.470
20
106.955
30
0.000
0
VERTEX
8
CUT
10
204.404
20
107.719
30
0.000
0
VERTEX
8
CUT
10
204.810
20
108.063
30
0.000
0
VERTEX
8
CUT
10
209.265
20
107.793
30
0.000
0
VERTEX
8
CUT
10
212.243
20
108.597
30
0.000
0
VERTEX
8
CUT
10
214.047
20
110.217
30
0.000
0
VERTEX
8
CUT
10
214.710
20
112.502
30
0.000
0
VERTEX
8
CUT
10
214.233
20
114.740
30
0.000
0
VERTEX
8
CUT
10
212.868
20
117.141
30
0.000
0
VERTEX
8
CUT
10
200.918
20
131.601
30
0.000
0
VERTEX
8
CUT
10
196.311
20
139.141
30
0.000
0
VERTEX
8
CUT
10
196.245
20
139.906
30
0.000
0
VERTEX
8
CUT
10
196.675
20
140.304
30
0.000
0
VERTEX
8
CUT
10
201.156
20
140.448
30
0.000
0
VERTEX
8
CUT
10
203.619
20
141.698
30
0.000
0
VERTEX
8
CUT
10
204.747
20
143.971
30
0.000
0
VERTEX
8
CUT
10
204.252
20
146.942
30
0.000
0
VERTEX
8
CUT
10
202.489
20
149.813
30
0.000
0
VERTEX
8
CUT
10
194.545
20
159.815
30
0.000
0
VERTEX
8
CUT
10
190.561
20
165.782
30
0.000
0
VERTEX
8
CUT
10
180.720
20
185.031
30
0.000
0
VERTEX
8
CUT
10
179.363
20
186.407
30
0.000
0
VERTEX
8
CUT
10
178.253
20
186.913
30
0.000
0
VERTEX
8
CUT
10
178.253
20
97.591
30
0.000
0
VERTEX
8
CUT
10
178.500
20
97.565
30
0.000
0
VERTEX
8
CUT
10
178.683
20
97.460
30
0.000
0
VERTEX
8
CUT
10
178.807
20
97.289
30
0.000
0
VERTEX
8
CUT
10
178.851
20
97.082
30
0.000
0
VERTEX
8
CUT
10
178.807
20
96.876
30
0.000
0
VERTEX
8
CUT
10
178.683
20
96.705
30
0.000
0
VERTEX
8
CUT
10
178.500
20
96.599
30
0.000
0
VERTEX
8
CUT
10
178.290
20
96.577
30
0.000
0
VERTEX
8
CUT
10
178.089
20
96.642
30
0.000
0
VERTEX
8
CUT
10
177.932
20
96.784
30
0.000
0
VERTEX
8
CUT
10
177.846
20
96.977
30
0.000
0
VERTEX
8
CUT
10
177.846
20
97.172
30
0.000
0
VERTEX
8
CUT
10
175.840
20
97.172
30
0.000
0
VERTEX
8
CUT
10
175.777
20
96.876
30
0.000
0
VERTEX
8
CUT
10
175.653
20
96.705
30
0.000
0
VERTEX
8
CUT
10
175.470
20
96.599
30
0.000
0
VERTEX
8
CUT
10
175.260
20
96.577
30
0.000
0
VERTEX
8
CUT
10
175.059
20
96.642
30
0.000
0
VERTEX
8
CUT
10
174.902
20
96.784
30
0.000
0
VERTEX
8
CUT
10
174.816
20
96.977
30
0.000
0
VERTEX
8
CUT
10
174.816
20
97.188
30
0.000
0
VERTEX
8
CUT
10
174.902
20
97.381
30
0.000
0
VERTEX
8
CUT
10
175.059
20
97.522
30
0.000
0
VERTEX
8
CUT
10
175.260
20
97.587
30
0.000
0
VERTEX
8
CUT
10
175.403
20
97.572
30
0.000
0
VERTEX
8
CUT
10
175.403
20
186.922
30
0.000
0
VERTEX
8
CUT
10
174.145
20
186.314
30
0.000
0
VERTEX
8
CUT
10
171.941
20
183.600
30
0.000
0
VERTEX
8
CUT
10
167.623
20
174.224
30
0.000
0
VERTEX
8
CUT
10
162.573
20
164.989
30
0.000
0
VERTEX
8
CUT
10
157.704
20
157.956
30
0.000
0
VERTEX
8
CUT
10
150.733
20
149.216
30
0.000
0
VERTEX
8
CUT
10
149.077
20
146.122
30
0.000
0
VERTEX
8
CUT
10
148.948
20
143.529
30
0.000
0
VERTEX
8
CUT
10
150.169
20
141.532
30
0.000
0
VERTEX
8
CUT
10
152.720
20
140.412
30
0.000
0
VERTEX
8
CUT
10
157.000
20
140.304
30
0.000
0
VERTEX
8
CUT
10
157.412
20
139.924
30
0.000
0
VERTEX
8
CUT
10
157.345
20
139.159
30
0.000
0
VERTEX
8
CUT
10
152.468
20
131.294
30
0.000
0
VERTEX
8
CUT
10
140.788
20
117.159
30
0.000
0
VERTEX
8
CUT
10
139.424
20
114.740
30
0.000
0
VERTEX
8
CUT
10
138.947
20
112.521
30
0.000
0
VERTEX
8
CUT
10
139.518
20
110.383
30
0.000
0
VERTEX
8
CUT
10
141.248
20
108.671
30
0.000
0
VERTEX
8
CUT
10
144.173
20
107.793
30
0.000
0
VERTEX
8
CUT
10
148.861
20
108.063
30
0.000
0
VERTEX
8
CUT
10
149.301
20
107.638
30
0.000
0
VERTEX
8
CUT
10
149.046
20
106.548
30
0.000
0
VERTEX
8
CUT
10
142.938
20
97.179
30
0.000
0
VERTEX
8
CUT
10
139.026
20
92.402
30
0.000
0
VERTEX
8
CUT
10
131.533
20
84.422
30
0.000
0
VERTEX
8
CUT
10
129.683
20
81.828
30
0.000
0
VERTEX
8
CUT
10
128.663
20
79.497
30
0.000
0
VERTEX
8
CUT
10
128.425
20
77.592
30
0.000
0
VERTEX
8
CUT
10
128.774
20
75.902
30
0.000
0
VERTEX
8
CUT
10
129.638
20
74.450
30
0.000
0
VERTEX
8
CUT
10
131.109
20
73.218
30
0.000
0
VERTEX
8
CUT
10
135.006
20
72.161
30
0.000
0
VERTEX
8
CUT
10
141.582
20
72.702
30
0.000
0
VERTEX
8
CUT
10
142.068
20
72.420
30
0.000
0
VERTEX
8
CUT
10
142.003
20
71.654
30
0.000
0
VERTEX
8
CUT
10
135.560
20
63.214
30
0.000
0
VERTEX
8
CUT
10
122.235
20
49.745
30
0.000
0
VERTEX
8
CUT
10
120.362
20
46.708
30
0.000
0
VERTEX
8
CUT
10
119.885
20
44.087
30
0.000
0
VERTEX
8
CUT
10
120.712
20
41.572
30
0.000
0
VERTEX
8
CUT
10
122.598
20
39.685
30
0.000
0
VERTEX
8
CUT
10
125.118
20
38.626
30
0.000
0
VERTEX
8
CUT
10
128.464
20
38.299
30
0.000
0
VERTEX
8
CUT
10
137.881
20
39.564
30
0.000
0
VERTEX
8
CUT
10
164.984
20
45.230
30
0.000
0
VERTEX
8
CUT
10
167.179
20
45.072
30
0.000
0
VERTEX
8
CUT
10
168.138
20
43.293
30
0.000
0
VERTEX
8
CUT
10
168.444
20
36.638
30
0.000
0
VERTEX
8
CUT
10
167.776
20
15.105
30
0.000
0
VERTEX
8
CUT
10
167.867
20
10.707
30
0.000
0
VERTEX
8
CUT
10
168.326
20
8.724
30
0.000
0
VERTEX
8
CUT
10
169.591
20
7.440
30
0.000
0
VERTEX
8
CUT
10
171.242
20
7.118
30
0.000
0
VERTEX
8
CUT
10
171.242
20
4.000
30
0.000
0
VERTEX
8
CUT
10
182.415
20
4.000
30
0.000
0
SEQEND
8
CUT
0
POLYLINE
8
CUT
66
1
70
1
10
0.000
20
0.000
30
0.000
0
VERTEX
8
CUT
10
262.837
20
31.103
30
0.000
0
VERTEX
8
CUT
10
258.840
20
31.103
30
0.000
0
VERTEX
8
CUT
10
258.840
20
33.953
30
0.000
0
VERTEX
8
CUT
10
262.837
20
33.953
30
0.000
0
VERTEX
8
CUT
10
262.837
20
37.949
30
0.000
0
VERTEX
8
CUT
10
265.687
20
37.949
30
0.000
0
VERTEX
8
CUT
10
265.687
20
33.953
30
0.000
0
VERTEX
8
CUT
10
269.683
20
33.953
30
0.000
0
VERTEX
8
CUT
10
269.683
20
31.103
30
0.000
0
VERTEX
8
CUT
10
265.687
20
31.103
30
0.000
0
VERTEX
8
CUT
10
265.687
20
27.107
30
0.000
0
VERTEX
8
CUT
10
262.837
20
27.107
30
0.000
0
SEQEND
8
CUT
0
POLYLINE
8
CUT
66
1
70
1
10
0.000
20
0.000
30
0.000
0
VERTEX
8
CUT
10
268.475
20
4.300
30
0.000
0
VERTEX
8
CUT
10
271.784
20
4.997
30
0.000
0
VERTEX
8
CUT
10
274.988
20
6.080
30
0.000
0
VERTEX
8
CUT
10
278.041
20
7.534
30
0.000
0
VERTEX
8
CUT
10
280.900
20
9.339
30
0.000
0
VERTEX
8
CUT
10
283.526
20
11.470
30
0.000
0
VERTEX
8
CUT
10
285.881
20
13.896
30
0.000
0
VERTEX
8
CUT
10
287.933
20
16.584
30
0.000
0
VERTEX
8
CUT
10
289.653
20
19.496
30
0.000
0
VERTEX
8
CUT
10
291.016
20
22.590
30
0.000
0
VERTEX
8
CUT
10
292.004
20
25.824
30
0.000
0
VERTEX
8
CUT
10
292.602
20
29.153
30
0.000
0
VERTEX
8
CUT
10
292.802
20
32.528
30
0.000
0
VERTEX
8
CUT
10
292.602
20
35.904
30
0.000
0
VERTEX
8
CUT
10
292.004
20
39.232
30
0.000
0
VERTEX
8
CUT
10
291.016
20
42.466
30
0.000
0
VERTEX
8
CUT
10
289.653
20
45.561
30
0.000
0
VERTEX
8
CUT
10
287.933
20
48.472
30
0.000
0
VERTEX
8
CUT
10
285.881
20
51.160
30
0.000
0
VERTEX
8
CUT
10
283.526
20
53.586
30
0.000
0
VERTEX
8
CUT
10
280.900
20
55.717
30
0.000
0
VERTEX
8
CUT
10
278.041
20
57.522
30
0.000
0
VERTEX
8
CUT
10
274.988
20
58.976
30
0.000
0
VERTEX
8
CUT
10
271.784
20
60.059
30
0.000
0
VERTEX
8
CUT
10
268.475
20
60.756
30
0.000
0
VERTEX
8
CUT
10
265.107
20
61.056
30
0.000
0
VERTEX
8
CUT
10
261.727
20
60.956
30
0.000
0
VERTEX
8
CUT
10
258.383
20
60.457
30
0.000
0
VERTEX
8
CUT
10
255.121
20
59.565
30
0.000
0
VERTEX
8
CUT
10
251.987
20
58.295
30
0.000
0
VERTEX
8
CUT
10
249.026
20
56.662
30
0.000
0
VERTEX
8
CUT
10
246.278
20
54.691
30
0.000
0
VERTEX
8
CUT
10
243.783
20
52.408
30
0.000
0
VERTEX
8
CUT
10
241.576
20
49.847
30
0.000
0
VERTEX
8
CUT
10
239.687
20
47.042
30
0.000
0
VERTEX
8
CUT
10
238.143
20
44.034
30
0.000
0
VERTEX
8
CUT
10
236.965
20
40.864
30
0.000
0
VERTEX
8
CUT
10
236.171
20
37.577
30
0.000
0
VERTEX
8
CUT
10
235.771
20
34.219
30
0.000
0
VERTEX
8
CUT
10
235.771
20
30.837
30
0.000
0
VERTEX
8
CUT
10
236.171
20
27.480
30
0.000
0
VERTEX
8
CUT
10
236.965
20
24.193
30
0.000
0
VERTEX
8
CUT
10
238.143
20
21.023
30
0.000
0
VERTEX
8
CUT
10
239.687
20
18.014
30
0.000
0
VERTEX
8
CUT
10
241.576
20
15.210
30
0.000
0
VERTEX
8
CUT
10
243.783
20
12.648
30
0.000
0
VERTEX
8
CUT
10
246.278
20
10.366
30
0.000
0
VERTEX
8
CUT
10
249.026
20
8.394
30
0.000
0
VERTEX
8
CUT
10
251.987
20
6.762
30
0.000
0
VERTEX
8
CUT
10
255.121
20
5.491
30
0.000
0
VERTEX
8
CUT
10
258.383
20
4.599
30
0.000
0
VERTEX
8
CUT
10
261.727
20
4.100
30
0.000
0
VERTEX
8
CUT
10
265.107
20
4.000
30
0.000
0
SEQEND
8
CUT
0
ENDSEC
0
EOF
